<svg width="92" height="25" viewBox="0 0 92 25" fill="none" xmlns="http://www.w3.org/2000/svg">
<g clip-path="url(#clip0_179_34172)">
<path fill-rule="evenodd" clip-rule="evenodd" d="M24.029 24.9361H28.2992V0H24.029V24.9361ZM42.7298 17.0625C42.7298 20.8715 39.3668 21.1736 38.3668 21.1736C35.868 21.1736 35.4122 18.9451 35.4122 17.6028V8.07917H31.2312V17.5826C31.2312 19.941 32.0089 21.8882 33.3734 23.1868C34.5771 24.3333 36.3811 24.9618 38.3357 24.9618C39.7214 24.9618 41.6838 24.55 42.7291 23.6417V25H46.9101V8.07917H42.7291L42.7298 17.0625ZM55.2481 2.09931H51.0671V8.07361H47.9313V12.0556H51.0671V25H55.2481V12.0556H58.3839V8.07361H55.2481V2.09931ZM71.5746 19.9333C70.6624 20.7125 69.4551 21.1465 68.1331 21.1465C65.216 21.1465 63.0738 19.1111 63.0738 16.3153C63.0738 13.5194 65.1473 11.5729 68.1331 11.5729C69.4317 11.5729 70.6624 11.9847 71.5972 12.7639L72.2342 13.284L75.0607 10.5979L74.3537 9.99097C72.6906 8.5618 70.4805 7.76042 68.1331 7.76042C62.8912 7.76042 59.0845 11.3556 59.0845 16.2944C59.0845 21.2104 62.9818 24.9361 68.1331 24.9361C70.5258 24.9361 72.7593 24.1347 74.399 22.6833L75.0833 22.0785L72.2129 19.3924L71.5746 19.9333ZM89.9619 9.52222C88.7552 8.37361 87.3413 7.74375 85.3852 7.74375C83.9953 7.74375 82.4221 8.15625 81.3754 9.06667V0.0638889H77.1866V25H81.3754V15.659C81.3754 11.8424 84.2211 11.5382 85.2231 11.5382C87.7262 11.5382 87.6583 13.7729 87.6583 15.1167V25H91.8464V15.1389C91.8464 12.7757 91.327 10.8229 89.9619 9.52292V9.52222Z" fill="#17313B"/>
<path fill-rule="evenodd" clip-rule="evenodd" d="M67.9767 13.4861C69.6489 13.4861 71.0042 14.7812 71.0042 16.3805C71.0042 17.9798 69.6489 19.275 67.9767 19.275C66.3044 19.275 64.9492 17.9798 64.9492 16.3805C64.9492 14.7812 66.3044 13.4861 67.9767 13.4861Z" fill="#E62415"/>
<path fill-rule="evenodd" clip-rule="evenodd" d="M18.0476 18.7667C16.4574 20.3305 14.2982 21.1771 12.0251 21.1771C7.36425 21.1771 3.97794 17.6805 3.97794 12.8812C3.97794 8.05971 7.36425 4.56318 12.0251 4.56318C14.2665 4.55804 16.4206 5.41547 18.0249 6.95138L18.6604 7.55971L21.4565 4.88888L20.8437 4.28054C18.5238 2.00068 15.3874 0.763184 12.0251 0.763184C5.15978 0.763184 0 5.97568 0 12.9028C0 19.809 5.18243 25 12.0251 25C15.4114 25 18.5486 23.7396 20.867 21.4597L21.4799 20.8514L18.7078 18.1375L18.0476 18.7667Z" fill="#17313B"/>
</g>
<defs>
<clipPath id="clip0_179_34172">
<rect width="92" height="25" fill="white"/>
</clipPath>
</defs>
</svg>
