<svg width="41" height="40" viewBox="0 0 41 40" fill="none" xmlns="http://www.w3.org/2000/svg">
<path d="M9.34435 3.33399C9.0685 3.33355 8.80168 3.43229 8.59256 3.61219C8.38345 3.79209 8.24596 4.04116 8.20518 4.31399C8.08852 5.10399 7.16602 11.389 7.16602 14.1673C7.16602 15.9973 7.95435 17.6457 9.20602 18.7873C9.78518 19.3148 10.0827 19.8482 10.0827 20.3223C10.0827 20.3598 10.0818 20.3907 10.0785 20.424C10.0002 21.4023 9.24935 30.814 9.24935 32.5007C9.24935 33.6057 9.68834 34.6655 10.4697 35.4469C11.2511 36.2283 12.3109 36.6673 13.416 36.6673C14.5211 36.6673 15.5809 36.2283 16.3623 35.4469C17.1437 34.6655 17.5827 33.6057 17.5827 32.5007C17.5827 30.814 16.8318 21.4023 16.7535 20.424L16.7493 20.3223C16.7493 19.8482 17.0468 19.3148 17.626 18.7873C18.2696 18.2022 18.7835 17.4888 19.1349 16.6932C19.4862 15.8975 19.6671 15.0371 19.666 14.1673C19.666 11.389 18.7435 5.10065 18.6268 4.31399C18.5861 4.04131 18.4487 3.79234 18.2398 3.61246C18.0308 3.43258 17.7642 3.33375 17.4885 3.33399H17.4735C16.8102 3.33399 16.3343 3.87982 16.3343 4.47565V13.234C16.3343 13.3566 16.3102 13.4779 16.2633 13.5912C16.2164 13.7044 16.1476 13.8073 16.061 13.894C15.9743 13.9806 15.8714 14.0494 15.7582 14.0963C15.6449 14.1432 15.5236 14.1673 15.401 14.1673C15.2784 14.1673 15.1571 14.1432 15.0438 14.0963C14.9306 14.0494 14.8277 13.9806 14.741 13.894C14.6544 13.8073 14.5856 13.7044 14.5387 13.5912C14.4918 13.4779 14.4677 13.3566 14.4677 13.234V4.43315C14.4723 4.29036 14.4478 4.14812 14.3957 4.0151C14.3435 3.88208 14.2649 3.76107 14.1644 3.65943C14.064 3.5578 13.944 3.47767 13.8116 3.42394C13.6792 3.3702 13.5373 3.34398 13.3945 3.34687C13.2516 3.34975 13.1109 3.38169 12.9808 3.44074C12.8507 3.49978 12.7339 3.5847 12.6377 3.69031C12.5415 3.79592 12.4678 3.92001 12.4211 4.05503C12.3744 4.19005 12.3556 4.33316 12.366 4.47565V13.234C12.366 13.4815 12.2677 13.7189 12.0926 13.894C11.9176 14.069 11.6802 14.1673 11.4327 14.1673C11.1851 14.1673 10.9477 14.069 10.7727 13.894C10.5977 13.7189 10.4993 13.4815 10.4993 13.234V4.47565C10.4993 4.1733 10.3794 3.88329 10.1658 3.66925C9.95228 3.45522 9.66254 3.33465 9.36018 3.33399H9.34435ZM26.2577 20.0007L26.2052 20.7607C26.1268 21.8957 26.0218 23.4273 25.9185 25.014C25.7118 28.159 25.4993 31.5932 25.4993 32.5007C25.4993 33.6057 25.9383 34.6655 26.7197 35.4469C27.5011 36.2283 28.5609 36.6673 29.666 36.6673C30.7711 36.6673 31.8309 36.2283 32.6123 35.4469C33.3937 34.6655 33.8327 33.6057 33.8327 32.5007C33.8327 31.4932 33.5702 27.6723 33.3427 24.374L33.3352 24.2657C33.1535 21.6223 32.9993 19.3673 32.9993 18.959V4.37565C32.9993 3.80065 32.5327 3.33399 31.9577 3.33399H31.541C26.3635 3.33399 22.166 7.53149 22.166 12.709V17.2923C22.166 18.0106 22.4514 18.6995 22.9593 19.2074C23.4672 19.7153 24.1561 20.0007 24.8743 20.0007H26.2577Z" fill="white"/>
</svg>
