<svg width="41" height="41" viewBox="0 0 41 41" fill="none" xmlns="http://www.w3.org/2000/svg">
<path d="M38.2438 19.6953C36.5868 12.2039 34.093 8.20546 30.3938 7.11328C29.6162 6.88516 28.8096 6.77121 27.9993 6.77499C26.9282 6.77499 25.9954 7.03593 25.0086 7.31249C23.8196 7.64609 22.4688 8.02499 20.4993 8.02499C18.5297 8.02499 17.1782 7.64687 15.9868 7.31327C14.9993 7.03593 14.0672 6.77499 12.9993 6.77499C12.1613 6.77205 11.327 6.88564 10.5204 7.11249C6.84067 8.19999 4.34848 12.1969 2.66723 19.6906C0.859422 27.7547 1.74927 32.8461 5.16255 34.0273C5.63041 34.1923 6.12271 34.2773 6.6188 34.2789C8.95708 34.2789 10.8321 32.3312 12.1133 30.7367C13.561 28.932 15.2555 28.0164 20.4993 28.0164C25.1829 28.0164 27.1211 28.6516 28.7954 30.7367C29.8477 32.0476 30.8422 32.9648 31.8344 33.5422C33.154 34.3094 34.4727 34.4797 35.7532 34.0398C37.7704 33.3516 38.9266 31.532 39.1907 28.6305C39.3915 26.4055 39.0821 23.4828 38.2438 19.6953ZM16.7493 19.275H14.2493V21.775C14.2493 22.1065 14.1176 22.4245 13.8831 22.6589C13.6487 22.8933 13.3308 23.025 12.9993 23.025C12.6677 23.025 12.3498 22.8933 12.1154 22.6589C11.881 22.4245 11.7493 22.1065 11.7493 21.775V19.275H9.24927C8.91775 19.275 8.5998 19.1433 8.36538 18.9089C8.13096 18.6745 7.99927 18.3565 7.99927 18.025C7.99927 17.6935 8.13096 17.3755 8.36538 17.1411C8.5998 16.9067 8.91775 16.775 9.24927 16.775H11.7493V14.275C11.7493 13.9435 11.881 13.6255 12.1154 13.3911C12.3498 13.1567 12.6677 13.025 12.9993 13.025C13.3308 13.025 13.6487 13.1567 13.8831 13.3911C14.1176 13.6255 14.2493 13.9435 14.2493 14.275V16.775H16.7493C17.0808 16.775 17.3987 16.9067 17.6331 17.1411C17.8676 17.3755 17.9993 17.6935 17.9993 18.025C17.9993 18.3565 17.8676 18.6745 17.6331 18.9089C17.3987 19.1433 17.0808 19.275 16.7493 19.275ZM23.3118 19.5875C23.0027 19.5875 22.7006 19.4959 22.4437 19.3242C22.1867 19.1525 21.9865 18.9084 21.8682 18.6229C21.7499 18.3374 21.719 18.0233 21.7793 17.7202C21.8396 17.4171 21.9884 17.1387 22.2069 16.9201C22.4254 16.7016 22.7038 16.5528 23.0069 16.4925C23.31 16.4322 23.6242 16.4632 23.9097 16.5814C24.1952 16.6997 24.4392 16.9 24.6109 17.1569C24.7826 17.4139 24.8743 17.716 24.8743 18.025C24.8743 18.4394 24.7096 18.8368 24.4166 19.1298C24.1236 19.4229 23.7262 19.5875 23.3118 19.5875ZM26.7493 23.025C26.4401 23.025 26.1378 22.9333 25.8808 22.7614C25.6237 22.5895 25.4235 22.3453 25.3053 22.0595C25.1872 21.7738 25.1565 21.4594 25.2171 21.1562C25.2777 20.853 25.4269 20.5746 25.6458 20.3563C25.8647 20.1379 26.1435 19.9894 26.4468 19.9295C26.7502 19.8697 27.0645 19.9012 27.3499 20.0201C27.6354 20.1389 27.8791 20.3398 28.0503 20.5973C28.2216 20.8547 28.3125 21.1572 28.3118 21.4664C28.3107 21.8801 28.1457 22.2765 27.8527 22.5687C27.5598 22.8609 27.163 23.025 26.7493 23.025ZM26.7493 16.15C26.4402 16.15 26.1381 16.0584 25.8812 15.8867C25.6242 15.715 25.424 15.4709 25.3057 15.1854C25.1874 14.8999 25.1565 14.5858 25.2168 14.2827C25.2771 13.9796 25.4259 13.7012 25.6444 13.4826C25.8629 13.2641 26.1413 13.1153 26.4444 13.055C26.7475 12.9947 27.0617 13.0257 27.3472 13.1439C27.6327 13.2622 27.8767 13.4625 28.0484 13.7194C28.2201 13.9764 28.3118 14.2785 28.3118 14.5875C28.3118 15.0019 28.1471 15.3993 27.8541 15.6923C27.5611 15.9854 27.1637 16.15 26.7493 16.15ZM30.1868 19.5875C29.8777 19.5875 29.5756 19.4959 29.3187 19.3242C29.0617 19.1525 28.8615 18.9084 28.7432 18.6229C28.6249 18.3374 28.594 18.0233 28.6543 17.7202C28.7146 17.4171 28.8634 17.1387 29.0819 16.9201C29.3004 16.7016 29.5788 16.5528 29.8819 16.4925C30.185 16.4322 30.4992 16.4632 30.7847 16.5814C31.0702 16.6997 31.3142 16.9 31.4859 17.1569C31.6576 17.4139 31.7493 17.716 31.7493 18.025C31.7493 18.4394 31.5846 18.8368 31.2916 19.1298C30.9986 19.4229 30.6012 19.5875 30.1868 19.5875Z" fill="white"/>
</svg>
