<svg width="148" height="23" viewBox="0 0 148 23" fill="none" xmlns="http://www.w3.org/2000/svg">
<g clip-path="url(#clip0_179_34176)">
<path d="M9.009 8.252C9.009 8.252 7.752 8.147 7.752 9.195V14.014H15.818V15.481C15.818 15.481 15.818 16.214 15.085 16.214H7.752V22.5H16.552C16.552 22.5 21.895 21.662 21.895 16.214V8.252H9.009ZM21.791 0.5H5.866C0.105 1.862 0 6.576 0 6.576V22.5H6.076V8.043C6.076 6.786 7.333 6.576 7.333 6.576H21.79L21.791 0.5ZM42.743 17.891C42.324 18.205 42.01 18.415 41.8 18.52C41.067 19.044 40.229 19.358 39.6 19.672C38.552 20.091 37.715 20.301 36.876 20.301C34.152 20.301 31.847 19.463 29.962 17.787C28.077 16.111 27.238 13.911 27.238 11.397C27.238 8.883 28.076 6.787 29.752 4.902C31.428 3.121 33.419 2.178 35.828 2.178C36.771 2.178 37.819 2.388 38.971 2.702C40.438 3.121 41.59 3.854 42.428 4.693L40.857 6.474C40.228 5.845 39.286 5.322 38.238 5.007C37.416 4.79968 36.5717 4.69422 35.724 4.693C34.048 4.693 32.686 5.322 31.534 6.683C30.382 8.044 29.857 9.614 29.857 11.5C29.857 13.386 30.486 14.852 31.743 16.109C33 17.366 34.677 17.89 36.562 17.89C37.4531 17.8927 38.326 17.6382 39.076 17.157C39.81 16.633 40.124 16.319 40.124 16.319V12.443H34.781L35.619 10.138H42.742V17.89L42.743 17.891ZM58.772 13.281C58.792 14.1783 58.6253 15.07 58.2826 15.8996C57.9398 16.7291 57.4285 17.4784 56.781 18.1C55.42 19.462 53.848 20.09 51.962 20.09C50.181 20.09 48.61 19.461 47.248 18.1C46.6005 17.4784 46.0891 16.7291 45.7464 15.8996C45.4037 15.07 45.237 14.1783 45.257 13.281C45.257 11.395 45.885 9.824 47.143 8.462C48.401 7.1 49.971 6.367 51.857 6.367C53.848 6.367 55.524 6.996 56.885 8.357C58.143 9.614 58.772 11.29 58.772 13.281ZM56.258 13.281C56.258 12.024 55.839 10.976 55.001 10.138C54.163 9.3 53.115 8.881 51.858 8.881C50.706 8.881 49.658 9.3 48.924 10.243C48.086 11.186 47.667 12.129 47.667 13.281C47.667 14.538 48.086 15.481 48.924 16.424C49.762 17.262 50.81 17.681 51.962 17.681C53.114 17.681 54.057 17.262 54.896 16.424C55.838 15.481 56.363 14.538 56.258 13.281ZM74.697 13.281C74.717 14.1783 74.5503 15.07 74.2076 15.8996C73.8648 16.7291 73.3535 17.4784 72.706 18.1C71.344 19.462 69.772 20.09 67.887 20.09C66.106 20.09 64.534 19.461 63.173 18.1C62.5255 17.4784 62.0142 16.7291 61.6714 15.8996C61.3287 15.07 61.162 14.1783 61.182 13.281C61.1518 11.4892 61.8291 9.75775 63.067 8.462C64.325 7.1 65.896 6.367 67.781 6.367C69.772 6.367 71.448 6.996 72.81 8.357C73.962 9.614 74.697 11.29 74.697 13.281ZM72.183 13.281C72.183 12.024 71.764 10.976 70.925 10.138C70.086 9.3 69.04 8.881 67.782 8.881C66.63 8.881 65.582 9.3 64.849 10.243C64.011 11.186 63.591 12.129 63.591 13.281C63.591 14.538 64.01 15.481 64.849 16.424C65.687 17.262 66.734 17.681 67.887 17.681C69.04 17.681 69.982 17.262 70.82 16.424C71.763 15.481 72.183 14.538 72.183 13.281ZM89.364 19.776L87.06 20.09V17.89L86.535 18.414C86.117 18.833 85.593 19.147 85.069 19.462C84.2723 19.7959 83.4188 19.9738 82.555 19.986C80.774 19.986 79.202 19.357 78.05 17.996C76.793 16.634 76.165 15.063 76.165 13.282C76.165 11.396 76.793 9.72 78.05 8.463C79.307 7.206 80.774 6.473 82.555 6.473C83.4549 6.46361 84.3469 6.64208 85.174 6.997C85.698 7.207 86.117 7.521 86.535 7.94C86.64 8.15 86.745 8.254 86.954 8.464V2.595L89.364 2.281V19.776ZM87.164 13.49C87.164 12.233 86.745 11.081 85.802 10.138C84.859 9.195 83.916 8.776 82.764 8.776C81.507 8.776 80.46 9.195 79.726 10.033C78.992 10.871 78.574 11.919 78.574 13.071C78.574 14.433 78.993 15.48 79.726 16.319C80.459 17.158 81.507 17.576 82.66 17.576C83.813 17.576 84.86 17.157 85.803 16.424C86.746 15.586 87.165 14.643 87.165 13.491L87.164 13.49ZM102.25 5.004H95.441V9.613H100.784V12.023H95.441V19.671L92.822 20.09V2.595H101.831L102.25 5.004ZM107.697 3.642L106.021 5.737L104.45 3.642L106.126 1.547L107.697 3.642ZM107.173 19.775L104.764 20.089V7.1L107.173 6.681V19.775ZM118.278 6.575L117.125 9.194H116.707C116.497 9.194 116.183 9.194 115.973 9.299C115.764 9.299 115.449 9.404 115.24 9.509C114.716 9.719 114.297 10.242 113.878 10.976C113.459 11.814 113.25 12.757 113.25 13.595V19.671L110.84 20.09V7.1L113.145 6.681V9.405C113.459 8.986 113.773 8.462 114.088 7.938C114.506 7.414 115.03 7.1 115.554 6.89C115.869 6.785 116.392 6.68 117.125 6.576H118.278V6.575ZM136.401 19.775L133.992 20.089V11.184C133.992 10.346 133.782 9.717 133.468 9.403C133.153 8.984 132.525 8.879 131.897 8.879C131.059 8.879 130.43 9.193 129.906 9.927C129.591 10.451 129.487 10.975 129.487 11.498V19.774L127.078 20.193V11.288C127.078 10.555 126.868 9.926 126.554 9.507C126.24 9.088 125.716 8.878 125.087 8.878H124.877C124.039 8.878 123.41 9.192 122.992 9.926C122.677 10.45 122.573 11.183 122.573 12.021V19.773L120.059 20.192V7.1L122.363 6.681V8.357C122.573 7.938 122.887 7.624 123.097 7.414C123.4 7.11311 123.76 6.87496 124.155 6.71315C124.55 6.55134 124.974 6.46905 125.401 6.471C126.344 6.471 127.078 6.576 127.602 6.89C128.02 7.1 128.44 7.623 128.859 8.461C129.697 7.099 130.85 6.471 132.421 6.471C133.888 6.471 135.04 6.89 135.773 7.938C136.401 8.671 136.716 9.928 136.716 11.395V19.776L136.401 19.775ZM147.611 15.794C147.611 16.946 147.192 17.994 146.354 18.727C145.516 19.46 144.468 19.879 143.211 19.879C142.268 19.879 141.43 19.669 140.592 19.25C139.858 18.831 139.23 18.307 138.811 17.679L140.487 16.108C140.592 16.318 140.697 16.422 140.802 16.527C141.43 17.156 142.164 17.47 143.106 17.47C143.735 17.47 144.259 17.26 144.573 16.946C144.887 16.632 145.097 16.213 145.097 15.584C145.097 14.955 144.678 14.432 143.84 14.222L141.116 13.384C140.382 12.965 139.754 12.546 139.439 12.127C139.02 11.603 138.811 10.87 138.811 9.927C138.811 8.775 139.23 7.832 140.068 7.098C140.906 6.364 141.849 5.946 143.002 5.946C143.84 5.946 144.678 6.156 145.412 6.575C146.146 6.994 146.669 7.413 146.983 7.832L145.621 9.718C145.4 9.48298 145.154 9.27213 144.888 9.089C144.26 8.67 143.736 8.46 143.212 8.46C142.688 8.46 142.269 8.565 141.954 8.774C141.754 8.91571 141.592 9.10456 141.483 9.32382C141.373 9.54309 141.319 9.78599 141.326 10.031C141.326 10.555 141.535 10.974 141.85 11.183C142.165 11.392 142.898 11.602 143.945 11.812C144.992 12.022 145.831 12.545 146.459 13.174C147.297 13.907 147.611 14.746 147.611 15.794Z" fill="#1B66F3"/>
</g>
<defs>
<clipPath id="clip0_179_34176">
<rect width="148" height="22" fill="white" transform="translate(0 0.5)"/>
</clipPath>
</defs>
</svg>
