<svg width="100" height="33" viewBox="0 0 100 33" fill="none" xmlns="http://www.w3.org/2000/svg">
<path d="M42.794 17.3657C42.794 22.1135 39.0892 25.6122 34.5423 25.6122C29.9954 25.6122 26.2905 22.1135 26.2905 17.3657C26.2905 12.5843 29.9954 9.11914 34.5423 9.11914C39.0892 9.11914 42.794 12.5843 42.794 17.3657ZM39.1817 17.3657C39.1817 14.3986 37.0345 12.3687 34.5423 12.3687C32.0501 12.3687 29.9028 14.3988 29.9028 17.3657C29.9028 20.3029 32.0501 22.3626 34.5423 22.3626C37.0345 22.3628 39.1817 20.2992 39.1817 17.3657Z" fill="#FF4131"/>
<path d="M60.5958 17.3657C60.5958 22.1135 56.8909 25.6122 52.344 25.6122C47.7972 25.6122 44.0923 22.1135 44.0923 17.3657C44.0923 12.588 47.7972 9.11914 52.344 9.11914C56.8907 9.11914 60.5958 12.5843 60.5958 17.3657ZM56.9835 17.3657C56.9835 14.3986 54.8362 12.3687 52.344 12.3687C49.8519 12.3687 47.7046 14.3988 47.7046 17.3657C47.7046 20.3029 49.8519 22.3626 52.344 22.3626C54.8362 22.3628 56.9835 20.2992 56.9835 17.3657Z" fill="#FFBC00"/>
<path d="M77.6554 9.61746V24.4225C77.6554 30.5126 74.0727 32.9999 69.8376 32.9999C65.8509 32.9999 63.4513 30.3266 62.5464 28.1404L65.6913 26.8279C66.2513 28.1702 67.6235 29.754 69.8339 29.754C72.5448 29.754 74.2249 28.0772 74.2249 24.9206V23.7346H74.0987C73.2903 24.7348 71.7325 25.6085 69.7671 25.6085C65.6542 25.6085 61.8862 22.0168 61.8862 17.3954C61.8862 12.7406 65.6542 9.11914 69.7671 9.11914C71.729 9.11914 73.2866 9.99282 74.0987 10.9632H74.2249V9.62099H77.6554V9.61746ZM74.4808 17.3954C74.4808 14.4916 72.5485 12.3687 70.0897 12.3687C67.5976 12.3687 65.5095 14.4916 65.5095 17.3954C65.5095 20.2694 67.5974 22.3626 70.0897 22.3626C72.5485 22.3628 74.4808 20.2694 74.4808 17.3954Z" fill="#0085F7"/>
<path d="M83.3113 0.939209V25.1062H79.7881V0.939209H83.3113Z" fill="#00A94B"/>
<path d="M97.0406 20.0807L99.8443 21.9546C98.9394 23.2968 96.7588 25.6093 92.9908 25.6093C88.318 25.6093 84.8281 21.9878 84.8281 17.3627C84.8281 12.4586 88.3477 9.11621 92.5865 9.11621C96.8551 9.11621 98.9432 12.5218 99.6256 14.3622L100 15.2991L89.0041 19.8649C89.8459 21.5195 91.1551 22.3634 92.9908 22.3634C94.8303 22.3636 96.106 21.4562 97.0406 20.0807ZM88.4107 17.1137L95.7613 14.0538C95.357 13.0239 94.1406 12.3065 92.7092 12.3065C90.8732 12.3063 88.318 13.9311 88.4107 17.1137Z" fill="#FF4131"/>
<path d="M12.9543 15.2215V11.7228H24.7144C24.8295 12.3326 24.8887 13.0539 24.8887 13.8346C24.8887 16.4596 24.1728 19.7052 21.8662 22.0179C19.6225 24.3603 16.7557 25.6095 12.958 25.6095C5.91894 25.6095 0 19.8615 0 12.8049C0 5.74825 5.91894 0 12.958 0C16.8521 0 19.6262 1.53178 21.7103 3.52841L19.2478 5.99711C17.7533 4.59163 15.7283 3.49864 12.9543 3.49864C7.81406 3.49864 3.79394 7.65167 3.79394 12.8049C3.79394 17.9581 7.81406 22.1111 12.9543 22.1111C16.2883 22.1111 18.1871 20.7688 19.4037 19.5494C20.3902 18.5604 21.0392 17.1476 21.2951 15.218L12.9543 15.2215Z" fill="#0085F7"/>
</svg>
