<svg width="26" height="26" viewBox="0 0 26 26" fill="none" xmlns="http://www.w3.org/2000/svg">
<g clip-path="url(#clip0_179_34220)">
<path d="M25.0195 10.7388L14.4143 10.7383C13.946 10.7383 13.5664 11.1178 13.5664 11.5861V14.974C13.5664 15.4422 13.946 15.8218 14.4142 15.8218H20.3864C19.7325 17.519 18.5119 18.9403 16.9546 19.8434L19.5012 24.2517C23.5861 21.8892 26.0012 17.744 26.0012 13.1037C26.0012 12.443 25.9525 11.9706 25.8551 11.4388C25.781 11.0347 25.4302 10.7388 25.0195 10.7388Z" fill="#167EE6"/>
<path d="M12.9987 20.913C10.076 20.913 7.52454 19.3161 6.15421 16.9531L1.74609 19.4939C3.98936 23.3818 8.19171 26 12.9987 26C15.3568 26 17.5819 25.365 19.4987 24.2586V24.2525L16.9521 19.8442C15.7873 20.5198 14.4394 20.913 12.9987 20.913Z" fill="#12B347"/>
<path d="M19.5 24.2581V24.2521L16.9535 19.8438C15.7887 20.5193 14.4408 20.9125 13 20.9125V25.9995C15.3581 25.9995 17.5833 25.3646 19.5 24.2581Z" fill="#0F993E"/>
<path d="M5.08696 13.0001C5.08696 11.5594 5.48011 10.2117 6.15555 9.04689L1.74743 6.5061C0.634867 8.41685 0 10.6359 0 13.0001C0 15.3642 0.634867 17.5833 1.74743 19.494L6.15555 16.9532C5.48011 15.7885 5.08696 14.4407 5.08696 13.0001Z" fill="#FFD500"/>
<path d="M12.9987 5.08696C14.9045 5.08696 16.6552 5.76418 18.0226 6.89066C18.3599 7.16853 18.8502 7.14848 19.1592 6.83947L21.5596 4.43904C21.9102 4.08845 21.8852 3.51457 21.5107 3.18967C19.2197 1.20214 16.2389 0 12.9987 0C8.19171 0 3.98936 2.61813 1.74609 6.50604L6.15421 9.04683C7.52454 6.68383 10.076 5.08696 12.9987 5.08696Z" fill="#FF4B26"/>
<path d="M18.0239 6.89066C18.3612 7.16853 18.8516 7.14848 19.1605 6.83947L21.561 4.43904C21.9115 4.08845 21.8865 3.51457 21.5121 3.18967C19.2211 1.20209 16.2402 0 13 0V5.08696C14.9058 5.08696 16.6565 5.76418 18.0239 6.89066Z" fill="#D93F21"/>
</g>
<defs>
<clipPath id="clip0_179_34220">
<rect width="26" height="26" fill="white"/>
</clipPath>
</defs>
</svg>
