<svg width="20" height="20" viewBox="0 0 20 20" fill="none" xmlns="http://www.w3.org/2000/svg">
<path d="M10 9.58317C9.44746 9.58317 8.91756 9.36368 8.52686 8.97298C8.13616 8.58228 7.91666 8.05237 7.91666 7.49984C7.91666 6.9473 8.13616 6.4174 8.52686 6.0267C8.91756 5.636 9.44746 5.4165 10 5.4165C10.5525 5.4165 11.0824 5.636 11.4731 6.0267C11.8638 6.4174 12.0833 6.9473 12.0833 7.49984C12.0833 7.77342 12.0294 8.04433 11.9247 8.29709C11.82 8.54986 11.6666 8.77952 11.4731 8.97298C11.2797 9.16643 11.05 9.31989 10.7973 9.42459C10.5445 9.52928 10.2736 9.58317 10 9.58317ZM10 1.6665C8.4529 1.6665 6.96917 2.28109 5.87521 3.37505C4.78125 4.46901 4.16666 5.95274 4.16666 7.49984C4.16666 11.8748 10 18.3332 10 18.3332C10 18.3332 15.8333 11.8748 15.8333 7.49984C15.8333 5.95274 15.2187 4.46901 14.1248 3.37505C13.0308 2.28109 11.5471 1.6665 10 1.6665Z" fill="white"/>
</svg>
