<svg width="41" height="40" viewBox="0 0 41 40" fill="none" xmlns="http://www.w3.org/2000/svg">
<path d="M35.5007 6.66602H17.1673C16.7253 6.66602 16.3014 6.84161 15.9888 7.15417C15.6762 7.46673 15.5007 7.89065 15.5007 8.33268V26.666C15.5007 27.108 15.6762 27.532 15.9888 27.8445C16.3014 28.1571 16.7253 28.3327 17.1673 28.3327H35.5007C35.9427 28.3327 36.3666 28.1571 36.6792 27.8445C36.9917 27.532 37.1673 27.108 37.1673 26.666V8.33268C37.1673 7.89065 36.9917 7.46673 36.6792 7.15417C36.3666 6.84161 35.9427 6.66602 35.5007 6.66602ZM3.83398 28.3327H15.5007V16.666H9.66732L3.83398 22.051V28.3327Z" fill="white" stroke="white" stroke-width="2" stroke-linejoin="round"/>
<path d="M15.5007 29.999C15.5007 30.8831 15.1495 31.7309 14.5243 32.356C13.8992 32.9812 13.0514 33.3324 12.1673 33.3324C11.2833 33.3324 10.4354 32.9812 9.81029 32.356C9.18517 31.7309 8.83398 30.8831 8.83398 29.999M33.834 29.999C33.834 30.8831 33.4828 31.7309 32.8577 32.356C32.2326 32.9812 31.3847 33.3324 30.5007 33.3324C29.6166 33.3324 28.7687 32.9812 28.1436 32.356C27.5185 31.7309 27.1673 30.8831 27.1673 29.999" stroke="white" stroke-width="2" stroke-linecap="round" stroke-linejoin="round"/>
</svg>
