<svg width="41" height="40" viewBox="0 0 41 40" fill="none" xmlns="http://www.w3.org/2000/svg">
<path d="M18.4583 17.3337L8.04159 12.8337C7.37492 12.5281 6.96548 12.0348 6.81326 11.3537C6.66103 10.6725 6.84826 10.0687 7.37492 9.54199L8.04159 8.87533C8.26381 8.6531 8.53492 8.48644 8.85492 8.37533C9.17492 8.26421 9.50103 8.23644 9.83326 8.29199L24.8333 10.9587L29.9999 5.75033C30.6388 5.11144 31.4238 4.79199 32.3549 4.79199C33.286 4.79199 34.0705 5.11144 34.7083 5.75033C35.346 6.38921 35.6655 7.17421 35.6666 8.10533C35.6677 9.03644 35.3483 9.82088 34.7083 10.4587L29.5416 15.667L32.1666 30.6253C32.2221 30.9587 32.201 31.292 32.1033 31.6253C32.0055 31.9587 31.846 32.2364 31.6249 32.4587L30.9583 33.0837C30.4305 33.6114 29.8194 33.8059 29.1249 33.667C28.4305 33.5281 27.9305 33.1253 27.6249 32.4587L23.1666 22.042L18.9166 26.2503L19.8333 31.417C19.8888 31.6948 19.8749 31.9659 19.7916 32.2303C19.7083 32.4948 19.5694 32.7237 19.3749 32.917L18.6666 33.6253C18.2777 34.0142 17.7988 34.167 17.2299 34.0837C16.661 34.0003 16.2371 33.7087 15.9583 33.2087L12.9166 27.5837L7.29159 24.542C6.79159 24.2642 6.49992 23.8409 6.41659 23.272C6.33326 22.7031 6.48603 22.2237 6.87492 21.8337L7.58326 21.1253C7.7777 20.9309 8.00715 20.792 8.27159 20.7087C8.53604 20.6253 8.80659 20.6114 9.08326 20.667L14.2083 21.542L18.4583 17.3337Z" fill="white"/>
</svg>
