<?xml version="1.0" encoding="utf-8"?>
<!-- Generator: Adobe Illustrator 24.2.0, SVG Export Plug-In . SVG Version: 6.00 Build 0)  -->
<svg version="1.1" id="Layer_1" xmlns="http://www.w3.org/2000/svg" xmlns:xlink="http://www.w3.org/1999/xlink" x="0px" y="0px"
	 viewBox="0 0 1000 1000" style="enable-background:new 0 0 1000 1000;" xml:space="preserve">
<style type="text/css">
	.st0{fill:#87C540;}
	.st1{fill:#414238;}
</style>
<g>
	<g>
		<path class="st0" d="M826.2,468.2c-1.9,0-3.7,0.4-5.4,1.3l-51.5,29.7c-3.3,1.9-5.4,5.5-5.4,9.4V568c0,3.9,2,7.5,5.4,9.4l13.4,7.8
			c6.5,3.2,8.9,3.2,11.9,3.2c9.7,0,15.2-5.9,15.2-16.1v-58.6c0-0.8-0.7-1.4-1.5-1.4h-6.5c-0.8,0-1.5,0.6-1.5,1.4v58.6
			c0,4.5-4.7,9.1-12.4,5.2l-14-8.2c-0.5-0.3-0.9-0.7-0.9-1.3v-59.4c0-0.6,0.4-1.1,0.9-1.4l51.4-29.6c0.5-0.3,1.1-0.3,1.5,0
			l51.4,29.6c0.5,0.3,0.9,0.8,0.9,1.4V568c0,0.6-0.3,1.1-0.8,1.4l-51.5,29.6c-0.4,0.3-1,0.3-1.5,0l-13.2-7.9c-0.4-0.2-0.9-0.2-1.3,0
			c-3.7,2.1-4.3,2.3-7.8,3.5c-0.8,0.3-2.1,0.8,0.4,2.2l17.3,10.2c1.6,0.9,3.5,1.4,5.4,1.4c1.9,0,3.7-0.5,5.4-1.4l51.5-29.6
			c3.3-1.9,5.4-5.5,5.4-9.4v-59.4c0-3.9-2-7.5-5.4-9.4l-51.5-29.7C829.9,468.6,828,468.2,826.2,468.2L826.2,468.2z"/>
		<path class="st0" d="M839.9,510.6c-14.7,0-23.4,6.2-23.4,16.6c0,11.3,8.7,14.4,22.7,15.7c16.8,1.6,18.1,4.1,18.1,7.4
			c0,5.7-4.6,8.2-15.4,8.2c-13.6,0-16.6-3.4-17.6-10.2c-0.1-0.7-0.7-1.3-1.4-1.3h-6.7c-0.8,0-1.5,0.7-1.5,1.5
			c0,8.7,4.7,18.9,27.2,18.9c16.3,0,25.7-6.4,25.7-17.6c0-11.1-7.6-14.1-23.4-16.2c-16-2.1-17.5-3.1-17.5-6.9
			c0-3.1,1.3-7.2,13.1-7.2c10.6,0,14.5,2.3,16.1,9.4c0.1,0.7,0.7,1.2,1.4,1.2h6.7c0.4,0,0.8-0.3,1.1-0.5c0.3-0.3,0.5-0.7,0.4-1.1
			C864.6,516.4,856.4,510.6,839.9,510.6L839.9,510.6z"/>
	</g>
	<path class="st1" d="M523.4,390.3c-0.6,0-1.1,0.2-1.6,0.4c-1,0.6-1.6,1.7-1.6,2.8v83.6c0,0.8-0.4,1.6-1.1,2c-0.7,0.4-1.6,0.4-2.3,0
		l-13.7-7.9c-2-1.2-4.5-1.2-6.6,0l-54.6,31.5c-2,1.2-3.3,3.4-3.3,5.8v63c0,2.4,1.2,4.5,3.3,5.7l54.6,31.5c2,1.2,4.5,1.2,6.6,0
		l54.6-31.5c2-1.2,3.3-3.3,3.3-5.7v-157c0-2.4-1.3-4.6-3.4-5.8L525,390.7C524.5,390.4,524,390.3,523.4,390.3L523.4,390.3z
		 M172.4,468.9c-1,0-2,0.2-3,0.8l-54.6,31.5c-2,1.2-3.3,3.3-3.3,5.7l0.1,84.5c0,1.2,0.6,2.3,1.6,2.8c1,0.6,2.3,0.6,3.3,0l32.4-18.6
		c2-1.2,3.4-3.3,3.4-5.7v-39.5c0-2.4,1.2-4.5,3.3-5.7l13.8-8c1-0.6,2.1-0.9,3.3-0.9c1.1,0,2.3,0.3,3.3,0.9l13.8,8
		c2,1.2,3.3,3.3,3.3,5.7V570c0,2.3,1.4,4.5,3.4,5.7l32.4,18.6c1,0.6,2.3,0.6,3.3,0c1-0.6,1.6-1.7,1.6-2.8l0.1-84.5
		c0-2.3-1.2-4.5-3.3-5.7L176,469.7c-0.9-0.5-1.9-0.7-3-0.8H172.4z M662.7,469.7c-1.1,0-2.3,0.3-3.3,0.9l-54.6,31.5
		c-2,1.2-3.3,3.3-3.3,5.7v63c0,2.4,1.3,4.5,3.4,5.7l54.1,30.8c2,1.1,4.4,1.2,6.5,0.1l32.8-18.3c1-0.6,1.7-1.7,1.7-2.8
		c0-1.2-0.6-2.3-1.6-2.8l-54.9-31.5c-1-0.6-1.7-1.8-1.7-3v-19.7c0-1.2,0.7-2.3,1.7-2.8l17.1-9.8c1-0.6,2.3-0.6,3.3,0l17.1,9.8
		c1,0.6,1.6,1.7,1.6,2.8v15.5c0,1.2,0.6,2.3,1.6,2.8c1,0.6,2.3,0.6,3.3,0l32.7-19c2-1.2,3.3-3.3,3.3-5.7v-15.2
		c0-2.3-1.2-4.5-3.3-5.7L666,470.6C665,470,663.8,469.7,662.7,469.7L662.7,469.7z M499.6,516.7c0.3,0,0.6,0.1,0.9,0.2l18.7,10.8
		c0.5,0.3,0.9,0.8,0.9,1.4v21.6c0,0.6-0.4,1.1-0.9,1.4l-18.7,10.8c-0.5,0.3-1.1,0.3-1.6,0l-18.7-10.8c-0.5-0.3-0.9-0.8-0.9-1.4
		v-21.6c0-0.6,0.4-1.1,0.9-1.4l18.7-10.8C499,516.8,499.3,516.7,499.6,516.7L499.6,516.7L499.6,516.7z"/>
	<path class="st0" d="M336.3,469.4c-1.1,0-2.3,0.3-3.3,0.9l-54.6,31.4c-2,1.2-3.3,3.4-3.3,5.8v63c0,2.4,1.2,4.5,3.3,5.7l54.6,31.5
		c2,1.2,4.5,1.2,6.6,0l54.6-31.5c2-1.2,3.3-3.3,3.3-5.7v-63c0-2.4-1.2-4.6-3.3-5.8l-54.6-31.4C338.6,469.7,337.5,469.4,336.3,469.4
		L336.3,469.4z M662.6,525.6c-0.2,0-0.5,0-0.7,0.1l-10.5,6.1c-0.4,0.2-0.6,0.6-0.7,1.1v12c0,0.5,0.3,0.9,0.7,1.1l10.5,6
		c0.4,0.2,0.8,0.2,1.2,0l10.5-6c0.4-0.2,0.6-0.6,0.7-1.1v-12c0-0.5-0.3-0.9-0.7-1.1l-10.5-6.1C662.9,525.6,662.8,525.6,662.6,525.6
		L662.6,525.6z"/>
</g>
</svg>
