<svg version="1.1" id="Layer_1" xmlns="http://www.w3.org/2000/svg" xmlns:xlink="http://www.w3.org/1999/xlink" x="0px" y="0px"
	 width="100%" viewBox="0 0 2389 2050" enable-background="new 0 0 2389 2050" xml:space="preserve">
<path fill="#fff" opacity="1.000000" stroke="none" 
	d="
M1458.000000,2052.000000 
	C972.054504,2052.000000 487.109039,2052.000000 2.081781,2052.000000 
	C2.081781,1368.797974 2.081781,685.596008 2.081781,2.197006 
	C798.445740,2.197006 1594.891602,2.197006 2391.668701,2.197006 
	C2391.668701,685.333191 2391.668701,1368.666626 2391.668701,2052.000000 
	C2080.928955,2052.000000 1769.964478,2052.000000 1458.000000,2052.000000 
M1530.879517,1348.079712 
	C1540.812622,1356.805786 1550.745728,1365.531738 1561.052490,1374.586060 
	C1564.955811,1372.501099 1568.963867,1370.819824 1572.472290,1368.410767 
	C1594.086670,1353.569214 1615.747559,1338.785889 1637.060425,1323.518921 
	C1647.788574,1315.833862 1657.816406,1307.171387 1669.305908,1298.142944 
	C1691.880981,1275.579224 1715.261353,1253.756592 1736.856689,1230.291260 
	C1776.704590,1186.992554 1808.869751,1138.155151 1835.747925,1085.897339 
	C1865.242554,1028.552612 1886.282715,968.161072 1899.185425,904.965698 
	C1908.369995,859.981140 1912.595215,814.448303 1913.568115,768.606689 
	C1913.800049,757.678162 1912.544434,746.726562 1912.379028,735.779480 
	C1911.881470,702.850769 1907.983398,670.293335 1902.241333,637.913574 
	C1889.262207,564.723389 1865.112305,495.465942 1830.224243,429.799622 
	C1790.610718,355.239075 1738.956909,290.157959 1676.237305,233.978119 
	C1624.444824,187.585892 1566.764404,149.838455 1503.604492,120.439140 
	C1425.365723,84.020973 1343.129150,63.006943 1257.271484,56.669685 
	C1232.888184,54.869915 1208.350708,54.108891 1183.671021,55.200340 
	C1145.098511,56.906200 1106.905151,60.532898 1069.061646,67.895561 
	C973.530029,86.481735 885.601379,123.269196 805.263428,178.265915 
	C756.430603,211.695267 712.643311,250.712692 673.401733,294.996460 
	C633.254333,340.302460 599.794067,390.124969 572.335999,443.937714 
	C554.496643,478.899628 540.136169,515.361206 528.418701,552.870605 
	C507.073853,621.198853 497.252686,691.292847 496.533539,762.680664 
	C496.330139,782.869629 498.453186,803.088806 499.680664,823.283691 
	C501.759033,857.478882 507.657928,891.109436 515.295593,924.440186 
	C526.088013,971.538391 541.897156,1016.980957 562.252441,1060.755493 
	C581.647461,1102.464722 604.770813,1142.072021 631.991882,1179.223145 
	C660.577637,1218.236694 692.458374,1254.317627 728.402344,1286.699585 
	C733.131836,1290.960449 736.703491,1297.215088 743.898682,1299.597290 
	C751.382019,1306.088989 758.643677,1312.859497 766.390015,1319.020508 
	C790.572327,1338.254028 816.183289,1355.437866 842.432556,1371.721680 
	C846.734985,1374.390747 849.499695,1374.104736 852.868347,1370.866455 
	C858.132263,1365.806274 863.469910,1360.807861 869.008301,1356.053467 
	C872.442566,1353.104980 876.305786,1350.656494 879.916077,1349.663940 
	C877.987000,1362.972900 876.057922,1376.281860 874.068115,1390.010376 
	C883.847534,1394.688110 893.048157,1399.088867 903.582031,1404.032227 
	C923.772644,1412.468384 943.721802,1421.550781 964.204529,1429.205200 
	C1005.642639,1444.690674 1048.320435,1455.770630 1092.124756,1462.159790 
	C1111.768555,1465.025146 1131.470947,1467.759033 1151.242188,1469.400879 
	C1168.725098,1470.852783 1186.340576,1470.706543 1205.686768,1471.624390 
	C1226.512695,1470.515503 1247.381592,1469.911621 1268.151978,1468.148315 
	C1286.937012,1466.553467 1305.726318,1464.361816 1324.317505,1461.258179 
	C1371.210083,1453.429565 1416.807739,1440.559082 1461.118042,1423.394287 
	C1477.134766,1417.189941 1492.563843,1409.469116 1509.677246,1402.185059 
	C1515.317871,1399.428345 1520.991821,1396.737793 1526.591309,1393.899780 
	C1535.144897,1389.564331 1535.060059,1389.518066 1533.752563,1380.140259 
	C1532.249512,1369.358398 1530.885620,1358.557129 1530.879517,1348.079712 
M44.113750,1689.000000 
	C44.281792,1763.941650 44.449257,1838.883179 44.640499,1913.824829 
	C44.641186,1914.092896 44.970455,1914.371948 45.172485,1914.624878 
	C45.379723,1914.884644 45.619389,1915.118652 45.844837,1915.363892 
	C60.219707,1917.123047 90.403328,1916.503906 97.889648,1914.063477 
	C97.889648,1899.705322 97.861458,1885.086426 97.897614,1870.467896 
	C97.933495,1855.961792 98.034142,1841.455811 98.110512,1826.122437 
	C102.819229,1826.122437 106.097382,1826.122559 109.375534,1826.122437 
	C127.698586,1826.121704 146.023422,1826.281982 164.344223,1826.079224 
	C186.746964,1825.831543 208.624832,1822.434448 229.488220,1813.892700 
	C253.281830,1804.151611 269.819580,1787.373413 278.081970,1762.872437 
	C286.826172,1736.943115 286.453766,1710.427612 280.903839,1684.148560 
	C273.841156,1650.706787 252.841888,1629.319702 220.612457,1618.286011 
	C198.289627,1610.643799 175.073563,1609.126343 151.961411,1608.379639 
	C119.679901,1607.336670 87.339500,1608.101440 55.024345,1608.137451 
	C51.787895,1608.140991 48.551788,1608.453247 44.114002,1608.684937 
	C44.114002,1635.235718 44.114002,1661.117798 44.113750,1689.000000 
M2175.707031,1695.209229 
	C2175.610596,1691.047363 2175.513916,1686.885498 2175.407471,1682.292725 
	C2165.994141,1682.292725 2158.015137,1682.292725 2150.035889,1682.292725 
	C2142.161621,1682.292725 2134.287598,1682.292725 2126.384521,1682.292725 
	C2126.384521,1789.390381 2126.384521,1895.129761 2126.384521,2001.163574 
	C2142.913818,2001.163574 2158.738525,2001.163574 2175.621582,2001.163574 
	C2175.621582,1962.251953 2175.621582,1923.857788 2175.621582,1885.721436 
	C2176.992676,1885.411865 2177.446045,1885.174927 2177.586914,1885.297363 
	C2180.851807,1888.134521 2184.047119,1891.052124 2187.325439,1893.873169 
	C2203.841553,1908.085693 2222.485596,1917.510498 2244.467529,1919.817383 
	C2295.224365,1925.143433 2341.039307,1891.832153 2357.576904,1845.659912 
	C2367.339844,1818.402588 2367.720459,1790.392700 2360.952881,1762.323120 
	C2356.153320,1742.416992 2346.144775,1725.232300 2331.452637,1711.165771 
	C2308.261719,1688.962158 2280.627197,1678.428345 2248.127930,1679.448853 
	C2225.911133,1680.146362 2207.335205,1687.729858 2191.654785,1702.993774 
	C2186.524170,1707.987915 2181.914307,1713.517090 2175.707031,1720.283203 
	C2175.707031,1711.441284 2175.707031,1704.282104 2175.707031,1695.209229 
M1565.015015,1640.381226 
	C1564.181030,1638.843628 1563.738770,1636.704346 1562.449951,1635.865479 
	C1553.544800,1630.069336 1544.900391,1623.622070 1535.359619,1619.098022 
	C1501.707642,1603.140991 1466.267944,1598.037354 1429.427368,1604.075195 
	C1406.148071,1607.890503 1385.192749,1617.096436 1369.062012,1634.601074 
	C1348.368652,1657.056641 1345.612183,1684.318604 1350.874390,1713.028931 
	C1352.685303,1722.909424 1356.262817,1732.279663 1362.358154,1740.426392 
	C1373.055176,1754.723877 1387.341797,1764.645264 1403.820435,1770.537476 
	C1422.554565,1777.236206 1441.830688,1782.487427 1461.029663,1787.795532 
	C1475.175537,1791.706665 1489.207642,1795.710938 1502.142334,1802.836792 
	C1510.063599,1807.200684 1515.655273,1813.464478 1518.318848,1822.246826 
	C1523.196777,1838.331177 1516.043823,1855.580933 1500.754517,1863.793213 
	C1486.453125,1871.474854 1470.924316,1872.953003 1455.160156,1871.316650 
	C1427.608276,1868.456909 1403.408813,1857.201538 1381.565552,1840.500854 
	C1377.657593,1837.513062 1373.703125,1834.586182 1369.110596,1831.135376 
	C1358.014771,1844.532104 1347.298706,1857.470215 1336.279663,1870.774414 
	C1352.412842,1885.465576 1369.459839,1896.838989 1388.560181,1905.036133 
	C1428.112549,1922.010742 1468.981445,1926.425049 1510.349243,1913.966797 
	C1542.180176,1904.380615 1565.713257,1884.397339 1572.748779,1850.256470 
	C1576.454712,1832.272705 1576.053345,1813.749634 1569.790405,1796.035522 
	C1566.331909,1786.253174 1561.295654,1777.257568 1553.268921,1770.275024 
	C1543.395142,1761.685669 1532.696533,1754.191528 1520.356445,1749.860229 
	C1503.759521,1744.034912 1486.924194,1738.823364 1470.005615,1733.999023 
	C1453.683350,1729.344727 1437.164185,1725.376953 1422.090942,1717.243652 
	C1411.344727,1711.445435 1405.108398,1702.544312 1404.311035,1690.194580 
	C1403.139160,1672.043945 1411.984619,1659.915405 1430.595581,1654.010010 
	C1446.902344,1648.835938 1463.387207,1649.470581 1479.870972,1652.822632 
	C1500.889893,1657.097046 1520.648926,1664.433350 1538.141113,1678.692017 
	C1547.128296,1665.953979 1555.721191,1653.774780 1565.015015,1640.381226 
M1235.096924,1705.908325 
	C1230.650269,1701.910278 1226.511230,1697.490356 1221.704712,1693.985962 
	C1198.632080,1677.163086 1172.379761,1676.483887 1146.242676,1682.270630 
	C1111.096436,1690.051880 1085.014893,1711.419678 1069.591797,1743.781616 
	C1057.137573,1769.914185 1055.277832,1798.158936 1060.657837,1826.595825 
	C1065.769043,1853.611938 1078.331177,1876.578613 1099.608643,1894.379761 
	C1116.317871,1908.358521 1135.322632,1917.816650 1157.119751,1919.701050 
	C1188.914673,1922.449585 1216.965088,1913.622437 1239.376953,1889.847900 
	C1241.716309,1887.366089 1244.301880,1885.116455 1246.773315,1882.759033 
	C1247.432861,1883.128906 1248.092529,1883.498901 1248.752075,1883.868774 
	C1248.752075,1894.361694 1248.752075,1904.854492 1248.752075,1915.999268 
	C1265.595581,1916.145264 1281.387573,1916.211670 1296.925049,1916.021606 
	C1299.332397,1900.550903 1298.519531,1689.239380 1296.034058,1681.885010 
	C1288.299927,1681.885010 1280.327515,1681.680176 1272.370483,1681.943115 
	C1264.546631,1682.201660 1256.568604,1680.652954 1248.072754,1683.375244 
	C1248.072754,1695.060791 1248.072754,1706.507812 1248.072754,1719.458374 
	C1243.303833,1714.460571 1239.701050,1710.684937 1235.096924,1705.908325 
M1609.677856,1859.000000 
	C1609.677856,1877.856812 1609.677856,1896.713623 1609.677856,1915.380005 
	C1625.629028,1917.277832 1652.438477,1916.720215 1659.701294,1914.365479 
	C1659.701294,1910.907959 1659.701172,1907.275146 1659.701294,1903.642334 
	C1659.702881,1864.669189 1659.414795,1825.692383 1659.927490,1786.725952 
	C1660.043091,1777.940796 1661.398560,1768.517578 1664.862915,1760.553711 
	C1675.177979,1736.841431 1694.961670,1725.511230 1720.066284,1724.505615 
	C1750.326172,1723.293579 1768.571289,1738.649780 1773.515381,1768.185059 
	C1774.933716,1776.657837 1775.533569,1785.354614 1775.584473,1793.954224 
	C1775.803223,1830.927368 1775.677979,1867.902588 1775.677979,1904.877075 
	C1775.677979,1908.420410 1775.677979,1911.963745 1775.677979,1915.310181 
	C1790.509155,1917.221436 1818.209473,1916.723633 1825.701172,1914.428345 
	C1825.701172,1911.319336 1825.701172,1908.026245 1825.701172,1904.733154 
	C1825.700928,1861.762817 1825.971558,1818.789673 1825.520874,1775.823975 
	C1825.399780,1764.292847 1824.248047,1752.502808 1821.545532,1741.320923 
	C1814.534912,1712.314575 1796.586914,1692.889893 1767.895386,1683.453857 
	C1755.885620,1679.504150 1743.681030,1679.323120 1731.388916,1679.743896 
	C1703.783813,1680.688721 1681.517578,1692.142090 1664.909546,1714.360107 
	C1663.684326,1715.999146 1662.200562,1717.444824 1659.185059,1720.840820 
	C1659.185059,1675.909790 1659.185059,1633.449707 1659.185059,1590.871094 
	C1642.358887,1590.871094 1626.521851,1590.871094 1609.677734,1590.871094 
	C1609.677734,1679.961670 1609.677734,1768.480835 1609.677856,1859.000000 
M484.873047,1880.069946 
	C504.260071,1901.044067 527.648682,1914.356079 556.227112,1918.498779 
	C597.035217,1924.414062 633.310425,1914.708618 664.859924,1888.067749 
	C669.033630,1884.543335 672.505676,1880.187988 676.370300,1876.146851 
	C666.389221,1865.248535 657.256531,1855.276489 647.401245,1844.515625 
	C635.279114,1856.351074 623.312439,1866.778198 607.498047,1871.311890 
	C592.196533,1875.698853 576.895142,1875.634644 561.463684,1872.302368 
	C545.426636,1868.839478 532.411621,1860.794189 521.640076,1847.569824 
	C535.739502,1841.499756 548.501343,1835.889771 561.353088,1830.494019 
	C601.173218,1813.775879 641.036926,1797.161377 680.861755,1780.454224 
	C690.346741,1776.475220 690.495544,1776.075562 689.967163,1765.481323 
	C689.884277,1763.819702 689.945312,1762.126343 689.640320,1760.503906 
	C682.907837,1724.703247 661.575439,1701.196899 628.306396,1687.746948 
	C611.986511,1681.149170 594.991638,1679.860962 577.520081,1679.635010 
	C555.967590,1679.356079 536.150574,1684.147583 517.233582,1694.207031 
	C491.632324,1707.820435 474.435822,1728.763184 464.142822,1755.325195 
	C456.228058,1775.750244 454.539459,1796.966797 457.630127,1818.912109 
	C460.829712,1841.630737 468.497314,1861.897705 484.873047,1880.069946 
M2076.453613,1730.624268 
	C2066.319092,1716.321533 2053.800049,1704.512207 2038.701050,1695.649292 
	C2007.374390,1677.261230 1973.734741,1675.640991 1939.307495,1683.535889 
	C1915.620605,1688.967651 1896.189819,1701.949829 1880.145752,1720.227539 
	C1863.367065,1739.342163 1853.992310,1761.236938 1851.385254,1786.698975 
	C1848.643311,1813.481323 1852.904419,1838.586792 1867.025024,1861.267700 
	C1893.557739,1903.885864 1933.049561,1922.832397 1982.605591,1919.977295 
	C2030.031616,1917.244873 2065.806885,1894.383545 2086.059814,1851.401245 
	C2105.258789,1810.655884 2101.759766,1770.087769 2076.453613,1730.624268 
M752.117981,1690.858521 
	C746.085693,1695.501099 739.929382,1699.992432 734.043457,1704.813721 
	C713.418701,1721.707642 707.667358,1762.369995 728.641174,1785.091309 
	C737.134827,1794.292847 747.322632,1801.243652 758.768860,1805.817749 
	C773.545715,1811.722534 788.794250,1816.441650 803.807129,1821.763062 
	C813.847229,1825.321655 823.573547,1829.518799 832.145020,1836.046631 
	C841.370667,1843.072998 842.915039,1854.046021 835.843262,1863.178955 
	C829.269226,1871.669312 820.404419,1875.489258 809.885559,1875.866089 
	C787.652649,1876.662598 767.235107,1870.543335 748.190247,1859.420410 
	C740.795410,1855.101562 733.548340,1850.529541 725.436646,1845.586914 
	C717.315186,1858.742310 709.549866,1871.320679 701.792053,1883.886963 
	C704.682007,1886.291992 706.683105,1888.032471 708.768738,1889.664917 
	C710.073547,1890.686401 711.486084,1891.575806 712.884094,1892.471802 
	C733.904053,1905.945557 756.926636,1913.893311 781.479736,1918.048828 
	C801.532410,1921.442749 821.161255,1920.417725 840.425293,1914.034546 
	C853.588623,1909.672729 864.988220,1902.300171 874.077637,1891.789307 
	C886.491577,1877.434082 890.492371,1860.293457 889.906799,1841.719360 
	C889.300964,1822.501831 881.821655,1807.191772 865.483948,1796.361572 
	C849.488464,1785.758667 831.763977,1779.385376 813.593323,1773.882935 
	C800.906372,1770.041138 788.207092,1766.195557 775.704346,1761.807373 
	C768.624634,1759.322632 764.092712,1754.201172 764.119568,1746.055298 
	C764.148682,1737.234619 768.072266,1730.343628 775.728760,1726.541626 
	C785.322021,1721.777710 795.855713,1718.928467 806.573364,1720.328979 
	C818.011353,1721.823853 829.451965,1724.164307 840.507263,1727.434570 
	C848.643738,1729.841187 856.162109,1734.337524 865.315613,1738.524658 
	C871.434753,1727.707397 877.205078,1716.652832 881.858704,1705.040649 
	C882.345581,1703.825562 880.982178,1701.225220 879.729675,1700.099121 
	C877.538147,1698.128784 874.869141,1696.604004 872.220642,1695.241699 
	C856.152771,1686.976929 839.444092,1681.506958 821.200012,1679.451904 
	C797.355652,1676.766235 775.013000,1680.162842 752.117981,1690.858521 
M981.192139,1867.813354 
	C975.093933,1859.940430 971.793762,1851.215820 971.835815,1841.066650 
	C971.989014,1804.081421 971.871826,1767.095093 971.935181,1730.109375 
	C971.939453,1727.613525 972.596069,1725.118652 972.967407,1722.495605 
	C993.585754,1721.404175 1013.455322,1722.991821 1033.880493,1721.523926 
	C1033.880493,1713.991333 1033.936401,1707.697021 1033.864624,1701.403931 
	C1033.794189,1695.223755 1033.593872,1689.044800 1033.423950,1681.724609 
	C1012.397766,1681.724609 992.581726,1681.724609 971.626953,1681.724609 
	C971.626953,1656.740845 971.626953,1632.936157 971.626953,1608.789307 
	C954.631531,1608.789307 938.838867,1608.789307 922.358887,1608.789307 
	C922.177490,1612.669556 921.894287,1615.915527 921.893188,1619.161621 
	C921.868591,1691.800537 921.808777,1764.439697 921.970093,1837.078247 
	C921.987732,1844.996216 922.717957,1853.021118 924.150635,1860.806274 
	C927.897888,1881.168823 939.046326,1897.119263 956.370911,1907.958374 
	C981.473816,1923.664185 1007.988342,1923.686646 1034.496338,1911.528320 
	C1042.462280,1907.874512 1050.220337,1903.242920 1056.101807,1895.718140 
	C1049.239258,1883.924561 1042.596924,1872.509399 1035.289917,1859.952026 
	C1019.641296,1877.792480 1002.255371,1882.838989 981.192139,1867.813354 
M318.113129,1906.639893 
	C318.348328,1909.513306 318.583496,1912.386841 318.830475,1915.403931 
	C335.472778,1915.403931 351.257721,1915.403931 367.479523,1915.403931 
	C367.728455,1912.146240 368.095825,1909.552368 368.099091,1906.958008 
	C368.138367,1875.660034 367.621613,1844.349854 368.381592,1813.070312 
	C368.667755,1801.292480 370.630402,1789.212646 374.001984,1777.919312 
	C382.677399,1748.860718 403.540375,1730.138916 437.093628,1729.825562 
	C439.268341,1729.805298 441.436218,1729.056030 443.885773,1728.593140 
	C443.885773,1720.020020 444.080719,1712.047241 443.830505,1704.088257 
	C443.584167,1696.252197 445.062317,1688.271484 442.314423,1679.302612 
	C435.859619,1680.176880 429.510895,1680.309692 423.590698,1681.970459 
	C403.240784,1687.679199 387.862213,1700.519653 375.309204,1717.101807 
	C373.417969,1719.600220 371.518280,1722.092285 369.622559,1724.587280 
	C369.011475,1724.407593 368.400360,1724.227905 367.789246,1724.048218 
	C367.789246,1710.312500 367.789246,1696.576782 367.789246,1682.567993 
	C350.828217,1682.567993 335.050232,1682.567993 318.113068,1682.567993 
	C318.113068,1757.068115 318.113068,1830.890137 318.113129,1906.639893 
z"/>
<path fill="#A0DBE7" opacity="1.000000" stroke="none" 
	d="
M743.952454,1298.233643 
	C736.703491,1297.215088 733.131836,1290.960449 728.402344,1286.699585 
	C692.458374,1254.317627 660.577637,1218.236694 631.991882,1179.223145 
	C604.770813,1142.072021 581.647461,1102.464722 562.252441,1060.755493 
	C541.897156,1016.980957 526.088013,971.538391 515.295593,924.440186 
	C507.657928,891.109436 501.759033,857.478882 499.680664,823.283691 
	C498.453186,803.088806 496.330139,782.869629 496.533539,762.680664 
	C497.252686,691.292847 507.073853,621.198853 528.418701,552.870605 
	C540.136169,515.361206 554.496643,478.899628 572.335999,443.937714 
	C599.794067,390.124969 633.254333,340.302460 673.401733,294.996460 
	C712.643311,250.712692 756.430603,211.695267 805.263428,178.265915 
	C885.601379,123.269196 973.530029,86.481735 1069.061646,67.895561 
	C1106.905151,60.532898 1145.098511,56.906200 1183.671021,55.200340 
	C1208.350708,54.108891 1232.888184,54.869915 1257.271484,56.669685 
	C1343.129150,63.006943 1425.365723,84.020973 1503.604492,120.439140 
	C1566.764404,149.838455 1624.444824,187.585892 1676.237305,233.978119 
	C1738.956909,290.157959 1790.610718,355.239075 1830.224243,429.799622 
	C1865.112305,495.465942 1889.262207,564.723389 1902.241333,637.913574 
	C1907.983398,670.293335 1911.881470,702.850769 1912.379028,735.779480 
	C1912.544434,746.726562 1913.800049,757.678162 1913.568115,768.606689 
	C1912.595215,814.448303 1908.369995,859.981140 1899.185425,904.965698 
	C1886.282715,968.161072 1865.242554,1028.552612 1835.747925,1085.897339 
	C1808.869751,1138.155151 1776.704590,1186.992554 1736.856689,1230.291260 
	C1715.261353,1253.756592 1691.880981,1275.579224 1668.104248,1298.200317 
	C1664.814209,1296.122437 1662.630737,1294.071411 1660.651367,1291.839355 
	C1630.349609,1257.670166 1596.427246,1227.559204 1559.107788,1201.266113 
	C1548.023804,1193.456909 1536.822876,1185.813599 1526.313110,1177.740112 
	C1600.908203,1142.212524 1665.733765,1093.894653 1725.960815,1038.987549 
	C1730.320557,1035.012817 1734.111328,1030.414062 1738.105713,1026.064697 
	C1738.044556,1026.023804 1738.035889,1026.170532 1738.645508,1026.083740 
	C1739.755371,1025.361206 1740.255615,1024.725586 1741.369873,1023.729126 
	C1745.797974,1020.715454 1744.548950,1017.986511 1742.359009,1014.934143 
	C1736.346802,1006.554504 1730.578491,997.999817 1724.559448,989.625305 
	C1707.873047,966.409180 1691.108276,943.249512 1674.872559,919.568481 
	C1677.717407,911.849365 1680.341675,904.706116 1682.365112,897.396484 
	C1694.059204,855.149597 1701.387573,812.288208 1700.572876,767.616211 
	C1700.784912,755.835510 1700.763306,744.661743 1699.984009,733.541016 
	C1698.902222,718.103577 1698.051880,702.581360 1695.672607,687.318298 
	C1691.155029,658.339233 1683.627319,630.018738 1674.278442,601.518677 
	C1673.372681,599.895630 1672.682495,598.894531 1671.980713,597.944580 
	C1671.968994,597.995789 1672.072388,598.009277 1672.187378,597.237061 
	C1671.722778,594.560120 1671.265259,592.607971 1670.545898,590.757507 
	C1618.921265,457.934265 1527.877563,362.661774 1397.066284,306.307465 
	C1322.938354,274.372650 1245.083130,262.997375 1164.553101,269.604950 
	C1123.166504,273.000793 1082.852783,281.217682 1043.678101,294.832611 
	C955.959717,325.318512 882.229248,376.256622 823.110229,447.839935 
	C755.248230,530.009644 717.850403,624.680176 710.460693,730.877625 
	C707.258057,776.901733 710.011719,822.827332 720.297058,867.973022 
	C723.967529,884.083984 729.290771,899.818420 734.070801,916.460144 
	C736.843811,924.377014 739.270264,931.610229 741.991943,938.730591 
	C751.250366,962.951660 762.234314,986.353760 775.237427,1008.812439 
	C790.230957,1034.709106 807.198486,1059.142578 826.476746,1082.097168 
	C844.680603,1103.772705 864.472717,1123.684448 886.296326,1141.659058 
	C894.437439,1148.364258 902.298828,1155.409180 909.940918,1162.889404 
	C902.724976,1167.503418 895.826416,1171.478027 888.991150,1175.558594 
	C837.601318,1206.237671 791.932678,1243.926392 751.521179,1288.017090 
	C748.673096,1291.124512 746.460571,1294.814575 743.952454,1298.233643 
z"/>
<path fill="#AA9678" opacity="1.000000" stroke="none" 
	d="
M1508.261230,1402.440430 
	C1492.563843,1409.469116 1477.134766,1417.189941 1461.118042,1423.394287 
	C1416.807739,1440.559082 1371.210083,1453.429565 1324.317505,1461.258179 
	C1305.726318,1464.361816 1286.937012,1466.553467 1268.151978,1468.148315 
	C1247.381592,1469.911621 1226.512695,1470.515503 1204.811035,1470.556885 
	C1203.902344,1419.740723 1203.869385,1369.991943 1204.786133,1320.161499 
	C1299.248657,1320.062500 1392.761353,1320.045166 1486.274048,1320.028442 
	C1487.605225,1320.028198 1488.941772,1319.958984 1490.266479,1320.052979 
	C1496.561646,1320.500244 1497.499756,1321.484619 1497.961304,1327.907227 
	C1498.624878,1337.146118 1498.743164,1346.466309 1500.093384,1355.604248 
	C1502.408936,1371.276489 1505.497314,1386.834473 1508.261230,1402.440430 
z"/>
<path fill="#C0B098" opacity="1.000000" stroke="none" 
	d="
M1203.836426,1320.243164 
	C1203.869385,1369.991943 1203.902344,1419.740723 1203.916382,1470.377686 
	C1186.340576,1470.706543 1168.725098,1470.852783 1151.242188,1469.400879 
	C1131.470947,1467.759033 1111.768555,1465.025146 1092.124756,1462.159790 
	C1048.320435,1455.770630 1005.642639,1444.690674 964.204529,1429.205200 
	C943.721802,1421.550781 923.772644,1412.468384 902.845093,1402.946045 
	C902.056580,1401.197510 901.860229,1400.509033 901.974365,1399.876709 
	C905.676270,1379.370605 909.648560,1358.917236 910.490417,1337.998291 
	C910.723267,1332.210693 912.145264,1326.471069 913.115784,1320.091187 
	C917.016846,1320.091187 920.299255,1320.091187 923.581604,1320.091187 
	C946.853333,1320.091187 970.125122,1320.078735 993.396851,1320.093506 
	C1063.543335,1320.137695 1133.689941,1320.192505 1203.836426,1320.243164 
z"/>
<path fill="#26245C" opacity="1.000000" stroke="none" 
	d="
M44.113876,1688.000000 
	C44.114002,1661.117798 44.114002,1635.235718 44.114002,1608.684937 
	C48.551788,1608.453247 51.787895,1608.140991 55.024345,1608.137451 
	C87.339500,1608.101440 119.679901,1607.336670 151.961411,1608.379639 
	C175.073563,1609.126343 198.289627,1610.643799 220.612457,1618.286011 
	C252.841888,1629.319702 273.841156,1650.706787 280.903839,1684.148560 
	C286.453766,1710.427612 286.826172,1736.943115 278.081970,1762.872437 
	C269.819580,1787.373413 253.281830,1804.151611 229.488220,1813.892700 
	C208.624832,1822.434448 186.746964,1825.831543 164.344223,1826.079224 
	C146.023422,1826.281982 127.698586,1826.121704 109.375534,1826.122437 
	C106.097382,1826.122559 102.819229,1826.122437 98.110512,1826.122437 
	C98.034142,1841.455811 97.933495,1855.961792 97.897614,1870.467896 
	C97.861458,1885.086426 97.889648,1899.705322 97.889648,1914.063477 
	C90.403328,1916.503906 60.219707,1917.123047 45.844841,1915.363892 
	C45.619389,1915.118652 45.379723,1914.884644 45.172485,1914.624878 
	C44.970455,1914.371948 44.641186,1914.092896 44.640499,1913.824829 
	C44.449257,1838.883179 44.281792,1763.941650 44.113876,1688.000000 
M226.458664,1742.926880 
	C230.484238,1731.729004 230.285751,1720.083374 230.104721,1708.441772 
	C229.771210,1686.996460 218.171967,1671.515503 198.183426,1663.639038 
	C181.635422,1657.118164 164.218430,1658.085815 147.174637,1656.412598 
	C132.986526,1655.019653 118.552040,1656.091675 104.227440,1656.187012 
	C102.352875,1656.199585 100.482880,1656.896851 98.785957,1657.241455 
	C96.975029,1670.846802 97.566978,1770.073608 99.687614,1778.122314 
	C102.679459,1778.122314 105.939552,1778.122314 109.199646,1778.122192 
	C127.522621,1778.121460 145.849197,1778.332764 164.166901,1778.021606 
	C172.093765,1777.887085 180.143570,1777.375366 187.890839,1775.812378 
	C205.975113,1772.163940 219.699295,1762.713013 226.458664,1742.926880 
z"/>
<path fill="#E0066E" opacity="1.000000" stroke="none" 
	d="
M2175.707031,1696.166016 
	C2175.707031,1704.282104 2175.707031,1711.441284 2175.707031,1720.283203 
	C2181.914307,1713.517090 2186.524170,1707.987915 2191.654785,1702.993774 
	C2207.335205,1687.729858 2225.911133,1680.146362 2248.127930,1679.448853 
	C2280.627197,1678.428345 2308.261719,1688.962158 2331.452637,1711.165771 
	C2346.144775,1725.232300 2356.153320,1742.416992 2360.952881,1762.323120 
	C2367.720459,1790.392700 2367.339844,1818.402588 2357.576904,1845.659912 
	C2341.039307,1891.832153 2295.224365,1925.143433 2244.467529,1919.817383 
	C2222.485596,1917.510498 2203.841553,1908.085693 2187.325439,1893.873169 
	C2184.047119,1891.052124 2180.851807,1888.134521 2177.586914,1885.297363 
	C2177.446045,1885.174927 2176.992676,1885.411865 2175.621582,1885.721436 
	C2175.621582,1923.857788 2175.621582,1962.251953 2175.621582,2001.163574 
	C2158.738525,2001.163574 2142.913818,2001.163574 2126.384521,2001.163574 
	C2126.384521,1895.129761 2126.384521,1789.390381 2126.384521,1682.292725 
	C2134.287598,1682.292725 2142.161621,1682.292725 2150.035889,1682.292725 
	C2158.015137,1682.292725 2165.994141,1682.292725 2175.407471,1682.292725 
	C2175.513916,1686.885498 2175.610596,1691.047363 2175.707031,1696.166016 
M2186.009033,1842.756226 
	C2200.362549,1864.907593 2220.717529,1876.696289 2247.122803,1875.494019 
	C2280.745850,1873.963135 2304.822754,1848.569580 2311.842529,1823.116211 
	C2316.756104,1805.300903 2316.231445,1787.748047 2309.988037,1770.355591 
	C2298.849121,1739.324219 2268.106445,1719.913818 2235.956543,1723.712158 
	C2209.956787,1726.783936 2192.602295,1742.140015 2182.266846,1764.816772 
	C2170.604248,1790.405029 2172.054199,1816.433350 2186.009033,1842.756226 
z"/>
<path fill="#E0066E" opacity="1.000000" stroke="none" 
	d="
M1564.664551,1640.988403 
	C1555.721191,1653.774780 1547.128296,1665.953979 1538.141113,1678.692017 
	C1520.648926,1664.433350 1500.889893,1657.097046 1479.870972,1652.822632 
	C1463.387207,1649.470581 1446.902344,1648.835938 1430.595581,1654.010010 
	C1411.984619,1659.915405 1403.139160,1672.043945 1404.311035,1690.194580 
	C1405.108398,1702.544312 1411.344727,1711.445435 1422.090942,1717.243652 
	C1437.164185,1725.376953 1453.683350,1729.344727 1470.005615,1733.999023 
	C1486.924194,1738.823364 1503.759521,1744.034912 1520.356445,1749.860229 
	C1532.696533,1754.191528 1543.395142,1761.685669 1553.268921,1770.275024 
	C1561.295654,1777.257568 1566.331909,1786.253174 1569.790405,1796.035522 
	C1576.053345,1813.749634 1576.454712,1832.272705 1572.748779,1850.256470 
	C1565.713257,1884.397339 1542.180176,1904.380615 1510.349243,1913.966797 
	C1468.981445,1926.425049 1428.112549,1922.010742 1388.560181,1905.036133 
	C1369.459839,1896.838989 1352.412842,1885.465576 1336.279663,1870.774414 
	C1347.298706,1857.470215 1358.014771,1844.532104 1369.110596,1831.135376 
	C1373.703125,1834.586182 1377.657593,1837.513062 1381.565552,1840.500854 
	C1403.408813,1857.201538 1427.608276,1868.456909 1455.160156,1871.316650 
	C1470.924316,1872.953003 1486.453125,1871.474854 1500.754517,1863.793213 
	C1516.043823,1855.580933 1523.196777,1838.331177 1518.318848,1822.246826 
	C1515.655273,1813.464478 1510.063599,1807.200684 1502.142334,1802.836792 
	C1489.207642,1795.710938 1475.175537,1791.706665 1461.029663,1787.795532 
	C1441.830688,1782.487427 1422.554565,1777.236206 1403.820435,1770.537476 
	C1387.341797,1764.645264 1373.055176,1754.723877 1362.358154,1740.426392 
	C1356.262817,1732.279663 1352.685303,1722.909424 1350.874390,1713.028931 
	C1345.612183,1684.318604 1348.368652,1657.056641 1369.062012,1634.601074 
	C1385.192749,1617.096436 1406.148071,1607.890503 1429.427368,1604.075195 
	C1466.267944,1598.037354 1501.707642,1603.140991 1535.359619,1619.098022 
	C1544.900391,1623.622070 1553.544800,1630.069336 1562.449951,1635.865479 
	C1563.738770,1636.704346 1564.181030,1638.843628 1564.664551,1640.988403 
z"/>
<path fill="#27245C" opacity="1.000000" stroke="none" 
	d="
M1235.597656,1706.408813 
	C1239.701050,1710.684937 1243.303833,1714.460571 1248.072754,1719.458374 
	C1248.072754,1706.507812 1248.072754,1695.060791 1248.072754,1683.375244 
	C1256.568604,1680.652954 1264.546631,1682.201660 1272.370483,1681.943115 
	C1280.327515,1681.680176 1288.299927,1681.885010 1296.034058,1681.885010 
	C1298.519531,1689.239380 1299.332397,1900.550903 1296.925049,1916.021606 
	C1281.387573,1916.211670 1265.595581,1916.145264 1248.752075,1915.999268 
	C1248.752075,1904.854492 1248.752075,1894.361694 1248.752075,1883.868774 
	C1248.092529,1883.498901 1247.432861,1883.128906 1246.773315,1882.759033 
	C1244.301880,1885.116455 1241.716309,1887.366089 1239.376953,1889.847900 
	C1216.965088,1913.622437 1188.914673,1922.449585 1157.119751,1919.701050 
	C1135.322632,1917.816650 1116.317871,1908.358521 1099.608643,1894.379761 
	C1078.331177,1876.578613 1065.769043,1853.611938 1060.657837,1826.595825 
	C1055.277832,1798.158936 1057.137573,1769.914185 1069.591797,1743.781616 
	C1085.014893,1711.419678 1111.096436,1690.051880 1146.242676,1682.270630 
	C1172.379761,1676.483887 1198.632080,1677.163086 1221.704712,1693.985962 
	C1226.511230,1697.490356 1230.650269,1701.910278 1235.597656,1706.408813 
M1117.553589,1762.822632 
	C1108.400879,1780.366333 1107.157471,1799.348877 1110.738403,1818.016846 
	C1115.479004,1842.731323 1130.805786,1860.375488 1153.780029,1870.663696 
	C1178.408813,1881.693237 1209.459229,1875.042480 1226.608765,1856.965454 
	C1238.778564,1844.137329 1246.014282,1829.922974 1248.389038,1812.306274 
	C1251.842041,1786.691406 1245.865479,1764.041626 1229.055786,1744.845459 
	C1214.714966,1728.468506 1195.907837,1719.988892 1173.973511,1722.585449 
	C1148.881714,1725.555664 1130.393677,1739.333008 1117.553589,1762.822632 
z"/>
<path fill="#E0066E" opacity="1.000000" stroke="none" 
	d="
M1609.677734,1858.000000 
	C1609.677734,1768.480835 1609.677734,1679.961670 1609.677734,1590.871094 
	C1626.521851,1590.871094 1642.358887,1590.871094 1659.185059,1590.871094 
	C1659.185059,1633.449707 1659.185059,1675.909790 1659.185059,1720.840820 
	C1662.200562,1717.444824 1663.684326,1715.999146 1664.909546,1714.360107 
	C1681.517578,1692.142090 1703.783813,1680.688721 1731.388916,1679.743896 
	C1743.681030,1679.323120 1755.885620,1679.504150 1767.895386,1683.453857 
	C1796.586914,1692.889893 1814.534912,1712.314575 1821.545532,1741.320923 
	C1824.248047,1752.502808 1825.399780,1764.292847 1825.520874,1775.823975 
	C1825.971558,1818.789673 1825.700928,1861.762817 1825.701172,1904.733154 
	C1825.701172,1908.026245 1825.701172,1911.319336 1825.701172,1914.428345 
	C1818.209473,1916.723633 1790.509155,1917.221436 1775.677979,1915.310181 
	C1775.677979,1911.963745 1775.677979,1908.420410 1775.677979,1904.877075 
	C1775.677979,1867.902588 1775.803223,1830.927368 1775.584473,1793.954224 
	C1775.533569,1785.354614 1774.933716,1776.657837 1773.515381,1768.185059 
	C1768.571289,1738.649780 1750.326172,1723.293579 1720.066284,1724.505615 
	C1694.961670,1725.511230 1675.177979,1736.841431 1664.862915,1760.553711 
	C1661.398560,1768.517578 1660.043091,1777.940796 1659.927490,1786.725952 
	C1659.414795,1825.692383 1659.702881,1864.669189 1659.701294,1903.642334 
	C1659.701172,1907.275146 1659.701294,1910.907959 1659.701294,1914.365479 
	C1652.438477,1916.720215 1625.629028,1917.277832 1609.677856,1915.380005 
	C1609.677856,1896.713623 1609.677856,1877.856812 1609.677734,1858.000000 
z"/>
<path fill="#27245C" opacity="1.000000" stroke="none" 
	d="
M484.371368,1879.565674 
	C468.497314,1861.897705 460.829712,1841.630737 457.630127,1818.912109 
	C454.539459,1796.966797 456.228058,1775.750244 464.142822,1755.325195 
	C474.435822,1728.763184 491.632324,1707.820435 517.233582,1694.207031 
	C536.150574,1684.147583 555.967590,1679.356079 577.520081,1679.635010 
	C594.991638,1679.860962 611.986511,1681.149170 628.306396,1687.746948 
	C661.575439,1701.196899 682.907837,1724.703247 689.640320,1760.503906 
	C689.945312,1762.126343 689.884277,1763.819702 689.967163,1765.481323 
	C690.495544,1776.075562 690.346741,1776.475220 680.861755,1780.454224 
	C641.036926,1797.161377 601.173218,1813.775879 561.353088,1830.494019 
	C548.501343,1835.889771 535.739502,1841.499756 521.640076,1847.569824 
	C532.411621,1860.794189 545.426636,1868.839478 561.463684,1872.302368 
	C576.895142,1875.634644 592.196533,1875.698853 607.498047,1871.311890 
	C623.312439,1866.778198 635.279114,1856.351074 647.401245,1844.515625 
	C657.256531,1855.276489 666.389221,1865.248535 676.370300,1876.146851 
	C672.505676,1880.187988 669.033630,1884.543335 664.859924,1888.067749 
	C633.310425,1914.708618 597.035217,1924.414062 556.227112,1918.498779 
	C527.648682,1914.356079 504.260071,1901.044067 484.371368,1879.565674 
M547.023682,1790.055542 
	C575.275024,1777.783325 603.526306,1765.510986 632.554749,1752.901123 
	C630.515381,1749.457886 629.329651,1746.722534 627.512268,1744.504761 
	C614.581543,1728.725830 596.739929,1723.748291 577.618713,1724.492065 
	C560.793152,1725.146484 545.366150,1731.503784 531.819763,1742.042358 
	C510.527863,1758.606934 503.421082,1780.826416 504.405762,1808.315796 
	C518.946533,1801.997559 532.246887,1796.218262 547.023682,1790.055542 
z"/>
<path fill="#E0066E" opacity="1.000000" stroke="none" 
	d="
M2076.880371,1731.207275 
	C2101.759766,1770.087769 2105.258789,1810.655884 2086.059814,1851.401245 
	C2065.806885,1894.383545 2030.031616,1917.244873 1982.605591,1919.977295 
	C1933.049561,1922.832397 1893.557739,1903.885864 1867.025024,1861.267700 
	C1852.904419,1838.586792 1848.643311,1813.481323 1851.385254,1786.698975 
	C1853.992310,1761.236938 1863.367065,1739.342163 1880.145752,1720.227539 
	C1896.189819,1701.949829 1915.620605,1688.967651 1939.307495,1683.535889 
	C1973.734741,1675.640991 2007.374390,1677.261230 2038.701050,1695.649292 
	C2053.800049,1704.512207 2066.319092,1716.321533 2076.880371,1731.207275 
M2030.748169,1849.625732 
	C2043.972046,1832.468994 2047.798096,1813.115356 2046.549194,1791.666016 
	C2044.585083,1757.934692 2019.514160,1725.442017 1977.366699,1723.837280 
	C1947.667236,1722.706421 1920.283447,1736.885132 1907.297241,1767.048340 
	C1902.150757,1779.002808 1901.849731,1791.464844 1901.560181,1804.193115 
	C1900.807251,1837.270020 1925.759033,1874.395142 1972.233521,1875.597778 
	C1995.043457,1876.187988 2014.480225,1867.950928 2030.748169,1849.625732 
z"/>
<path fill="#27245C" opacity="1.000000" stroke="none" 
	d="
M752.783020,1690.520508 
	C775.013000,1680.162842 797.355652,1676.766235 821.200012,1679.451904 
	C839.444092,1681.506958 856.152771,1686.976929 872.220642,1695.241699 
	C874.869141,1696.604004 877.538147,1698.128784 879.729675,1700.099121 
	C880.982178,1701.225220 882.345581,1703.825562 881.858704,1705.040649 
	C877.205078,1716.652832 871.434753,1727.707397 865.315613,1738.524658 
	C856.162109,1734.337524 848.643738,1729.841187 840.507263,1727.434570 
	C829.451965,1724.164307 818.011353,1721.823853 806.573364,1720.328979 
	C795.855713,1718.928467 785.322021,1721.777710 775.728760,1726.541626 
	C768.072266,1730.343628 764.148682,1737.234619 764.119568,1746.055298 
	C764.092712,1754.201172 768.624634,1759.322632 775.704346,1761.807373 
	C788.207092,1766.195557 800.906372,1770.041138 813.593323,1773.882935 
	C831.763977,1779.385376 849.488464,1785.758667 865.483948,1796.361572 
	C881.821655,1807.191772 889.300964,1822.501831 889.906799,1841.719360 
	C890.492371,1860.293457 886.491577,1877.434082 874.077637,1891.789307 
	C864.988220,1902.300171 853.588623,1909.672729 840.425293,1914.034546 
	C821.161255,1920.417725 801.532410,1921.442749 781.479736,1918.048828 
	C756.926636,1913.893311 733.904053,1905.945557 712.884094,1892.471802 
	C711.486084,1891.575806 710.073547,1890.686401 708.768738,1889.664917 
	C706.683105,1888.032471 704.682007,1886.291992 701.792053,1883.886963 
	C709.549866,1871.320679 717.315186,1858.742310 725.436646,1845.586914 
	C733.548340,1850.529541 740.795410,1855.101562 748.190247,1859.420410 
	C767.235107,1870.543335 787.652649,1876.662598 809.885559,1875.866089 
	C820.404419,1875.489258 829.269226,1871.669312 835.843262,1863.178955 
	C842.915039,1854.046021 841.370667,1843.072998 832.145020,1836.046631 
	C823.573547,1829.518799 813.847229,1825.321655 803.807129,1821.763062 
	C788.794250,1816.441650 773.545715,1811.722534 758.768860,1805.817749 
	C747.322632,1801.243652 737.134827,1794.292847 728.641174,1785.091309 
	C707.667358,1762.369995 713.418701,1721.707642 734.043457,1704.813721 
	C739.929382,1699.992432 746.085693,1695.501099 752.783020,1690.520508 
z"/>
<path fill="#89735F" opacity="1.000000" stroke="none" 
	d="
M1204.786133,1320.161499 
	C1133.689941,1320.192505 1063.543335,1320.137695 993.396851,1320.093506 
	C970.125122,1320.078735 946.853333,1320.091187 923.581604,1320.091187 
	C920.299255,1320.091187 917.016846,1320.091187 913.115784,1320.091187 
	C912.145264,1326.471069 910.723267,1332.210693 910.490417,1337.998291 
	C909.648560,1358.917236 905.676270,1379.370605 901.974365,1399.876709 
	C901.860229,1400.509033 902.056580,1401.197510 902.178467,1402.674805 
	C893.048157,1399.088867 883.847534,1394.688110 874.068115,1390.010376 
	C876.057922,1376.281860 877.987000,1362.972900 880.004639,1347.937988 
	C880.737549,1333.969971 881.390137,1321.728271 882.016479,1309.485229 
	C882.101440,1307.824585 881.865173,1306.129761 882.103149,1304.498169 
	C883.031311,1298.134399 885.659058,1292.784180 892.625427,1291.651733 
	C898.796997,1290.648438 905.104187,1290.479126 912.356689,1289.979614 
	C941.028687,1289.986084 968.695496,1289.954712 997.270325,1290.051025 
	C1000.835022,1290.260620 1003.491821,1290.414307 1006.148560,1290.414429 
	C1138.834717,1290.426147 1271.520996,1290.426758 1404.207153,1290.412354 
	C1407.195923,1290.412109 1410.184692,1290.225830 1414.020630,1290.074219 
	C1442.690674,1290.005493 1470.513428,1289.988770 1499.205444,1289.985596 
	C1503.407227,1290.025757 1506.745728,1289.936157 1510.071533,1290.101196 
	C1518.890381,1290.538696 1524.395264,1294.815918 1526.137207,1303.392090 
	C1527.250366,1308.873291 1527.504395,1314.548218 1527.889893,1320.153564 
	C1528.522217,1329.349731 1528.948120,1338.559937 1529.461060,1347.764282 
	C1530.885620,1358.557129 1532.249512,1369.358398 1533.752563,1380.140259 
	C1535.060059,1389.518066 1535.144897,1389.564331 1526.591309,1393.899780 
	C1520.991821,1396.737793 1515.317871,1399.428345 1508.969238,1402.312744 
	C1505.497314,1386.834473 1502.408936,1371.276489 1500.093384,1355.604248 
	C1498.743164,1346.466309 1498.624878,1337.146118 1497.961304,1327.907227 
	C1497.499756,1321.484619 1496.561646,1320.500244 1490.266479,1320.052979 
	C1488.941772,1319.958984 1487.605225,1320.028198 1486.274048,1320.028442 
	C1392.761353,1320.045166 1299.248657,1320.062500 1204.786133,1320.161499 
z"/>
<path fill="#525353" opacity="1.000000" stroke="none" 
	d="
M911.351501,1289.941772 
	C905.104187,1290.479126 898.796997,1290.648438 892.625427,1291.651733 
	C885.659058,1292.784180 883.031311,1298.134399 882.103149,1304.498169 
	C881.865173,1306.129761 882.101440,1307.824585 882.016479,1309.485229 
	C881.390137,1321.728271 880.737549,1333.969971 880.034790,1347.097900 
	C876.305786,1350.656494 872.442566,1353.104980 869.008301,1356.053467 
	C863.469910,1360.807861 858.132263,1365.806274 852.868347,1370.866455 
	C849.499695,1374.104736 846.734985,1374.390747 842.432556,1371.721680 
	C816.183289,1355.437866 790.572327,1338.254028 766.390015,1319.020508 
	C758.643677,1312.859497 751.382019,1306.088989 743.925537,1298.915527 
	C746.460571,1294.814575 748.673096,1291.124512 751.521179,1288.017090 
	C791.932678,1243.926392 837.601318,1206.237671 888.991150,1175.558594 
	C895.826416,1171.478027 902.724976,1167.503418 910.599365,1162.976807 
	C921.931580,1169.462524 932.258545,1176.451172 942.408447,1184.246460 
	C936.483704,1204.090576 930.643372,1223.100586 925.017029,1242.173828 
	C920.331482,1258.057983 915.897095,1274.016357 911.351501,1289.941772 
z"/>
<path fill="#26245C" opacity="1.000000" stroke="none" 
	d="
M981.691345,1868.369873 
	C1002.255371,1882.838989 1019.641296,1877.792480 1035.289917,1859.952026 
	C1042.596924,1872.509399 1049.239258,1883.924561 1056.101807,1895.718140 
	C1050.220337,1903.242920 1042.462280,1907.874512 1034.496338,1911.528320 
	C1007.988342,1923.686646 981.473816,1923.664185 956.370911,1907.958374 
	C939.046326,1897.119263 927.897888,1881.168823 924.150635,1860.806274 
	C922.717957,1853.021118 921.987732,1844.996216 921.970093,1837.078247 
	C921.808777,1764.439697 921.868591,1691.800537 921.893188,1619.161621 
	C921.894287,1615.915527 922.177490,1612.669556 922.358887,1608.789307 
	C938.838867,1608.789307 954.631531,1608.789307 971.626953,1608.789307 
	C971.626953,1632.936157 971.626953,1656.740845 971.626953,1681.724609 
	C992.581726,1681.724609 1012.397766,1681.724609 1033.423950,1681.724609 
	C1033.593872,1689.044800 1033.794189,1695.223755 1033.864624,1701.403931 
	C1033.936401,1707.697021 1033.880493,1713.991333 1033.880493,1721.523926 
	C1013.455322,1722.991821 993.585754,1721.404175 972.967407,1722.495605 
	C972.596069,1725.118652 971.939453,1727.613525 971.935181,1730.109375 
	C971.871826,1767.095093 971.989014,1804.081421 971.835815,1841.066650 
	C971.793762,1851.215820 975.093933,1859.940430 981.691345,1868.369873 
z"/>
<path fill="#525353" opacity="1.000000" stroke="none" 
	d="
M1530.170288,1347.921997 
	C1528.948120,1338.559937 1528.522217,1329.349731 1527.889893,1320.153564 
	C1527.504395,1314.548218 1527.250366,1308.873291 1526.137207,1303.392090 
	C1524.395264,1294.815918 1518.890381,1290.538696 1510.071533,1290.101196 
	C1506.745728,1289.936157 1503.407227,1290.025757 1499.091553,1289.206177 
	C1493.704468,1273.544067 1489.260254,1258.686768 1484.907593,1243.802734 
	C1480.464233,1228.608276 1476.110596,1213.387695 1472.238525,1197.630127 
	C1477.768555,1195.486816 1482.841797,1194.066895 1487.774658,1192.262939 
	C1500.441528,1187.630981 1513.046143,1182.828613 1525.675537,1178.094360 
	C1536.822876,1185.813599 1548.023804,1193.456909 1559.107788,1201.266113 
	C1596.427246,1227.559204 1630.349609,1257.670166 1660.651367,1291.839355 
	C1662.630737,1294.071411 1664.814209,1296.122437 1667.531738,1298.604248 
	C1657.816406,1307.171387 1647.788574,1315.833862 1637.060425,1323.518921 
	C1615.747559,1338.785889 1594.086670,1353.569214 1572.472290,1368.410767 
	C1568.963867,1370.819824 1564.955811,1372.501099 1561.052490,1374.586060 
	C1550.745728,1365.531738 1540.812622,1356.805786 1530.170288,1347.921997 
z"/>
<path fill="#27245C" opacity="1.000000" stroke="none" 
	d="
M318.113098,1905.676025 
	C318.113068,1830.890137 318.113068,1757.068115 318.113068,1682.567993 
	C335.050232,1682.567993 350.828217,1682.567993 367.789246,1682.567993 
	C367.789246,1696.576782 367.789246,1710.312500 367.789246,1724.048218 
	C368.400360,1724.227905 369.011475,1724.407593 369.622559,1724.587280 
	C371.518280,1722.092285 373.417969,1719.600220 375.309204,1717.101807 
	C387.862213,1700.519653 403.240784,1687.679199 423.590698,1681.970459 
	C429.510895,1680.309692 435.859619,1680.176880 442.314423,1679.302612 
	C445.062317,1688.271484 443.584167,1696.252197 443.830505,1704.088257 
	C444.080719,1712.047241 443.885773,1720.020020 443.885773,1728.593140 
	C441.436218,1729.056030 439.268341,1729.805298 437.093628,1729.825562 
	C403.540375,1730.138916 382.677399,1748.860718 374.001984,1777.919312 
	C370.630402,1789.212646 368.667755,1801.292480 368.381592,1813.070312 
	C367.621613,1844.349854 368.138367,1875.660034 368.099091,1906.958008 
	C368.095825,1909.552368 367.728455,1912.146240 367.479523,1915.403931 
	C351.257721,1915.403931 335.472778,1915.403931 318.830475,1915.403931 
	C318.583496,1912.386841 318.348328,1909.513306 318.113098,1905.676025 
z"/>
<path fill="#FEFEFE" opacity="1.000000" stroke="none" 
	d="
M942.585510,1183.439819 
	C932.258545,1176.451172 921.931580,1169.462524 910.946167,1162.386597 
	C902.298828,1155.409180 894.437439,1148.364258 886.296326,1141.659058 
	C864.472717,1123.684448 844.680603,1103.772705 826.476746,1082.097168 
	C807.198486,1059.142578 790.230957,1034.709106 775.237427,1008.812439 
	C762.234314,986.353760 751.250366,962.951660 741.991943,938.730591 
	C739.270264,931.610229 736.843811,924.377014 734.099304,915.693787 
	C735.269714,909.779175 736.843750,905.420532 737.941956,900.945068 
	C748.710999,857.058350 765.211365,815.408264 786.772888,775.743713 
	C788.470398,772.621155 791.046265,769.975952 794.176880,767.372314 
	C799.467896,767.731689 803.795776,767.908020 808.123840,767.911499 
	C873.767151,767.964783 939.410400,767.995300 1005.674866,768.568726 
	C1061.405029,782.632324 1116.505493,796.193909 1171.638550,809.621155 
	C1176.378906,810.775696 1181.336304,811.038879 1186.769287,812.081909 
	C1190.496094,814.811951 1193.709717,817.097168 1196.787842,819.552063 
	C1238.170410,852.555847 1290.990479,830.715271 1303.008301,787.565735 
	C1304.595947,781.865479 1305.107178,775.865417 1307.046631,769.980835 
	C1325.598022,769.971375 1343.219727,769.985107 1360.738770,770.843872 
	C1358.620728,781.426147 1356.881470,791.230347 1354.540161,800.888611 
	C1346.128296,835.587463 1331.686401,868.020203 1317.011597,900.383057 
	C1303.857056,929.393494 1291.055664,958.565125 1278.292847,987.750610 
	C1276.905273,990.923462 1276.805298,994.659363 1276.058472,998.080322 
	C1276.008789,998.026550 1276.154175,998.044067 1275.473633,998.165527 
	C1274.622681,999.164795 1274.452393,1000.042542 1273.952393,1001.520630 
	C1268.533691,1015.994446 1263.444824,1029.867920 1258.192627,1044.186523 
	C1233.913574,1035.107422 1210.405029,1025.177612 1188.071777,1012.890503 
	C1163.395142,999.313965 1139.366943,984.558594 1114.959473,970.069824 
	C1114.862549,969.823059 1114.372192,969.620789 1114.114990,969.025513 
	C1111.048218,966.576782 1108.238525,964.723267 1105.428955,962.869690 
	C1105.060059,963.283691 1104.691162,963.697632 1104.322266,964.111633 
	C1106.831299,966.806702 1109.340332,969.501770 1111.994385,972.491089 
	C1112.139282,972.785339 1112.744873,973.037598 1113.082764,973.622681 
	C1153.428101,1020.062500 1198.632080,1059.994019 1247.822021,1092.262329 
	C1250.143555,1107.486816 1250.736084,1121.655640 1254.643066,1134.842529 
	C1262.636597,1161.822021 1282.305664,1179.040039 1307.327271,1190.085083 
	C1343.269531,1205.950806 1380.937134,1212.447266 1419.810547,1209.274170 
	C1416.127319,1211.886108 1412.917725,1213.993164 1409.533203,1215.766113 
	C1404.378540,1218.466675 1399.102539,1220.935791 1393.106812,1223.564209 
	C1375.298706,1229.390137 1358.258789,1235.146362 1341.238403,1240.959229 
	C1340.725708,1241.134399 1340.414551,1241.899902 1339.216797,1242.395508 
	C1312.276855,1247.105591 1286.257568,1252.755493 1259.955078,1256.311523 
	C1210.752686,1262.963623 1161.695312,1260.053223 1112.984375,1250.892822 
	C1099.284180,1248.316284 1085.662598,1245.321167 1071.528320,1241.940918 
	C1052.731201,1235.198120 1034.410889,1229.032104 1015.605713,1222.426025 
	C999.564758,1213.982056 983.951172,1206.087402 968.474915,1197.931885 
	C959.728455,1193.322754 951.207886,1188.284668 942.585510,1183.439819 
z"/>
<path fill="#525353" opacity="1.000000" stroke="none" 
	d="
M793.213928,767.108887 
	C791.046265,769.975952 788.470398,772.621155 786.772888,775.743713 
	C765.211365,815.408264 748.710999,857.058350 737.941956,900.945068 
	C736.843750,905.420532 735.269714,909.779175 733.888062,914.958374 
	C729.290771,899.818420 723.967529,884.083984 720.297058,867.973022 
	C710.011719,822.827332 707.258057,776.901733 710.460693,730.877625 
	C717.850403,624.680176 755.248230,530.009644 823.110229,447.839935 
	C882.229248,376.256622 955.959717,325.318512 1043.678101,294.832611 
	C1082.852783,281.217682 1123.166504,273.000793 1164.553101,269.604950 
	C1245.083130,262.997375 1322.938354,274.372650 1397.066284,306.307465 
	C1527.877563,362.661774 1618.921265,457.934265 1670.545898,590.757507 
	C1671.265259,592.607971 1671.722778,594.560120 1671.494385,597.334961 
	C1665.054688,591.554138 1659.423096,584.903259 1654.170654,578.009338 
	C1654.729614,577.528381 1655.084229,577.099731 1655.063599,577.080688 
	C1654.652832,576.704651 1654.198853,576.375977 1653.838867,576.047607 
	C1653.924194,576.057434 1653.876343,576.222412 1653.992310,575.441162 
	C1651.306396,567.229370 1648.927490,559.604858 1645.623657,552.404663 
	C1635.714111,530.808167 1623.352051,510.801941 1605.533325,494.696075 
	C1580.688843,472.239929 1548.838135,468.745422 1521.807861,488.816620 
	C1507.702026,499.290771 1496.700317,512.419006 1487.549927,527.242737 
	C1471.513306,553.222595 1461.265381,581.564941 1454.108398,611.049744 
	C1451.387695,622.258728 1450.015015,633.795044 1448.141846,645.850708 
	C1446.625977,649.437744 1444.996338,652.356262 1442.727295,654.986572 
	C1432.936401,647.025024 1424.122070,638.898254 1414.554688,631.784363 
	C1400.200928,621.111816 1385.318970,611.149780 1370.365723,600.425598 
	C1368.694702,598.832520 1367.319458,597.699524 1365.860718,595.826233 
	C1345.621826,553.625305 1315.841919,520.424622 1277.089966,495.952087 
	C1229.782715,466.076691 1178.222168,451.381683 1121.625488,455.647980 
	C1086.499023,458.295868 1053.558105,467.819794 1022.713745,484.141663 
	C988.127075,502.443756 959.037537,527.553284 935.920776,559.327332 
	C920.747925,580.182556 908.753357,602.730652 900.256714,627.078979 
	C899.315125,629.777466 895.974854,632.942444 899.742920,636.617371 
	C897.581055,639.094604 895.764343,641.058533 893.748230,642.790283 
	C869.645264,663.493835 848.308960,686.803467 828.994141,711.965271 
	C815.620850,729.386902 802.633728,747.102112 793.213928,767.108887 
z"/>
<path fill="#E1076F" opacity="1.000000" stroke="none" 
	d="
M1674.374512,920.067505 
	C1691.108276,943.249512 1707.873047,966.409180 1724.559448,989.625305 
	C1730.578491,997.999817 1736.346802,1006.554504 1742.359009,1014.934143 
	C1744.548950,1017.986511 1745.797974,1020.715454 1740.758301,1023.848022 
	C1739.033813,1024.941895 1738.534912,1025.556274 1738.035889,1026.170532 
	C1738.035889,1026.170532 1738.044556,1026.023804 1737.330322,1025.992676 
	C1731.028320,1028.011475 1725.299438,1029.745239 1719.876343,1032.164185 
	C1692.183716,1044.516602 1663.542969,1054.253784 1634.247070,1061.779663 
	C1602.144653,1070.026367 1569.626709,1076.362915 1536.381958,1078.201538 
	C1518.514893,1079.189697 1500.669189,1081.703979 1482.822510,1081.624390 
	C1461.633545,1081.529785 1440.438232,1079.599243 1419.275513,1078.055420 
	C1405.742310,1077.068237 1392.239136,1075.526367 1378.781250,1073.779419 
	C1376.255371,1073.451538 1374.008057,1070.977783 1371.679199,1068.719238 
	C1372.080933,1065.979370 1372.348999,1063.994263 1372.803345,1062.052734 
	C1378.177002,1039.092651 1388.256104,1018.181763 1400.386963,998.111755 
	C1418.143188,968.735107 1435.336914,939.040833 1449.042725,907.486511 
	C1461.736938,878.261536 1470.059448,848.002319 1472.546265,816.046204 
	C1474.582886,789.874146 1471.964966,764.181519 1467.656128,737.664734 
	C1466.278809,730.364197 1465.473633,723.729858 1463.490479,717.468628 
	C1457.196167,697.595093 1450.462280,677.860779 1444.579590,658.165833 
	C1462.712158,674.609436 1480.719727,690.413086 1497.471436,707.451477 
	C1517.488159,727.810547 1536.430176,749.226074 1556.088623,770.805664 
	C1582.116821,803.272034 1608.048706,834.993530 1633.610229,867.010681 
	C1647.522949,884.437073 1660.807007,902.365479 1674.374512,920.067505 
z"/>
<path fill="#9F2356" opacity="1.000000" stroke="none" 
	d="
M1371.632080,1069.494263 
	C1374.008057,1070.977783 1376.255371,1073.451538 1378.781250,1073.779419 
	C1392.239136,1075.526367 1405.742310,1077.068237 1419.275513,1078.055420 
	C1440.438232,1079.599243 1461.633545,1081.529785 1482.822510,1081.624390 
	C1500.669189,1081.703979 1518.514893,1079.189697 1536.381958,1078.201538 
	C1569.626709,1076.362915 1602.144653,1070.026367 1634.247070,1061.779663 
	C1663.542969,1054.253784 1692.183716,1044.516602 1719.876343,1032.164185 
	C1725.299438,1029.745239 1731.028320,1028.011475 1737.391357,1026.033569 
	C1734.111328,1030.414062 1730.320557,1035.012817 1725.960815,1038.987549 
	C1665.733765,1093.894653 1600.908203,1142.212524 1526.313110,1177.740112 
	C1513.046143,1182.828613 1500.441528,1187.630981 1487.774658,1192.262939 
	C1482.841797,1194.066895 1477.768555,1195.486816 1471.470703,1197.592773 
	C1454.837524,1201.191528 1439.943848,1206.844116 1423.334229,1205.941895 
	C1394.456909,1180.868408 1376.396973,1150.224121 1370.803101,1112.908813 
	C1368.649780,1098.544434 1367.871582,1083.895630 1371.632080,1069.494263 
z"/>
<path fill="#FDFCFD" opacity="1.000000" stroke="none" 
	d="
M1674.872559,919.568481 
	C1660.807007,902.365479 1647.522949,884.437073 1633.610229,867.010681 
	C1608.048706,834.993530 1582.116821,803.272034 1556.680176,770.193665 
	C1568.742676,767.188538 1602.340088,767.682068 1608.743530,769.616028 
	C1609.811890,773.210754 1610.821167,776.606689 1612.068848,780.747192 
	C1614.401367,788.121155 1615.826660,795.064148 1618.752075,801.303772 
	C1622.810791,809.960327 1628.771118,817.575500 1639.514526,817.571533 
	C1649.642334,817.567810 1655.764404,810.728821 1660.188599,802.520081 
	C1663.324341,796.701660 1665.732178,790.490967 1669.117554,784.319092 
	C1674.023804,779.550171 1678.277588,774.917603 1683.308350,770.193726 
	C1689.390625,769.483826 1694.695923,768.865295 1700.001343,768.246704 
	C1701.387573,812.288208 1694.059204,855.149597 1682.365112,897.396484 
	C1680.341675,904.706116 1677.717407,911.849365 1674.872559,919.568481 
z"/>
<path fill="#BABCBD" opacity="1.000000" stroke="none" 
	d="
M1700.572876,767.616211 
	C1694.695923,768.865295 1689.390625,769.483826 1683.195190,769.465637 
	C1678.161865,762.097351 1673.895142,755.478516 1666.351807,750.952271 
	C1664.007568,744.950623 1661.902100,739.632996 1659.925537,733.435059 
	C1659.660645,728.951233 1659.543335,725.291626 1658.824463,721.754211 
	C1655.864502,707.187561 1652.810181,692.638550 1649.620972,678.120422 
	C1646.506348,663.942078 1643.185303,649.809143 1639.930908,634.740662 
	C1640.096436,611.598572 1640.286011,589.372131 1641.121094,567.393799 
	C1645.803223,570.502075 1649.839844,573.362244 1653.876343,576.222412 
	C1653.876343,576.222412 1653.924194,576.057434 1653.430176,576.608765 
	C1653.221069,577.524109 1653.506226,577.888184 1653.791382,578.252319 
	C1659.423096,584.903259 1665.054688,591.554138 1671.379395,598.107178 
	C1672.072388,598.009277 1671.968994,597.995789 1671.873779,598.630981 
	C1672.683716,600.224304 1673.588989,601.182495 1674.494141,602.140625 
	C1683.627319,630.018738 1691.155029,658.339233 1695.672607,687.318298 
	C1698.051880,702.581360 1698.902222,718.103577 1699.984009,733.541016 
	C1700.763306,744.661743 1700.784912,755.835510 1700.572876,767.616211 
z"/>
<path fill="#525353" opacity="1.000000" stroke="none" 
	d="
M1674.278442,601.518677 
	C1673.588989,601.182495 1672.683716,600.224304 1671.885498,598.579773 
	C1672.682495,598.894531 1673.372681,599.895630 1674.278442,601.518677 
z"/>
<path fill="#9F2356" opacity="1.000000" stroke="none" 
	d="
M1738.645508,1026.083740 
	C1738.534912,1025.556274 1739.033813,1024.941895 1740.144409,1024.208740 
	C1740.255615,1024.725586 1739.755371,1025.361206 1738.645508,1026.083740 
z"/>
<path fill="#fff" opacity="1.000000" stroke="none" 
	d="
M226.158890,1743.660889 
	C219.699295,1762.713013 205.975113,1772.163940 187.890839,1775.812378 
	C180.143570,1777.375366 172.093765,1777.887085 164.166901,1778.021606 
	C145.849197,1778.332764 127.522621,1778.121460 109.199646,1778.122192 
	C105.939552,1778.122314 102.679459,1778.122314 99.687614,1778.122314 
	C97.566978,1770.073608 96.975029,1670.846802 98.785957,1657.241455 
	C100.482880,1656.896851 102.352875,1656.199585 104.227440,1656.187012 
	C118.552040,1656.091675 132.986526,1655.019653 147.174637,1656.412598 
	C164.218430,1658.085815 181.635422,1657.118164 198.183426,1663.639038 
	C218.171967,1671.515503 229.771210,1686.996460 230.104721,1708.441772 
	C230.285751,1720.083374 230.484238,1731.729004 226.158890,1743.660889 
z"/>
<path fill="#fff" opacity="1.000000" stroke="none" 
	d="
M2185.581299,1842.158447 
	C2172.054199,1816.433350 2170.604248,1790.405029 2182.266846,1764.816772 
	C2192.602295,1742.140015 2209.956787,1726.783936 2235.956543,1723.712158 
	C2268.106445,1719.913818 2298.849121,1739.324219 2309.988037,1770.355591 
	C2316.231445,1787.748047 2316.756104,1805.300903 2311.842529,1823.116211 
	C2304.822754,1848.569580 2280.745850,1873.963135 2247.122803,1875.494019 
	C2220.717529,1876.696289 2200.362549,1864.907593 2185.581299,1842.158447 
z"/>
<path fill="#fff" opacity="1.000000" stroke="none" 
	d="
M1117.866211,1762.140137 
	C1130.393677,1739.333008 1148.881714,1725.555664 1173.973511,1722.585449 
	C1195.907837,1719.988892 1214.714966,1728.468506 1229.055786,1744.845459 
	C1245.865479,1764.041626 1251.842041,1786.691406 1248.389038,1812.306274 
	C1246.014282,1829.922974 1238.778564,1844.137329 1226.608765,1856.965454 
	C1209.459229,1875.042480 1178.408813,1881.693237 1153.780029,1870.663696 
	C1130.805786,1860.375488 1115.479004,1842.731323 1110.738403,1818.016846 
	C1107.157471,1799.348877 1108.400879,1780.366333 1117.866211,1762.140137 
z"/>
<path fill="#fff" opacity="1.000000" stroke="none" 
	d="
M546.285400,1790.247314 
	C532.246887,1796.218262 518.946533,1801.997559 504.405762,1808.315796 
	C503.421082,1780.826416 510.527863,1758.606934 531.819763,1742.042358 
	C545.366150,1731.503784 560.793152,1725.146484 577.618713,1724.492065 
	C596.739929,1723.748291 614.581543,1728.725830 627.512268,1744.504761 
	C629.329651,1746.722534 630.515381,1749.457886 632.554749,1752.901123 
	C603.526306,1765.510986 575.275024,1777.783325 546.285400,1790.247314 
z"/>
<path fill="#fff" opacity="1.000000" stroke="none" 
	d="
M2030.276367,1850.168945 
	C2014.480225,1867.950928 1995.043457,1876.187988 1972.233521,1875.597778 
	C1925.759033,1874.395142 1900.807251,1837.270020 1901.560181,1804.193115 
	C1901.849731,1791.464844 1902.150757,1779.002808 1907.297241,1767.048340 
	C1920.283447,1736.885132 1947.667236,1722.706421 1977.366699,1723.837280 
	C2019.514160,1725.442017 2044.585083,1757.934692 2046.549194,1791.666016 
	C2047.798096,1813.115356 2043.972046,1832.468994 2030.276367,1850.168945 
z"/>
<path fill="#020202" opacity="1.000000" stroke="none" 
	d="
M1072.005005,1242.517944 
	C1085.662598,1245.321167 1099.284180,1248.316284 1112.984375,1250.892822 
	C1161.695312,1260.053223 1210.752686,1262.963623 1259.955078,1256.311523 
	C1286.257568,1252.755493 1312.276855,1247.105591 1339.201416,1243.122559 
	C1340.716309,1244.464600 1341.354980,1245.363525 1342.205444,1245.664795 
	C1363.424683,1253.181763 1384.666260,1260.635620 1406.279053,1268.733154 
	C1408.827148,1276.285889 1411.000366,1283.206055 1413.173462,1290.126221 
	C1410.184692,1290.225830 1407.195923,1290.412109 1404.207153,1290.412354 
	C1271.520996,1290.426758 1138.834717,1290.426147 1006.148560,1290.414429 
	C1003.491821,1290.414307 1000.835022,1290.260620 997.292053,1289.294434 
	C998.941589,1281.619873 1001.477356,1274.829590 1004.759766,1267.989868 
	C1026.661621,1260.539307 1047.828247,1253.170532 1068.942749,1245.655151 
	C1070.179077,1245.215088 1070.993896,1243.590942 1072.005005,1242.517944 
z"/>
<path fill="#AA9678" opacity="1.000000" stroke="none" 
	d="
M1004.013184,1268.039185 
	C1001.477356,1274.829590 998.941589,1281.619873 996.384094,1289.166870 
	C968.695496,1289.954712 941.028687,1289.986084 912.356689,1289.979614 
	C915.897095,1274.016357 920.331482,1258.057983 925.017029,1242.173828 
	C930.643372,1223.100586 936.483704,1204.090576 942.408447,1184.246460 
	C951.207886,1188.284668 959.728455,1193.322754 968.474915,1197.931885 
	C983.951172,1206.087402 999.564758,1213.982056 1015.558838,1223.266479 
	C1014.557739,1229.252441 1012.991089,1233.923096 1011.706116,1238.670166 
	C1009.062073,1248.438354 1006.568665,1258.247070 1004.013184,1268.039185 
z"/>
<path fill="#A99578" opacity="1.000000" stroke="none" 
	d="
M1414.020630,1290.074219 
	C1411.000366,1283.206055 1408.827148,1276.285889 1406.294434,1267.946289 
	C1404.808960,1262.715576 1403.630859,1258.918823 1402.567505,1255.090332 
	C1399.645264,1244.568359 1396.771118,1234.033081 1393.877930,1223.503052 
	C1399.102539,1220.935791 1404.378540,1218.466675 1409.533203,1215.766113 
	C1412.917725,1213.993164 1416.127319,1211.886108 1420.165283,1208.955322 
	C1421.926514,1207.399292 1422.937744,1206.816650 1423.948853,1206.234009 
	C1439.943848,1206.844116 1454.837524,1201.191528 1470.949951,1198.141235 
	C1476.110596,1213.387695 1480.464233,1228.608276 1484.907593,1243.802734 
	C1489.260254,1258.686768 1493.704468,1273.544067 1498.222412,1289.192627 
	C1470.513428,1289.988770 1442.690674,1290.005493 1414.020630,1290.074219 
z"/>
<path fill="#BABCBD" opacity="1.000000" stroke="none" 
	d="
M794.176880,767.372314 
	C802.633728,747.102112 815.620850,729.386902 828.994141,711.965271 
	C848.308960,686.803467 869.645264,663.493835 893.748230,642.790283 
	C895.764343,641.058533 897.581055,639.094604 900.292114,636.239258 
	C907.071228,630.475647 912.887268,625.490662 919.050476,620.980164 
	C1001.619141,560.552246 1093.609863,532.168640 1196.081299,540.407532 
	C1210.853394,541.595276 1225.437866,545.117554 1240.075073,548.521851 
	C1240.580444,561.719543 1241.119751,573.954712 1241.132690,585.936401 
	C1236.265015,585.192444 1237.324341,589.206848 1236.706665,591.064880 
	C1223.314819,631.351990 1210.143799,671.712524 1196.985718,712.076965 
	C1196.380249,713.934204 1196.291870,715.960083 1195.437622,718.203003 
	C1194.022461,719.760559 1193.132324,721.022583 1191.434082,722.203735 
	C1156.448608,730.467163 1122.253418,738.739197 1088.099487,747.178711 
	C1060.391846,754.025208 1032.733765,761.072754 1005.053711,768.031250 
	C939.410400,767.995300 873.767151,767.964783 808.123840,767.911499 
	C803.795776,767.908020 799.467896,767.731689 794.176880,767.372314 
z"/>
<path fill="#020202" opacity="1.000000" stroke="none" 
	d="
M1423.334229,1205.941895 
	C1422.937744,1206.816650 1421.926514,1207.399292 1420.560791,1208.300781 
	C1380.937134,1212.447266 1343.269531,1205.950806 1307.327271,1190.085083 
	C1282.305664,1179.040039 1262.636597,1161.822021 1254.643066,1134.842529 
	C1250.736084,1121.655640 1250.143555,1107.486816 1247.822021,1092.262329 
	C1198.632080,1059.994019 1153.428101,1020.062500 1113.694824,972.971436 
	C1114.331421,971.262268 1114.693970,970.789429 1115.056396,970.316650 
	C1139.366943,984.558594 1163.395142,999.313965 1188.071777,1012.890503 
	C1210.405029,1025.177612 1233.913574,1035.107422 1258.192627,1044.186523 
	C1263.444824,1029.867920 1268.533691,1015.994446 1274.563232,1001.249023 
	C1275.720703,999.599365 1275.937378,998.821716 1276.154053,998.044067 
	C1276.154175,998.044067 1276.008789,998.026550 1276.752075,998.095703 
	C1285.802612,990.009888 1294.291992,982.031006 1302.383423,973.667236 
	C1327.591309,947.610779 1353.248657,921.953674 1377.614014,895.126587 
	C1408.859619,860.724060 1435.231201,822.804016 1453.258545,779.674683 
	C1458.857422,766.279968 1462.922119,752.244080 1467.689087,738.501709 
	C1471.964966,764.181519 1474.582886,789.874146 1472.546265,816.046204 
	C1470.059448,848.002319 1461.736938,878.261536 1449.042725,907.486511 
	C1435.336914,939.040833 1418.143188,968.735107 1400.386963,998.111755 
	C1388.256104,1018.181763 1378.177002,1039.092651 1372.803345,1062.052734 
	C1372.348999,1063.994263 1372.080933,1065.979370 1371.679199,1068.719238 
	C1367.871582,1083.895630 1368.649780,1098.544434 1370.803101,1112.908813 
	C1376.396973,1150.224121 1394.456909,1180.868408 1423.334229,1205.941895 
z"/>
<path fill="#F9B042" opacity="1.000000" stroke="none" 
	d="
M1467.656128,737.664734 
	C1462.922119,752.244080 1458.857422,766.279968 1453.258545,779.674683 
	C1435.231201,822.804016 1408.859619,860.724060 1377.614014,895.126587 
	C1353.248657,921.953674 1327.591309,947.610779 1302.383423,973.667236 
	C1294.291992,982.031006 1285.802612,990.009888 1276.801758,998.149475 
	C1276.805298,994.659363 1276.905273,990.923462 1278.292847,987.750610 
	C1291.055664,958.565125 1303.857056,929.393494 1317.011597,900.383057 
	C1331.686401,868.020203 1346.128296,835.587463 1354.540161,800.888611 
	C1356.881470,791.230347 1358.620728,781.426147 1361.096191,770.183655 
	C1361.951782,765.383118 1362.376221,762.091064 1362.738281,758.792114 
	C1365.125488,737.047424 1368.595459,715.351746 1369.598267,693.542847 
	C1370.833740,666.670837 1369.987793,639.704041 1370.101685,612.778564 
	C1370.118530,608.813538 1370.466797,604.849915 1370.661621,600.885681 
	C1385.318970,611.149780 1400.200928,621.111816 1414.554688,631.784363 
	C1424.122070,638.898254 1432.936401,647.025024 1442.887695,655.423584 
	C1443.831543,656.781921 1443.901855,657.423218 1443.898438,658.072632 
	C1450.462280,677.860779 1457.196167,697.595093 1463.490479,717.468628 
	C1465.473633,723.729858 1466.278809,730.364197 1467.656128,737.664734 
z"/>
<path fill="#E0DCDA" opacity="1.000000" stroke="none" 
	d="
M1370.365723,600.425598 
	C1370.466797,604.849915 1370.118530,608.813538 1370.101685,612.778564 
	C1369.987793,639.704041 1370.833740,666.670837 1369.598267,693.542847 
	C1368.595459,715.351746 1365.125488,737.047424 1362.738281,758.792114 
	C1362.376221,762.091064 1361.951782,765.383118 1361.198730,769.338623 
	C1343.219727,769.985107 1325.598022,769.971375 1306.913574,769.128906 
	C1305.817993,748.917786 1297.561890,733.262390 1284.030273,719.243286 
	C1271.616089,680.727112 1259.089966,643.009705 1246.721558,605.240662 
	C1244.679932,599.006348 1243.329102,592.545898 1241.659058,586.189941 
	C1241.119751,573.954712 1240.580444,561.719543 1240.888428,548.515381 
	C1268.862915,553.953247 1295.647339,561.549683 1320.950317,573.391113 
	C1336.219482,580.536865 1350.964111,588.803528 1365.944336,596.566528 
	C1367.319458,597.699524 1368.694702,598.832520 1370.365723,600.425598 
z"/>
<path fill="#030303" opacity="1.000000" stroke="none" 
	d="
M1283.970947,720.024902 
	C1297.561890,733.262390 1305.817993,748.917786 1305.983643,769.152222 
	C1305.107178,775.865417 1304.595947,781.865479 1303.008301,787.565735 
	C1290.990479,830.715271 1238.170410,852.555847 1196.787842,819.552063 
	C1193.709717,817.097168 1190.496094,814.811951 1186.845703,811.365479 
	C1184.659546,807.453247 1182.799316,804.711365 1181.316040,801.778809 
	C1173.664551,786.650696 1169.930420,771.162048 1174.708862,754.068298 
	C1178.103516,741.924805 1184.839844,732.014404 1192.242188,722.284607 
	C1193.132324,721.022583 1194.022461,719.760559 1196.146484,718.261414 
	C1223.153076,698.050293 1258.594849,698.948425 1282.167969,719.286316 
	C1282.634277,719.688538 1283.364136,719.785461 1283.970947,720.024902 
M1255.598633,754.851501 
	C1257.497314,752.572510 1259.748901,750.500977 1261.232422,747.977844 
	C1267.070435,738.048767 1264.855835,724.899719 1256.282715,717.126038 
	C1247.882446,709.509033 1235.480957,708.458862 1225.949585,714.557312 
	C1216.162109,720.819580 1211.949219,733.217590 1215.904175,744.119507 
	C1221.647339,759.950378 1238.121582,764.955688 1255.598633,754.851501 
z"/>
<path fill="#686B6B" opacity="1.000000" stroke="none" 
	d="
M1191.434082,722.203735 
	C1184.839844,732.014404 1178.103516,741.924805 1174.708862,754.068298 
	C1169.930420,771.162048 1173.664551,786.650696 1181.316040,801.778809 
	C1182.799316,804.711365 1184.659546,807.453247 1186.269287,810.999634 
	C1181.336304,811.038879 1176.378906,810.775696 1171.638550,809.621155 
	C1116.505493,796.193909 1061.405029,782.632324 1005.674866,768.568726 
	C1032.733765,761.072754 1060.391846,754.025208 1088.099487,747.178711 
	C1122.253418,738.739197 1156.448608,730.467163 1191.434082,722.203735 
z"/>
<path fill="#525353" opacity="1.000000" stroke="none" 
	d="
M1004.759827,1267.989868 
	C1006.568665,1258.247070 1009.062073,1248.438354 1011.706116,1238.670166 
	C1012.991089,1233.923096 1014.557739,1229.252441 1016.043701,1223.706665 
	C1034.410889,1229.032104 1052.731201,1235.198120 1071.528320,1241.940918 
	C1070.993896,1243.590942 1070.179077,1245.215088 1068.942749,1245.655151 
	C1047.828247,1253.170532 1026.661621,1260.539307 1004.759827,1267.989868 
z"/>
<path fill="#525353" opacity="1.000000" stroke="none" 
	d="
M1393.106812,1223.564209 
	C1396.771118,1234.033081 1399.645264,1244.568359 1402.567505,1255.090332 
	C1403.630859,1258.918823 1404.808960,1262.715576 1405.919434,1267.313721 
	C1384.666260,1260.635620 1363.424683,1253.181763 1342.205444,1245.664795 
	C1341.354980,1245.363525 1340.716309,1244.464600 1339.994141,1243.117188 
	C1340.414551,1241.899902 1340.725708,1241.134399 1341.238403,1240.959229 
	C1358.258789,1235.146362 1375.298706,1229.390137 1393.106812,1223.564209 
z"/>
<path fill="#525353" opacity="1.000000" stroke="none" 
	d="
M1111.849365,972.196777 
	C1109.340332,969.501770 1106.831299,966.806702 1104.322266,964.111633 
	C1104.691162,963.697632 1105.060059,963.283691 1105.428955,962.869690 
	C1108.238525,964.723267 1111.048218,966.576782 1113.553223,969.306519 
	C1112.781982,970.854065 1112.315674,971.525452 1111.849365,972.196777 
z"/>
<path fill="#F9B042" opacity="1.000000" stroke="none" 
	d="
M1275.473633,998.165527 
	C1275.937378,998.821716 1275.720703,999.599365 1274.893066,1000.648682 
	C1274.452393,1000.042542 1274.622681,999.164795 1275.473633,998.165527 
z"/>
<path fill="#020202" opacity="1.000000" stroke="none" 
	d="
M1111.994385,972.491089 
	C1112.315674,971.525452 1112.781982,970.854065 1113.810303,969.901733 
	C1114.372192,969.620789 1114.862549,969.823059 1114.959473,970.069824 
	C1114.693970,970.789429 1114.331421,971.262268 1113.356934,972.386353 
	C1112.744873,973.037598 1112.139282,972.785339 1111.994385,972.491089 
z"/>
<path fill="#E1DCDA" opacity="1.000000" stroke="none" 
	d="
M1444.579590,658.165833 
	C1443.901855,657.423218 1443.831543,656.781921 1443.527100,655.711731 
	C1444.996338,652.356262 1446.625977,649.437744 1448.712280,645.374207 
	C1457.310425,630.909912 1464.865112,617.185120 1473.728271,604.364868 
	C1487.649780,584.227966 1504.451660,566.758545 1525.751953,554.144714 
	C1564.549683,531.169006 1607.352539,536.051636 1640.475586,567.145630 
	C1640.286011,589.372131 1640.096436,611.598572 1639.386475,635.294312 
	C1632.111572,667.054016 1625.314209,697.335144 1618.702881,727.656860 
	C1618.279419,729.598694 1619.294922,731.854248 1619.529297,734.586060 
	C1618.695435,736.732910 1617.973389,738.257568 1616.805176,740.038818 
	C1616.311768,740.946960 1616.264160,741.598633 1616.093262,743.018555 
	C1612.049683,755.568420 1611.625366,767.749512 1611.830444,780.002563 
	C1610.821167,776.606689 1609.811890,773.210754 1608.743530,769.616028 
	C1602.340088,767.682068 1568.742676,767.188538 1556.429199,769.572021 
	C1536.430176,749.226074 1517.488159,727.810547 1497.471436,707.451477 
	C1480.719727,690.413086 1462.712158,674.609436 1444.579590,658.165833 
z"/>
<path fill="#010101" opacity="1.000000" stroke="none" 
	d="
M1365.860718,595.826233 
	C1350.964111,588.803528 1336.219482,580.536865 1320.950317,573.391113 
	C1295.647339,561.549683 1268.862915,553.953247 1240.922485,547.552917 
	C1225.437866,545.117554 1210.853394,541.595276 1196.081299,540.407532 
	C1093.609863,532.168640 1001.619141,560.552246 919.050476,620.980164 
	C912.887268,625.490662 907.071228,630.475647 900.544617,635.618164 
	C895.974854,632.942444 899.315125,629.777466 900.256714,627.078979 
	C908.753357,602.730652 920.747925,580.182556 935.920776,559.327332 
	C959.037537,527.553284 988.127075,502.443756 1022.713745,484.141663 
	C1053.558105,467.819794 1086.499023,458.295868 1121.625488,455.647980 
	C1178.222168,451.381683 1229.782715,466.076691 1277.089966,495.952087 
	C1315.841919,520.424622 1345.621826,553.625305 1365.860718,595.826233 
z"/>
<path fill="#020202" opacity="1.000000" stroke="none" 
	d="
M1641.121094,567.393799 
	C1607.352539,536.051636 1564.549683,531.169006 1525.751953,554.144714 
	C1504.451660,566.758545 1487.649780,584.227966 1473.728271,604.364868 
	C1464.865112,617.185120 1457.310425,630.909912 1448.598389,644.705627 
	C1450.015015,633.795044 1451.387695,622.258728 1454.108398,611.049744 
	C1461.265381,581.564941 1471.513306,553.222595 1487.549927,527.242737 
	C1496.700317,512.419006 1507.702026,499.290771 1521.807861,488.816620 
	C1548.838135,468.745422 1580.688843,472.239929 1605.533325,494.696075 
	C1623.352051,510.801941 1635.714111,530.808167 1645.623657,552.404663 
	C1648.927490,559.604858 1651.306396,567.229370 1653.992310,575.441162 
	C1649.839844,573.362244 1645.803223,570.502075 1641.121094,567.393799 
z"/>
<path fill="#020202" opacity="1.000000" stroke="none" 
	d="
M1654.170654,578.009338 
	C1653.506226,577.888184 1653.221069,577.524109 1653.344727,576.598877 
	C1654.198853,576.375977 1654.652832,576.704651 1655.063599,577.080688 
	C1655.084229,577.099731 1654.729614,577.528381 1654.170654,578.009338 
z"/>
<path fill="#060606" opacity="1.000000" stroke="none" 
	d="
M1617.251221,739.782227 
	C1617.973389,738.257568 1618.695435,736.732910 1620.214111,734.423157 
	C1622.505127,731.854126 1623.853638,729.919250 1625.517822,728.311157 
	C1635.096924,719.055725 1645.151978,719.160278 1654.410889,728.546387 
	C1656.257690,730.418457 1658.003906,732.389832 1659.796631,734.315430 
	C1661.902100,739.632996 1664.007568,744.950623 1666.155762,751.796997 
	C1666.704956,759.493896 1667.246338,765.659424 1667.705566,771.831116 
	C1668.018188,776.034729 1668.215942,780.247009 1668.465088,784.455383 
	C1665.732178,790.490967 1663.324341,796.701660 1660.188599,802.520081 
	C1655.764404,810.728821 1649.642334,817.567810 1639.514526,817.571533 
	C1628.771118,817.575500 1622.810791,809.960327 1618.752075,801.303772 
	C1615.826660,795.064148 1614.401367,788.121155 1612.068848,780.747192 
	C1611.625366,767.749512 1612.049683,755.568420 1616.533203,742.746826 
	C1617.147827,741.065247 1617.199463,740.423767 1617.251221,739.782227 
M1640.957520,726.195374 
	C1633.302490,727.652893 1631.434814,733.828979 1630.391479,740.061096 
	C1629.161133,747.412170 1629.977905,754.684448 1635.472046,760.418213 
	C1639.189575,764.297974 1643.641235,763.741638 1647.355957,759.401794 
	C1655.208496,750.227356 1652.765503,733.728638 1640.957520,726.195374 
z"/>
<path fill="#686B6B" opacity="1.000000" stroke="none" 
	d="
M1669.117554,784.319092 
	C1668.215942,780.247009 1668.018188,776.034729 1667.705566,771.831116 
	C1667.246338,765.659424 1666.704956,759.493896 1666.394653,752.480957 
	C1673.895142,755.478516 1678.161865,762.097351 1682.418213,769.557007 
	C1678.277588,774.917603 1674.023804,779.550171 1669.117554,784.319092 
z"/>
<path fill="#909394" opacity="1.000000" stroke="none" 
	d="
M1659.925537,733.435059 
	C1658.003906,732.389832 1656.257690,730.418457 1654.410889,728.546387 
	C1645.151978,719.160278 1635.096924,719.055725 1625.517822,728.311157 
	C1623.853638,729.919250 1622.505127,731.854126 1620.325928,733.800964 
	C1619.294922,731.854248 1618.279419,729.598694 1618.702881,727.656860 
	C1625.314209,697.335144 1632.111572,667.054016 1639.410400,636.209900 
	C1643.185303,649.809143 1646.506348,663.942078 1649.620972,678.120422 
	C1652.810181,692.638550 1655.864502,707.187561 1658.824463,721.754211 
	C1659.543335,725.291626 1659.660645,728.951233 1659.925537,733.435059 
z"/>
<path fill="#909394" opacity="1.000000" stroke="none" 
	d="
M1284.030273,719.243347 
	C1283.364136,719.785461 1282.634277,719.688538 1282.167969,719.286316 
	C1258.594849,698.948425 1223.153076,698.050293 1196.671387,717.965820 
	C1196.291870,715.960083 1196.380249,713.934204 1196.985718,712.076965 
	C1210.143799,671.712524 1223.314819,631.351990 1236.706665,591.064880 
	C1237.324341,589.206848 1236.265015,585.192444 1241.132690,585.936401 
	C1243.329102,592.545898 1244.679932,599.006348 1246.721558,605.240662 
	C1259.089966,643.009705 1271.616089,680.727112 1284.030273,719.243347 
z"/>
<path fill="#F8F9F9" opacity="1.000000" stroke="none" 
	d="
M1254.992920,755.331482 
	C1238.121582,764.955688 1221.647339,759.950378 1215.904175,744.119507 
	C1211.949219,733.217590 1216.162109,720.819580 1225.949585,714.557312 
	C1235.480957,708.458862 1247.882446,709.509033 1256.282715,717.126038 
	C1264.855835,724.899719 1267.070435,738.048767 1261.232422,747.977844 
	C1259.748901,750.500977 1257.497314,752.572510 1254.992920,755.331482 
z"/>
<path fill="#909394" opacity="1.000000" stroke="none" 
	d="
M1616.805176,740.038818 
	C1617.199463,740.423767 1617.147827,741.065247 1616.656372,741.978516 
	C1616.264160,741.598633 1616.311768,740.946960 1616.805176,740.038818 
z"/>
<path fill="#F8F9F9" opacity="1.000000" stroke="none" 
	d="
M1641.711426,726.285645 
	C1652.765503,733.728638 1655.208496,750.227356 1647.355957,759.401794 
	C1643.641235,763.741638 1639.189575,764.297974 1635.472046,760.418213 
	C1629.977905,754.684448 1629.161133,747.412170 1630.391479,740.061096 
	C1631.434814,733.828979 1633.302490,727.652893 1641.711426,726.285645 
z"/>
</svg>