<svg width="32" height="33" viewBox="0 0 32 33" fill="none" xmlns="http://www.w3.org/2000/svg">
<rect x="0.5" y="0.975098" width="31" height="31" rx="15.5" stroke="white"/>
<path d="M22 17.8753L20.1 19.7753C19.9167 19.9586 19.6833 20.0503 19.4 20.0503C19.1167 20.0503 18.8833 19.9586 18.7 19.7753C18.5167 19.5919 18.425 19.3586 18.425 19.0753C18.425 18.7919 18.5167 18.5586 18.7 18.3753L20.6 16.4753L18.7 14.5753C18.5167 14.3919 18.425 14.1586 18.425 13.8753C18.425 13.5919 18.5167 13.3586 18.7 13.1753C18.8833 12.9919 19.1167 12.9003 19.4 12.9003C19.6833 12.9003 19.9167 12.9919 20.1 13.1753L22 15.0753L23.9 13.1753C24.0833 12.9919 24.3167 12.9003 24.6 12.9003C24.8833 12.9003 25.1167 12.9919 25.3 13.1753C25.4833 13.3586 25.575 13.5919 25.575 13.8753C25.575 14.1586 25.4833 14.3919 25.3 14.5753L23.4 16.4753L25.3 18.3753C25.4833 18.5586 25.575 18.7919 25.575 19.0753C25.575 19.3586 25.4833 19.5919 25.3 19.7753C25.1167 19.9586 24.8833 20.0503 24.6 20.0503C24.3167 20.0503 24.0833 19.9586 23.9 19.7753L22 17.8753ZM11 19.4753H8C7.71667 19.4753 7.47933 19.3793 7.288 19.1873C7.09667 18.9953 7.00067 18.7579 7 18.4753V14.4753C7 14.1919 7.096 13.9546 7.288 13.7633C7.48 13.5719 7.71733 13.4759 8 13.4753H11L14.3 10.1753C14.6167 9.85861 14.9793 9.78761 15.388 9.96228C15.7967 10.1369 16.0007 10.4496 16 10.9003V22.0503C16 22.5003 15.796 22.8129 15.388 22.9883C14.98 23.1636 14.6173 23.0926 14.3 22.7753L11 19.4753Z" fill="white"/>
</svg>
