<svg width="32" height="33" viewBox="0 0 32 33" fill="none" xmlns="http://www.w3.org/2000/svg">
<rect x="0.5" y="0.975098" width="31" height="31" rx="15.5" stroke="white"/>
<path d="M12.0217 9.55946L23.6509 15.8961C23.7568 15.9539 23.845 16.0379 23.9063 16.1396C23.9677 16.2413 24 16.3569 24 16.4747C24 16.5924 23.9677 16.7081 23.9063 16.8098C23.845 16.9115 23.7568 16.9955 23.6509 17.0533L12.0217 23.3899C11.9173 23.4467 11.7994 23.4761 11.6796 23.4751C11.5599 23.474 11.4425 23.4427 11.3392 23.3841C11.2359 23.3255 11.1502 23.2417 11.0907 23.141C11.0312 23.0404 10.9999 22.9264 11 22.8105V10.1389C11.0001 10.023 11.0314 9.90914 11.091 9.80861C11.1506 9.70809 11.2363 9.62442 11.3396 9.56592C11.4429 9.50741 11.5602 9.47611 11.6798 9.47512C11.7995 9.47413 11.9174 9.50267 12.0217 9.55946Z" fill="white"/>
</svg>
