<svg width="32" height="33" viewBox="0 0 32 33" fill="none" xmlns="http://www.w3.org/2000/svg">
<rect x="0.5" y="0.925293" width="31" height="31" rx="15.5" stroke="white"/>
<path d="M11 19.4255H8C7.71667 19.4255 7.47933 19.3295 7.288 19.1375C7.09667 18.9455 7.00067 18.7081 7 18.4255V14.4255C7 14.1421 7.096 13.9048 7.288 13.7135C7.48 13.5221 7.71733 13.4261 8 13.4255H11L14.3 10.1255C14.6167 9.80881 14.9793 9.73781 15.388 9.91248C15.7967 10.0871 16.0007 10.3998 16 10.8505V22.0005C16 22.4505 15.796 22.7631 15.388 22.9385C14.98 23.1138 14.6173 23.0428 14.3 22.7255L11 19.4255Z" fill="white"/>
<path d="M19 12.4253C19 12.4253 20.5 13.1965 20.5 15.9253C20.5 18.6541 19 19.4253 19 19.4253" stroke="white" stroke-linecap="round"/>
<path d="M21 10.4253C21 10.4253 23 11.6372 23 15.9253C23 20.2134 21 21.4253 21 21.4253" stroke="white" stroke-linecap="round"/>
</svg>
