<svg width="40" height="40" viewBox="0 0 40 40" fill="none" xmlns="http://www.w3.org/2000/svg">
<path d="M20.15 4.84992C16.8 1.49992 11.7833 0.81659 7.75001 2.78326L13.8 8.83326C14.45 9.48326 14.45 10.5333 13.8 11.1833L11.15 13.8333C10.5 14.4999 9.45001 14.4999 8.80001 13.8333L2.75001 7.78326C0.800006 11.8333 1.48334 16.8166 4.83334 20.1666C6.30879 21.6365 8.17613 22.6507 10.2124 23.0881C12.2486 23.5255 14.3677 23.3676 16.3167 22.6333L29.5833 35.8999C29.9882 36.308 30.4698 36.6319 31.0004 36.8529C31.5311 37.0739 32.1002 37.1877 32.675 37.1877C33.2498 37.1877 33.819 37.0739 34.3496 36.8529C34.8802 36.6319 35.3618 36.308 35.7667 35.8999C36.1747 35.4951 36.4986 35.0135 36.7197 34.4828C36.9407 33.9522 37.0545 33.3831 37.0545 32.8083C37.0545 32.2334 36.9407 31.6643 36.7197 31.1337C36.4986 30.6031 36.1747 30.1214 35.7667 29.7166L22.5667 16.4999C24.1 12.5999 23.3 7.99992 20.15 4.84992Z" fill="#5E9ED5"/>
</svg>
