<svg width="96" height="30" viewBox="0 0 96 30" fill="none" xmlns="http://www.w3.org/2000/svg">
<path fill-rule="evenodd" clip-rule="evenodd" d="M69.0917 18.9705C71.0466 18.9705 72.6367 17.3925 72.6367 15.4529C72.6367 13.5133 71.0466 11.9353 69.0917 11.9353C67.1371 11.9353 65.5467 13.5133 65.5467 15.4529C65.5467 17.3925 67.1371 18.9705 69.0917 18.9705ZM72.6367 6.71106H72.7329H74.3163V20.6488H72.6367V19.2572C71.6675 20.1486 70.4177 20.6369 69.0917 20.6369C66.2111 20.6369 63.8674 18.3113 63.8674 15.4529C63.8674 12.5943 66.2111 10.2688 69.0917 10.2688C70.4177 10.2688 71.6675 10.7571 72.6367 11.6486V6.71106ZM34.2619 18.9091C36.2166 18.9091 37.8069 17.3311 37.8069 15.3915C37.8069 13.4519 36.2166 11.874 34.2619 11.874C32.3071 11.874 30.7168 13.4519 30.7168 15.3915C30.7168 17.3311 32.3071 18.9091 34.2619 18.9091ZM30.7168 11.5873C31.6861 10.6958 32.9362 10.2075 34.2619 10.2075C37.1426 10.2075 39.4863 12.5331 39.4863 15.3915C39.4863 18.25 37.1426 20.5755 34.2619 20.5755C32.9362 20.5755 31.6861 20.0873 30.7168 19.1957V24.1333H29.0374V10.1955H30.7168V11.5873ZM42.6908 14.5821C43.0688 13.0068 44.4772 11.8758 46.0837 11.8758C47.6692 11.8758 48.9973 12.9827 49.3513 14.5821H42.6908ZM46.0837 10.1955C43.2461 10.1955 40.9376 12.5403 40.9376 15.4222C40.9376 18.3042 43.2461 20.6488 46.0837 20.6488C47.6727 20.6488 49.1311 20.0446 50.0855 18.9911L50.5814 18.4435L50.6453 18.3728L50.5758 18.3076L49.4977 17.3005L49.4282 17.2354L49.3639 17.306L48.868 17.8537C48.2356 18.5518 47.1947 18.9687 46.0837 18.9687C44.4772 18.9687 43.0689 17.8376 42.6908 16.2622H51.0962V15.4222C51.0962 12.4913 48.8944 10.1955 46.0837 10.1955ZM84.2466 15.4222C84.2466 17.3777 82.6565 18.9687 80.7016 18.9687C78.747 18.9687 77.1566 17.3777 77.1566 15.4222C77.1566 13.4666 78.747 11.8757 80.7016 11.8757C82.6565 11.8757 84.2466 13.4666 84.2466 15.4222ZM80.7016 10.1955C77.821 10.1955 75.4773 12.5402 75.4773 15.4222C75.4773 18.3042 77.821 20.6488 80.7016 20.6488C83.5826 20.6488 85.9262 18.3042 85.9262 15.4222C85.9262 12.5402 83.5826 10.1955 80.7016 10.1955ZM57.3364 10.1955C56.1695 10.1955 55.0577 10.6455 54.1826 11.4673V10.1955H52.5476V20.6488H54.1826V15.3143C54.1826 13.4111 55.5974 11.8626 57.3364 11.8626C59.0757 11.8626 60.4909 13.4111 60.4909 15.3143V20.6488H62.1256V15.3143C62.1256 12.4918 59.9772 10.1955 57.3364 10.1955Z" fill="#0C0B0B"/>
<path fill-rule="evenodd" clip-rule="evenodd" d="M10.0745 16.6667H17.9757V24.4889L25.8769 16.6667V8.84448H17.9757L10.0745 16.6667Z" fill="#FF4876"/>
</svg>
