<svg width="96" height="30" viewBox="0 0 96 30" fill="none" xmlns="http://www.w3.org/2000/svg">
<path fill-rule="evenodd" clip-rule="evenodd" d="M83.0778 19.7884C83.1227 20.3102 83.533 20.9742 84.2444 20.9742H84.66C84.8216 20.9742 84.9537 20.8399 84.9537 20.6757V11.3723H84.9517C84.9436 11.2156 84.8162 11.0901 84.66 11.0901H83.3715C83.2153 11.0901 83.0879 11.2156 83.0798 11.3723H83.0778V12.1283C82.2881 11.1383 81.0431 10.7274 79.7947 10.7274C76.9567 10.7274 74.6562 13.0689 74.6562 15.9574C74.6562 18.8462 76.9567 21.1877 79.7947 21.1877C81.0431 21.1877 82.404 20.6949 83.0778 19.7873V19.7884ZM79.7994 19.3572C77.9946 19.3572 76.5315 17.8352 76.5315 15.9574C76.5315 14.08 77.9946 12.5579 79.7994 12.5579C81.6049 12.5579 83.0678 14.08 83.0678 15.9574C83.0678 17.8352 81.6049 19.3572 79.7994 19.3572Z" fill="#0C0B0B"/>
<path fill-rule="evenodd" clip-rule="evenodd" d="M73.0262 15.2943C73.0262 12.5806 71.3443 10.7499 68.662 10.7499C67.3815 10.7499 66.3319 11.5034 65.9611 12.1508C65.881 11.6446 65.617 11.1125 64.7982 11.1125H64.3809C64.2194 11.1125 64.0876 11.247 64.0876 11.4112V19.8117C64.0876 19.812 64.0876 19.8126 64.0876 19.813V20.7154H64.0892C64.0977 20.8719 64.2251 20.9975 64.381 20.9975H65.6699C65.6896 20.9975 65.709 20.9951 65.7277 20.9915C65.7362 20.9898 65.7441 20.9863 65.7524 20.984C65.762 20.981 65.772 20.9786 65.7811 20.9748C65.7926 20.97 65.803 20.9635 65.8137 20.9574C65.8189 20.9542 65.8244 20.9519 65.8294 20.9485C65.8423 20.94 65.8541 20.9299 65.8655 20.9195C65.8674 20.9176 65.8696 20.9163 65.8714 20.9145C65.8843 20.9019 65.896 20.888 65.9063 20.8736C65.9386 20.8285 65.9583 20.774 65.9615 20.7154H65.9632V15.2196C65.9632 13.7622 67.1241 12.5806 68.5562 12.5806C69.9883 12.5806 71.1493 13.7622 71.1493 15.2196L71.1505 19.8133L71.1508 19.8117C71.1508 19.8158 71.1514 19.82 71.1514 19.8243V20.7154H71.1531C71.1616 20.8719 71.289 20.9975 71.4448 20.9975H72.7337C72.7536 20.9975 72.7728 20.9951 72.7915 20.9915C72.7991 20.99 72.8061 20.9869 72.8136 20.9848C72.8242 20.9816 72.835 20.979 72.8452 20.9748C72.8557 20.9704 72.8653 20.9642 72.8753 20.9585C72.8814 20.955 72.8877 20.9525 72.8936 20.9485C72.9054 20.9405 72.9164 20.9309 72.9271 20.9214C72.9298 20.9188 72.9328 20.9169 72.9354 20.9143C72.9477 20.9023 72.9585 20.8894 72.9684 20.8758C72.9692 20.8748 72.97 20.874 72.9707 20.873C73.0025 20.8283 73.0219 20.7744 73.0253 20.7161C73.0253 20.7157 73.0254 20.7154 73.0254 20.7154H73.0272L73.0262 15.2943Z" fill="#0C0B0B"/>
<path fill-rule="evenodd" clip-rule="evenodd" d="M59.6034 19.7884C59.6485 20.3101 60.0588 20.9742 60.7697 20.9742H61.1857C61.3469 20.9742 61.4789 20.8398 61.4789 20.6757V11.3723H61.4772C61.4689 11.2156 61.3413 11.0901 61.1857 11.0901H59.8968C59.7409 11.0901 59.6136 11.2156 59.6049 11.3723H59.6034V12.1283C58.8136 11.1383 57.5686 10.7274 56.3201 10.7274C53.4821 10.7274 51.1816 13.0689 51.1816 15.9575C51.1816 18.8461 53.4821 21.1877 56.3201 21.1877C57.5686 21.1877 58.9293 20.6949 59.6033 19.7872L59.6034 19.7884ZM56.3251 19.3572C54.5203 19.3572 53.057 17.8353 53.057 15.9575C53.057 14.08 54.5203 12.5579 56.3251 12.5579C58.1301 12.5579 59.5931 14.08 59.5931 15.9575C59.5931 17.8353 58.1301 19.3572 56.3251 19.3572Z" fill="#0C0B0B"/>
<path fill-rule="evenodd" clip-rule="evenodd" d="M43.5597 18.456C44.4201 19.0627 45.3593 19.3573 46.2618 19.3573C47.1216 19.3573 48.0105 18.9037 48.0105 18.114C48.0105 17.0597 46.0736 16.8957 44.8567 16.4747C43.6394 16.0538 42.5911 15.1836 42.5911 13.7743C42.5911 11.6179 44.4789 10.7273 46.241 10.7273C47.3573 10.7273 48.5092 11.102 49.256 11.6387C49.5132 11.8371 49.3566 12.0648 49.3566 12.0648L48.6437 13.101C48.5636 13.2177 48.4235 13.3186 48.2224 13.1922C48.0213 13.066 47.3159 12.5578 46.241 12.5578C45.1659 12.5578 44.5183 13.0631 44.5183 13.6894C44.5183 14.4405 45.3599 14.6767 46.3457 14.9327C48.0637 15.404 49.9378 15.9705 49.9378 18.114C49.9378 20.0139 48.1916 21.1881 46.2618 21.1881C44.7994 21.1881 43.5543 20.7638 42.51 19.9839C42.2925 19.7623 42.4444 19.5565 42.4444 19.5565L43.1538 18.5255C43.2981 18.3328 43.4801 18.4 43.5597 18.456Z" fill="#0C0B0B"/>
<path fill-rule="evenodd" clip-rule="evenodd" d="M38.6046 19.7884C38.6497 20.3101 39.06 20.9742 39.7709 20.9742H40.1869C40.3481 20.9742 40.4803 20.8398 40.4803 20.6757V11.3723H40.4785C40.47 11.2156 40.3427 11.0901 40.1869 11.0901H38.898C38.7421 11.0901 38.6148 11.2156 38.6062 11.3723H38.6046V12.1283C37.8149 11.1383 36.5699 10.7274 35.3214 10.7274C32.4834 10.7274 30.1828 13.0689 30.1828 15.9575C30.1828 18.8461 32.4834 21.1877 35.3214 21.1877C36.5699 21.1877 37.9305 20.6949 38.6044 19.7872L38.6046 19.7884ZM35.3264 19.3572C33.5215 19.3572 32.0583 17.8353 32.0583 15.9575C32.0583 14.08 33.5215 12.5579 35.3264 12.5579C37.1312 12.5579 38.5943 14.08 38.5943 15.9575C38.5943 17.8353 37.1312 19.3572 35.3264 19.3572Z" fill="#0C0B0B"/>
<path fill-rule="evenodd" clip-rule="evenodd" d="M22.9786 16.3129C21.0688 16.3129 19.5206 17.8874 19.5206 19.8298C19.5206 21.7721 21.0688 23.3466 22.9786 23.3466C24.8885 23.3466 26.4367 21.7721 26.4367 19.8298C26.4367 17.8874 24.8885 16.3129 22.9786 16.3129ZM13.9944 16.3132C12.0846 16.3132 10.5363 17.8874 10.5363 19.8298C10.5363 21.7721 12.0846 23.3466 13.9944 23.3466C15.9043 23.3466 17.4526 21.7721 17.4526 19.8298C17.4526 17.8874 15.9043 16.3132 13.9944 16.3132ZM21.9445 11.9168C21.9445 13.8592 20.3963 15.4339 18.4865 15.4339C16.5766 15.4339 15.0285 13.8592 15.0285 11.9168C15.0285 9.97472 16.5766 8.40002 18.4865 8.40002C20.3963 8.40002 21.9445 9.97472 21.9445 11.9168Z" fill="#F06A6A"/>
</svg>
