<svg width="97" height="30" viewBox="0 0 97 30" fill="none" xmlns="http://www.w3.org/2000/svg">
<path d="M21.3858 19.1274H17.155V21.2375H21.3858V19.1274Z" fill="#0C0B0B"/>
<path d="M27.7301 19.1274H23.502V21.2375H27.7301V19.1274Z" fill="#0C0B0B"/>
<path d="M27.7312 14.9076H17.1526V17.0176H27.7312V14.9076Z" fill="#0C0B0B"/>
<path d="M23.5018 10.6881H17.155V12.798H23.5018V10.6881Z" fill="#0C0B0B"/>
<path d="M27.7323 10.6881H25.617V12.798H27.7323V10.6881Z" fill="#0C0B0B"/>
<path d="M58.442 10.6761C55.0446 10.6761 53.29 13.0724 53.29 16.0284C53.29 18.9846 55.0014 21.3812 58.442 21.3812C61.8826 21.3812 63.594 18.9846 63.594 16.0284C63.5941 13.0724 61.8393 10.6761 58.442 10.6761ZM61.0123 16.038C61.0099 17.9389 60.3677 19.4785 58.442 19.4785C56.5163 19.4785 55.874 17.939 55.872 16.038V16.0285C55.874 14.1278 56.5164 12.5883 58.4421 12.5883C60.3677 12.5883 61.0099 14.1278 61.0123 16.0285V16.0333C61.0123 16.0349 61.0123 16.0364 61.0123 16.038Z" fill="#0C0B0B"/>
<path d="M43.23 21.2373V6.43872C43.23 6.43872 45.187 6.16145 45.3387 6.14109C45.5106 6.11793 45.7388 6.23999 45.7388 6.48131V11.9672C46.1449 11.5821 46.5921 11.2717 47.0794 11.0352C47.5672 10.7989 48.1392 10.6806 48.7963 10.6806C49.3652 10.6806 49.8692 10.7768 50.3093 10.9694C50.7497 11.1616 51.1171 11.4321 51.4116 11.7796C51.7062 12.1277 51.9297 12.543 52.0821 13.0259C52.2344 13.5088 52.3106 14.0407 52.3106 14.6216V21.2371H49.8017V14.6216C49.8017 13.9868 49.6544 13.4954 49.3598 13.1473C49.0652 12.7996 48.6233 12.6257 48.034 12.6257C47.6007 12.6257 47.1946 12.7236 46.8156 12.9197C46.4362 13.1156 46.0773 13.3821 45.7388 13.7201V21.2373H43.23Z" fill="#0C0B0B"/>
<path d="M76.7237 21.3798C74.9972 21.3798 73.9152 20.3776 73.9152 18.508V12.967H71.9695C71.9695 12.967 72.383 11.5404 72.4157 11.4281C72.4486 11.3158 72.5341 11.1952 72.7059 11.1714C72.8776 11.1476 73.9128 11.0036 73.9128 11.0036L74.3909 7.96954C74.3909 7.96954 75.7958 7.77201 76.0185 7.73886C76.2288 7.70745 76.4195 7.85853 76.4195 8.08707V11.0036H78.8804V12.967H76.4195V18.4333C76.4195 19.1797 76.8751 19.4649 77.3118 19.4649C77.5787 19.4649 77.9442 19.3236 78.217 19.1974C78.3855 19.1196 78.6467 19.1773 78.7142 19.4119C78.7739 19.6198 79.0911 20.7234 79.0911 20.7234C78.8174 20.8997 77.9522 21.3798 76.7237 21.3798Z" fill="#0C0B0B"/>
<path d="M70.5914 13.0001C70.1024 12.8417 69.1834 12.5882 68.3091 12.5882C67.4184 12.5882 66.7175 12.8951 66.7175 13.6338C66.7175 14.5565 68.228 14.8251 69.262 15.2013C69.9532 15.4527 71.807 15.943 71.807 17.9316C71.807 20.3472 69.7958 21.38 67.6503 21.38C65.5045 21.38 64.2369 20.584 64.2369 20.584C64.2369 20.584 64.5697 19.4113 64.6371 19.1799C64.6981 18.9716 64.9408 18.8985 65.0955 18.9577C65.6477 19.17 66.6449 19.4651 67.772 19.4651C68.9131 19.4651 69.4652 19.1176 69.4652 18.3767C69.4652 17.3906 67.9243 17.0893 66.9051 16.7686C66.203 16.5479 64.3447 16.0332 64.3447 13.8461C64.3447 11.6917 66.2415 10.6809 68.2686 10.6809C69.9845 10.6809 70.8261 11.0388 71.4548 11.3582C71.4548 11.3582 71.1045 12.576 71.0525 12.7575C70.9911 12.9731 70.8137 13.072 70.5914 13.0001Z" fill="#0C0B0B"/>
<path d="M42.2511 11.0375C42.2511 10.8045 42.0514 10.6711 41.861 10.6928C41.0191 10.789 40.4184 11.1842 40.0298 11.5521C39.2667 10.9558 38.2075 10.6711 37.0188 10.6711C34.6353 10.6711 32.7732 11.8185 32.7732 14.3203C32.7732 15.7566 33.3861 16.7462 34.3595 17.3288C33.6366 17.6701 33.1551 18.3943 33.1551 19.1063C33.1551 20.2974 34.0984 20.6703 34.0984 20.6703C34.0984 20.6703 32.449 21.4688 32.449 23.0664C32.449 25.1114 34.3359 25.9383 36.6415 25.9383C39.9649 25.9383 42.2515 24.5692 42.2515 22.0552C42.2515 20.5079 41.0644 19.6538 38.4776 19.5522C36.9426 19.4918 35.9482 19.4367 35.7019 19.3554C35.3764 19.2476 35.2164 18.9876 35.2164 18.7006C35.2164 18.3838 35.4773 18.0822 35.8886 17.8751C36.2473 17.9385 36.6259 17.9697 37.019 17.9697C39.4045 17.9697 41.2648 16.8257 41.2648 14.3205C41.2648 13.713 41.1548 13.1856 40.9549 12.735C41.3053 12.5486 41.7365 12.4173 42.2514 12.4173C42.2514 12.4173 42.2511 11.2501 42.2511 11.0375ZM35.6828 21.2504C35.6828 21.2504 36.9344 21.2977 38.1851 21.3554C39.5902 21.4203 40.0281 21.7223 40.0281 22.448C40.0281 23.3346 38.807 24.197 37.1006 24.197C35.4807 24.197 34.6716 23.6349 34.6716 22.699C34.6716 22.1621 34.9559 21.5614 35.6828 21.2504ZM37.0233 16.2234C35.8942 16.2234 35.0133 15.6252 35.0133 14.3203C35.0133 13.0154 35.895 12.4172 37.0233 12.4172C38.1518 12.4172 39.0333 13.0138 39.0333 14.3203C39.0333 15.6269 38.1528 16.2234 37.0233 16.2234Z" fill="#0C0B0B"/>
</svg>
