<svg width="97" height="30" viewBox="0 0 97 30" fill="none" xmlns="http://www.w3.org/2000/svg">
<path d="M32.1845 20.9922V7.81902H34.2365V13.0124C34.8827 12.0525 35.8519 11.5723 37.144 11.572C38.2461 11.572 39.0981 11.8973 39.6999 12.548C40.3018 13.1988 40.6028 14.1054 40.6029 15.268V20.9922H38.5508V15.5523C38.5508 14.0488 37.8793 13.2969 36.5364 13.2967C35.8647 13.2967 35.3137 13.4989 34.8832 13.9033C34.4527 14.3076 34.2372 14.8763 34.2368 15.6092V20.9921L32.1845 20.9922Z" fill="#0C0B0B"/>
<path d="M50.3007 19.8553C49.3885 20.7651 48.2421 21.2199 46.8612 21.2199C45.4804 21.2199 44.3307 20.7651 43.412 19.8553C42.4935 18.9454 42.0343 17.789 42.0343 16.3861C42.0344 14.9832 42.4936 13.8303 43.412 12.9272C44.3305 12.0239 45.4802 11.5722 46.8612 11.5719C48.2422 11.5717 49.3887 12.0235 50.3007 12.9272C51.213 13.8308 51.6691 14.9838 51.669 16.3861C51.669 17.7884 51.2128 18.9448 50.3007 19.8553ZM44.9134 18.6989C45.4008 19.2675 46.0501 19.5519 46.8612 19.5519C47.6724 19.5519 48.3216 19.2675 48.809 18.6989C49.2965 18.1303 49.5404 17.3594 49.5406 16.3861C49.5406 15.4259 49.2936 14.6614 48.7996 14.0927C48.3055 13.524 47.6594 13.2396 46.8612 13.2397C46.0503 13.2397 45.401 13.5209 44.9134 14.0832C44.4257 14.6455 44.1819 15.413 44.1817 16.3857C44.1817 17.3594 44.4256 18.1304 44.9134 18.6989Z" fill="#0C0B0B"/>
<path d="M56.4189 21.2197C54.5311 21.2197 53.5872 20.2087 53.5872 18.1869V13.5242H52.1623V11.7994H53.6445L54.1197 9.08949H55.6587V11.7994H59.3263V13.5242H55.6588V18.1301C55.6588 18.9769 55.9692 19.4002 56.59 19.4001C57.1725 19.4001 57.6983 18.8693 58.1672 17.8079L59.7636 18.623C58.9779 20.3543 57.863 21.2198 56.4189 21.2197Z" fill="#0C0B0B"/>
<path d="M60.4233 25.2001C59.5111 25.2001 58.7573 24.9473 58.1619 24.4419L58.9221 22.8308C59.2896 23.2602 59.6886 23.4751 60.1193 23.4755C60.6893 23.4755 60.9743 23.1091 60.9743 22.3762V11.7994H63.0264V22.4136C63.0264 23.3992 62.7825 24.11 62.2947 24.5459C61.807 24.9818 61.1831 25.1998 60.4233 25.2001ZM62.0005 10.2451C61.6632 10.2565 61.3351 10.1338 61.0884 9.90398C60.9697 9.79243 60.8762 9.65701 60.814 9.50671C60.7518 9.3564 60.7222 9.19462 60.7274 9.03208C60.7228 8.86821 60.7526 8.70519 60.8148 8.55343C60.8769 8.40167 60.9701 8.2645 61.0884 8.15066C61.3364 7.92509 61.6601 7.80005 61.9958 7.80005C62.3315 7.80005 62.6551 7.92509 62.9032 8.15066C63.024 8.26308 63.1195 8.39977 63.1834 8.55172C63.2472 8.70365 63.2781 8.86737 63.2738 9.03208C63.2768 9.1938 63.2453 9.35431 63.1814 9.50298C63.1175 9.65165 63.0227 9.78509 62.9032 9.89446C62.7833 10.0093 62.6418 10.0994 62.4869 10.1595C62.332 10.2197 62.1668 10.2488 62.0005 10.2451Z" fill="#0C0B0B"/>
<path d="M68.1233 21.2197C67.0715 21.2197 66.2195 20.9575 65.5673 20.4332C64.915 19.9088 64.5888 19.2045 64.5887 18.3202C64.5887 17.5116 64.9276 16.8259 65.6054 16.2633C66.2831 15.7007 67.1351 15.4195 68.1612 15.4199C69.2128 15.4199 70.0996 15.7547 70.8217 16.4245V15.306C70.8217 14.6492 70.6538 14.1406 70.3181 13.7802C69.9822 13.4199 69.504 13.2398 68.8834 13.24C67.6292 13.24 66.8501 13.8781 66.5459 15.1543L64.6646 14.7563C64.9177 13.7707 65.4181 12.9936 66.1659 12.425C66.9137 11.8564 67.8449 11.572 68.9593 11.572C70.1757 11.572 71.1353 11.8911 71.8384 12.5293C72.5414 13.1674 72.8929 14.0993 72.8931 15.3249V20.9923H70.8977V19.8359C70.226 20.7586 69.3012 21.2199 68.1233 21.2197ZM68.5028 19.7034C69.4151 19.7034 70.188 19.2485 70.8216 18.3388V18.0542C70.1879 17.296 69.4151 16.9169 68.5028 16.917C67.9708 16.917 67.5399 17.0466 67.2101 17.3059C67.0542 17.4204 66.928 17.5705 66.8421 17.7436C66.7561 17.9167 66.7129 18.1078 66.716 18.3009C66.7109 18.496 66.7523 18.6896 66.8365 18.8659C66.9207 19.042 67.0455 19.196 67.2006 19.3149C67.5244 19.574 67.9582 19.7035 68.5028 19.7034Z" fill="#0C0B0B"/>
<path d="M74.8899 20.9922V11.7994H76.8852V13.3915C77.3918 12.2291 78.2659 11.6478 79.5077 11.6477C80.2422 11.6477 80.8503 11.8878 81.332 12.368C81.8137 12.8481 82.0543 13.4926 82.0539 14.3013C82.0488 14.7853 81.9654 15.2654 81.8069 15.7228L79.9256 15.5333C79.9642 15.2821 79.9895 15.0291 80.0015 14.7752C80.0015 13.8275 79.6088 13.3536 78.8234 13.3536C78.2912 13.3536 77.8446 13.6347 77.4836 14.197C77.1227 14.7593 76.9421 15.5017 76.942 16.4243V20.9922H74.8899Z" fill="#0C0B0B"/>
<path d="M19.3677 13.2057C20.8971 12.3582 22.9916 11.1973 22.9916 7.81873H20.4554C20.4554 9.70907 19.5327 10.2203 18.136 10.9943C16.6067 11.842 14.5121 13.0024 14.5121 16.3814H17.0484C17.0484 14.4909 17.971 13.9796 19.3677 13.2057Z" fill="#FF3C00"/>
<path d="M23.7575 12.4293C23.7575 14.3197 22.8348 14.831 21.4381 15.6048C19.9091 16.4522 17.8142 17.613 17.8142 20.9918H20.3503C20.3503 19.1014 21.273 18.5901 22.6697 17.8162C24.199 16.9687 26.2935 15.8082 26.2935 12.4293H23.7575Z" fill="#FF3C00"/>
</svg>
