<svg width="40" height="40" viewBox="0 0 40 40" fill="none" xmlns="http://www.w3.org/2000/svg">
<path fill-rule="evenodd" clip-rule="evenodd" d="M2.66663 4C2.66663 2.93913 3.08805 1.92172 3.8382 1.17157C4.58834 0.421427 5.60576 0 6.66663 0L28.552 0L37.3333 8.78133V36C37.3333 37.0609 36.9119 38.0783 36.1617 38.8284C35.4116 39.5786 34.3942 40 33.3333 40H6.66663C5.60576 40 4.58834 39.5786 3.8382 38.8284C3.08805 38.0783 2.66663 37.0609 2.66663 36V4ZM18.6666 10.6667H10.6666V13.3333H18.6666V10.6667ZM29.3333 18.6667H10.6666V21.3333H29.3333V18.6667ZM16.8133 29.088C15.736 29.376 14.8933 30.2 14.6 31.088L12.0666 30.2453C12.6613 28.4667 14.2186 27.024 16.12 26.512C18.0053 26.0053 20.1573 26.432 22.0186 28.1413C22.5786 27.9796 23.1315 27.8844 23.6773 27.856C25.1173 27.7787 26.4053 28.1413 27.512 28.6027C28.3253 28.9413 29.112 29.368 29.7786 29.728C29.9884 29.8453 30.1857 29.952 30.3706 30.048C31.232 30.5013 31.704 30.6667 32 30.6667V33.3333C30.96 33.3333 29.936 32.832 29.1306 32.4107L28.4053 32.0213C27.7818 31.6702 27.1409 31.3507 26.4853 31.064C25.5946 30.6907 24.7173 30.472 23.8213 30.52C23.6875 30.5274 23.5541 30.5399 23.4213 30.5573L23.424 30.5947C23.496 31.4587 23.1386 32.1707 22.6773 32.6827C21.8293 33.6267 20.4453 34.1227 19.4053 34.3093C18.8662 34.4158 18.3139 34.4383 17.768 34.376C17.4583 34.3364 17.1594 34.2367 16.888 34.0827C16.6765 33.9616 16.4945 33.7953 16.3548 33.5957C16.2151 33.3961 16.1212 33.1681 16.08 32.928C16.0152 32.4793 16.1208 32.0227 16.376 31.648C16.5702 31.3641 16.8057 31.1106 17.0746 30.896C17.5813 30.4773 18.3146 30.024 19.2986 29.528L19.3706 29.4747C18.9925 29.2399 18.5705 29.0845 18.1304 29.0181C17.6903 28.9516 17.2439 28.9754 16.8133 29.088Z" fill="#5E9ED5"/>
</svg>
