<svg width="50" height="50" viewBox="0 0 50 50" fill="none" xmlns="http://www.w3.org/2000/svg">
<path d="M50 33.5938C50 38.3398 47.3648 42.1875 42.1875 42.1875H7.8125C2.63516 42.1875 0 38.3398 0 33.5938V16.4062C0 11.6602 2.63516 7.8125 7.8125 7.8125H42.1875C47.3648 7.8125 50 11.6602 50 16.4062V33.5938Z" fill="#137A08"/>
<path fill-rule="evenodd" clip-rule="evenodd" d="M23.9 24.4688C23.8445 23.693 23.9687 23.4985 24.857 22.9836C24.6047 22.7539 24.3 22.7008 23.9875 22.6766C23.6133 22.6485 23.2398 22.636 22.8695 22.6008C22.6789 22.5844 22.6429 22.5094 22.6789 22.3211C22.7789 21.8055 23.0461 21.4477 23.5711 21.2844C24.082 21.1242 24.5812 20.9258 25.1 20.7375C25.0823 20.6933 25.0633 20.6487 25.0429 20.6039C24.9845 20.4935 24.9523 20.371 24.949 20.2461C24.9456 20.1211 24.9711 19.9971 25.0234 19.8836C25.0648 19.7946 25.1109 19.7055 25.1625 19.6235C25.4828 19.1117 25.7937 19.0172 26.3383 19.2735C26.5101 19.3547 26.6773 19.4524 26.8265 19.5688C27.2594 19.9055 27.2984 20.3805 26.9117 20.7735C26.75 20.9336 26.5312 21.0438 26.3367 21.1758C26.225 21.2492 26.0453 21.2289 26.0062 21.4102C26.0039 21.4242 25.9383 21.4258 25.9023 21.4321C25.8047 21.4375 25.6976 21.4172 25.6101 21.4516C25.1922 21.6063 24.7804 21.7735 24.3687 21.9422C24.3047 21.9656 24.2492 22.0086 24.1875 22.0422L24.1984 22.0938C24.5672 22.0938 24.9406 22.0992 25.3086 22.0914C26.1344 22.0703 26.9617 22.0438 27.7875 22.018C28.0562 22.0117 28.0883 22.0617 28.0078 22.3188C27.9888 22.3738 27.9711 22.4293 27.9547 22.4852C27.875 22.775 27.6781 22.9047 27.3867 22.9492C26.5023 23.0758 25.657 23.3571 24.8265 23.6867C24.6359 23.7649 24.439 23.8703 24.4297 24.1024C24.4226 24.3297 24.5898 24.4727 24.7726 24.5727C24.9578 24.6719 25.1547 24.7438 25.3476 24.8196C25.5679 24.9024 25.6078 24.9672 25.5508 25.1891C25.4258 25.6531 25.4133 25.6805 24.9148 25.6274C23.9179 25.5196 23.0484 25.1578 22.4609 24.2899C22.3422 24.1133 22.2523 23.9149 22.1344 23.7016C22.0867 23.7625 22.0398 23.818 21.9929 23.8766C21.6179 24.3914 21.2117 24.8789 20.6945 25.2649C20.3219 25.5453 19.9273 25.7649 19.4351 25.7539C18.8547 25.7399 18.4922 25.4446 18.3804 24.8696C18.3659 24.7982 18.351 24.7289 18.3359 24.6617C17.7937 24.8625 17.2609 25.0617 16.7289 25.2508C16.4685 25.3409 16.2054 25.4219 15.9398 25.4938C15.8469 25.5196 15.7453 25.5102 15.6476 25.5156C15.6357 25.4927 15.6255 25.4688 15.6172 25.4438C15.6906 25.3922 15.7609 25.3336 15.8383 25.2891C16.6273 24.8305 17.4086 24.3711 18.1976 23.9156C18.3203 23.8446 18.3765 23.7446 18.4179 23.6133C18.5398 23.261 18.6758 22.9149 18.8109 22.5664C18.8359 22.5008 18.882 22.4477 18.9445 22.3461C19.0961 22.6789 18.9515 22.9899 19.0265 23.3C19.0726 23.2758 19.1179 23.2531 19.1523 23.2235C19.4422 22.9844 19.7359 22.7531 20.0117 22.5008C20.3961 22.1469 20.4531 21.8508 20.2469 21.3727C20.1297 21.1086 19.9984 20.8516 19.8664 20.5953C19.8406 20.5434 19.799 20.501 19.7476 20.4742C19.5906 20.3828 19.5429 20.2516 19.6015 20.0906C19.6698 19.9136 19.7482 19.742 19.8367 19.5758C19.9047 19.45 20.0226 19.4321 20.1133 19.5375C20.3153 19.7693 20.5049 20.0094 20.682 20.2578C20.7867 20.4047 20.7289 20.5188 20.5711 20.5672C20.6508 20.8844 20.7406 21.1938 20.8039 21.5071C20.925 22.1321 20.7328 22.6688 20.3148 23.1367C19.925 23.575 19.4945 23.9649 18.9859 24.2664C18.9234 24.3024 18.8734 24.4078 18.8765 24.4836C18.8781 24.6547 18.95 24.8289 19.1281 24.861C19.3359 24.8985 19.564 24.9172 19.7633 24.8696C20.2398 24.761 20.6211 24.4625 20.9359 24.1071C21.2508 23.7446 21.5156 23.3352 21.8008 22.9477C21.8859 22.8305 21.889 22.7141 21.8469 22.575C21.5836 21.761 21.3312 20.9399 21.0711 20.1266C20.9453 19.7336 21.075 19.2102 21.3734 18.9821C21.4242 19.0664 21.4734 19.1446 21.5164 19.2297C22.0523 20.3289 22.3726 21.4899 22.5312 22.7008C22.5875 23.1508 22.6726 23.5992 22.9937 23.9563C23.2344 24.2258 23.5476 24.3781 23.9 24.4688ZM26.3523 20.3992C26.3539 20.38 26.3544 20.3612 26.3539 20.343C26.1273 20.2414 25.9476 20.036 25.6273 20.036C25.6508 20.2196 25.6711 20.3797 25.6914 20.5703L26.3523 20.3992ZM33.1328 34.811C32.7203 34.811 32.3547 34.8047 31.9867 34.8149C31.232 34.8313 30.4804 34.8672 29.7218 34.8727C25.4734 34.9047 21.2211 34.9328 16.9703 34.9485C16.1929 34.95 15.4117 34.8969 14.6547 34.6813C14.2992 34.5797 13.9664 34.4258 13.7031 34.15C13.6406 34.0844 13.5875 34.0016 13.4984 33.886H13.8383C18.5101 33.9156 23.182 33.9539 27.8523 33.975C29.5258 33.9852 31.1961 33.9649 32.8695 33.9539C32.9367 33.9539 33.0562 33.9321 33.0594 33.9094C33.0719 33.8242 33.075 33.7063 33.0242 33.6531C32.7937 33.3977 32.9242 33.1891 33.1039 32.975C33.1765 32.8891 33.2531 32.8758 33.3336 32.9703C33.5539 33.2352 33.6195 33.3727 33.4226 33.625C33.3672 33.6969 33.3711 33.8156 33.3414 33.9321C33.4281 33.9391 33.4797 33.9492 33.5281 33.9477C34.325 33.9336 35.1148 33.9164 35.9101 33.9C36.0612 33.9 36.212 33.9094 36.3625 33.9282C36.7218 33.9696 36.9125 34.1446 36.9906 34.5024C37.0578 34.8016 37.0578 35.1039 36.9422 35.3938C36.7875 35.786 36.4304 35.8656 36.1125 35.5867C36.0572 35.5459 35.9913 35.5217 35.9226 35.5172C35.7195 35.511 35.5156 35.5172 35.3125 35.5188C35.1617 35.5211 35.0117 35.4977 34.9015 35.668C34.8297 35.7781 34.6984 35.7321 34.5851 35.6602C34.5035 35.6053 34.4101 35.5706 34.3125 35.5586C34.1492 35.5446 33.9836 35.5664 33.8211 35.5555C33.6297 35.5461 33.475 35.5781 33.389 35.7774C33.3406 35.8844 33.2531 35.8805 33.1664 35.7985C32.9312 35.5867 32.9117 35.4149 33.0687 35.1344C33.1148 35.0508 33.1086 34.9406 33.1328 34.811ZM35.925 35.2407L35.9726 34.7367C35.9336 34.7328 35.9015 34.7203 35.8719 34.7203C35.1062 34.7399 34.3414 34.7563 33.5742 34.7789C33.3953 34.7844 33.3273 34.9086 33.4156 35.0703C33.4929 35.2078 33.5851 35.3203 33.7859 35.2844C33.9648 35.2555 34.1515 35.2781 34.3328 35.261C34.4167 35.2517 34.4954 35.2155 34.557 35.1578C34.6804 35.0406 34.7969 35.0438 34.9234 35.1383C34.975 35.1797 35.0289 35.2336 35.082 35.236C35.3609 35.2485 35.6429 35.2407 35.925 35.2407Z" fill="white"/>
<path fill-rule="evenodd" clip-rule="evenodd" d="M14.9531 21.5461C14.7422 21.6086 14.532 21.6711 14.3219 21.7407C14.1055 21.8078 13.9039 21.7571 13.7156 21.6602C13.6547 21.6329 13.5867 21.5625 13.5781 21.5071C13.5062 20.9805 13.4766 20.461 13.8602 20.0141C14.1273 19.6993 14.3961 19.6453 14.7 19.9243C14.9328 20.1336 15.1234 20.3883 15.35 20.6422C15.4219 20.6008 15.5352 20.5485 15.6344 20.4774C15.6565 20.4575 15.6744 20.4334 15.6869 20.4064C15.6994 20.3794 15.7062 20.3501 15.707 20.3204C15.6508 19.6563 15.5875 18.9875 15.5234 18.3219C15.451 17.5735 15.3771 16.8243 15.3016 16.0743C15.2973 16.0227 15.2878 15.9716 15.2734 15.9219C15.1758 15.6227 15.3453 15.2368 15.6461 15.1157C15.6836 15.0993 15.7836 15.1438 15.8047 15.1852C15.8766 15.3328 15.9258 15.4899 15.982 15.6438C16.0862 15.9266 16.1891 16.2097 16.2906 16.493C16.3195 16.5655 16.3375 16.6418 16.3437 16.7196C16.3656 16.9907 16.2586 17.0758 15.9992 17.0055C16.068 18.0274 16.1414 19.0469 16.2172 20.1055C16.3344 20.0102 16.4164 19.9289 16.5094 19.8649C16.5711 19.8227 16.6469 19.8032 16.7164 19.7727C16.7469 19.8493 16.7945 19.9203 16.8016 19.9961C16.8203 20.1282 16.7859 20.2688 16.8258 20.3883C16.8695 20.5133 16.9484 20.6782 17.0523 20.718C17.1539 20.7563 17.3594 20.6969 17.4281 20.6086C17.5977 20.4 17.7187 20.1516 17.8523 19.9141C17.8859 19.8539 17.907 19.7883 17.9336 19.7258H17.9945C18.0203 19.8563 18.0367 19.9946 18.0773 20.1211C18.1258 20.268 18.1734 20.4282 18.2625 20.5446C18.4156 20.7438 18.6289 20.6961 18.682 20.4594C18.7141 20.311 18.7 20.1469 18.6766 19.9985C18.6461 19.8313 18.7125 19.6696 18.8758 19.6391C18.9211 19.6321 19.0125 19.6875 19.0258 19.7313C19.1359 20.1422 19.1273 20.5555 18.9562 20.9453C18.8187 21.2516 18.2742 21.2711 17.9953 20.9985C17.9445 20.9493 17.8984 20.8883 17.8328 20.8172C17.6203 21.036 17.4008 21.2336 17.0789 21.2633C16.7586 21.2922 16.4992 21.2078 16.3227 20.8875C16.3008 20.9547 16.2789 20.9883 16.2789 21.0227C16.2922 21.3649 16.3102 21.7055 16.3227 22.0461C16.3469 22.6586 16.3125 23.2633 16.0641 23.8391C15.8627 24.3084 15.5007 24.6906 15.043 24.9172C14.2937 25.2985 13.5031 25.5461 12.6531 25.55C12.5047 25.55 12.3508 25.5243 12.2062 25.4946C11.6406 25.3774 11.357 24.9899 11.2172 24.4633C10.9977 23.6407 11.0492 22.8313 11.325 22.0289C11.3484 21.961 11.393 21.8977 11.4266 21.8336C11.4457 21.8404 11.4657 21.8446 11.4859 21.8461C11.4859 22.0625 11.5102 22.2821 11.4836 22.4914C11.4141 23.0039 11.4352 23.4993 11.6156 23.9829C11.7805 24.4313 12.1164 24.6828 12.5937 24.711C13.5227 24.7641 14.3164 24.4102 15.0547 23.8813C15.5656 23.5149 15.7687 23.0118 15.7687 22.4063C15.7664 22.0125 15.7687 21.6172 15.7687 21.1969C15.6211 21.2602 15.45 21.2649 15.4742 21.475C15.5992 22.6297 14.9461 23.2969 14.0203 23.7844C13.7703 23.918 13.4945 24.0297 13.2164 24.0852C12.5047 24.2282 11.8656 23.7469 11.7562 23.0274C11.6789 22.5125 11.7648 22.011 11.8914 21.5133C11.9133 21.4336 11.975 21.3649 12.0172 21.2883C12.0336 21.296 12.051 21.3018 12.0687 21.3055C12.0687 21.4055 12.0781 21.5047 12.0687 21.6024C12.0312 21.9985 12.0289 22.3914 12.1953 22.7625C12.4164 23.2633 12.775 23.4227 13.2937 23.2516C13.9383 23.0391 14.4352 22.6164 14.8531 22.1008C14.9609 21.9657 14.9687 21.7579 15.0227 21.5821C15.0031 21.5688 14.9766 21.5571 14.9531 21.5461ZM14.7187 20.9008C14.625 20.7868 14.5727 20.686 14.4922 20.6321C14.4023 20.5711 14.2828 20.5508 14.1797 20.5133C14.1539 20.6211 14.0984 20.7336 14.1156 20.836C14.1227 20.8993 14.2367 20.9875 14.3062 20.993C14.4305 20.9969 14.5547 20.9414 14.7187 20.9008ZM37.1258 19.2188C37.1469 19.6633 37.1727 20.1055 37.193 20.5508C37.2289 21.2922 37.2844 22.0313 37.282 22.7711C37.2774 23.072 37.2034 23.3677 37.0656 23.6352C36.7289 24.2891 36.1367 24.3743 35.5031 23.9805C35.3078 23.861 35.1586 23.6625 35.0086 23.4805C34.9219 23.3805 34.8578 23.3539 34.7805 23.4594C34.6669 23.6105 34.5625 23.7684 34.468 23.9321C34.2258 24.368 33.9961 24.811 33.7562 25.2477C33.7074 25.3403 33.6405 25.4221 33.5594 25.4883C33.4875 25.5414 33.3766 25.586 33.2937 25.575C32.8773 25.5079 32.2797 24.8313 32.2859 24.4055C32.2883 24.0422 32.3352 23.6758 32.3898 23.3141C32.4234 23.0789 32.4992 22.8524 32.557 22.6211L32.6406 22.6266C32.6562 22.7407 32.6875 22.8547 32.6875 22.9696C32.682 23.468 32.7195 23.95 32.9227 24.4125C32.9484 24.4657 32.9711 24.5219 33.0031 24.5711C33.1555 24.8118 33.3508 24.8203 33.5125 24.5836C33.5984 24.4539 33.6625 24.3094 33.7406 24.1719C34.0273 23.6649 34.3039 23.1485 34.6055 22.6524C34.7992 22.3297 34.9891 22.3297 35.2437 22.6164C35.4094 22.8071 35.5562 23.0235 35.7398 23.1946C36.0164 23.4508 36.4062 23.3563 36.5359 23.0024C36.607 22.7954 36.6586 22.5664 36.65 22.3493C36.6133 21.2977 36.5578 20.2407 36.5039 19.1891C36.4898 18.9594 36.4555 18.7282 36.4578 18.5C36.4643 18.297 36.3931 18.0992 36.2586 17.9469C35.8711 17.468 35.4984 16.9758 35.1109 16.4969C34.9133 16.2563 34.7906 16.0118 34.8359 15.6914C34.8602 15.543 34.832 15.3868 34.8437 15.2375C34.85 15.1727 34.8773 15.0774 34.9234 15.0547C34.9703 15.0336 35.0695 15.0672 35.1125 15.1094C35.4146 15.3917 35.7104 15.6797 36 15.9735C36.125 16.0985 36.1016 16.175 35.9172 16.2938C36.0312 16.4633 36.1477 16.6305 36.2594 16.7961L36.3195 16.7852C36.2836 16.5125 36.2914 16.2243 36.2023 15.9758C36.0625 15.5938 36.2078 15.311 36.4172 15.0329C36.5266 14.8868 36.6133 14.9828 36.6594 15.1C36.7766 15.3993 36.8867 15.6969 36.9937 16.0016C37.0602 16.1868 37.1133 16.3789 37.1812 16.6C37.0711 16.593 37.0133 16.586 36.9602 16.5813C36.9586 16.5954 36.95 16.6047 36.95 16.6172C36.9742 17.0102 36.9961 17.4063 37.0242 17.7969C37.0281 17.8414 37.032 17.8907 37.0578 17.9266C37.3266 18.3086 37.6047 18.6907 37.9109 19.0578C37.868 18.7735 37.8148 18.4852 37.7859 18.1985C37.7031 17.4227 37.6531 16.643 37.5445 15.8719C37.4992 15.5422 37.5687 15.2813 37.7594 15.0329C37.9086 14.8399 38.0328 14.8438 38.1055 15.0735C38.2547 15.5461 38.3852 16.0282 38.5078 16.5118C38.5531 16.6868 38.4758 16.7539 38.2766 16.7618C38.3198 17.3847 38.3656 18.0052 38.4141 18.6235C38.4461 19.0188 38.4758 19.4125 38.5211 19.8016C38.5359 19.911 38.5719 20.0313 38.6336 20.1258C39.0039 20.6899 39.3898 21.2469 39.757 21.811C39.9984 22.1828 40.1258 22.5914 40.0937 23.0399C40.0898 23.1016 40.0773 23.161 40.0656 23.2829C39.5805 22.5711 39.1305 21.9141 38.682 21.2539C38.6289 21.9594 38.8023 22.6649 38.4609 23.3149C38.4398 23.3149 38.4148 23.3149 38.3937 23.3164C38.3812 23.2196 38.3531 23.1243 38.3578 23.0243C38.3891 22.2508 38.3297 21.4789 38.1891 20.7188C38.1781 20.6672 38.1711 20.6094 38.1398 20.5704C37.8219 20.1141 37.4977 19.6633 37.175 19.2094C37.1583 19.212 37.1414 19.2151 37.1258 19.2188Z" fill="white"/>
<path fill-rule="evenodd" clip-rule="evenodd" d="M13.0594 15.6227C13.4063 15.8875 13.5648 16.2008 13.5258 16.5836C13.4742 17.061 13.5859 17.5086 13.7102 17.9571C13.8016 18.2805 13.9969 18.4141 14.3117 18.4235C14.5703 18.4274 14.6734 18.3242 14.6188 18.0742C14.5227 17.6547 14.4055 17.2391 14.2969 16.8235C14.2757 16.7398 14.2439 16.6592 14.2023 16.5836C14.0297 16.2688 14.1195 16.0149 14.3641 15.7828C14.468 15.6828 14.5586 15.6703 14.6453 15.7758C14.7789 15.9375 14.9195 16.0977 15.0219 16.2797C15.1508 16.4985 15.1109 16.5938 14.882 16.7235C14.9563 17.0446 15.0594 17.3657 15.0945 17.6938C15.1305 17.9922 15.1367 18.311 15.0773 18.6047C14.9883 19.0344 14.3938 19.3555 13.9773 19.2555C13.7328 19.1938 13.5859 19.0305 13.4922 18.8078C13.4523 18.7133 13.4203 18.6133 13.3727 18.4836C13.3172 18.5594 13.2734 18.6047 13.2391 18.6571C13.1695 18.7586 13.1258 18.8899 13.0344 18.9649C12.7992 19.1547 12.8352 19.3922 12.8555 19.6414C12.9047 20.3227 12.9547 21.0024 12.9828 21.6836C12.9945 21.9594 12.925 22.2242 12.6844 22.4344C12.6391 21.95 12.5953 21.4688 12.5445 20.9852C12.4938 20.4969 12.4359 20.0078 12.3781 19.5086C12.3492 19.5024 12.3227 19.4899 12.2906 19.4875C11.7695 19.4352 11.4594 19.168 11.3211 18.6586C11.2102 18.2516 11.2266 17.8399 11.268 17.4305C11.2844 17.2586 11.2906 17.0883 11.3039 16.9149C11.2719 16.9102 11.2453 16.9024 11.2148 16.8985C11.1383 17.175 11.0578 17.4516 10.9906 17.7313C10.8906 18.1258 10.8117 18.5219 10.7117 18.9141C10.6807 19.0067 10.6306 19.0919 10.5648 19.1641C10.3656 19.4211 10.1195 19.4164 9.97188 19.1297C9.84051 18.8738 9.7378 18.6042 9.66563 18.3258C9.49283 17.7309 9.48177 17.1006 9.6336 16.5C9.65078 16.425 9.69375 16.3531 9.72266 16.2797C9.74063 16.2813 9.76094 16.286 9.78203 16.286C9.78985 16.3703 9.8 16.4594 9.8086 16.5446C9.85938 17.0235 9.89766 17.5071 9.97266 17.9867C9.99688 18.1539 10.0883 18.3196 10.1828 18.4641C10.2805 18.6196 10.418 18.6078 10.4734 18.4383C10.5563 18.1696 10.6219 17.8938 10.6563 17.618C10.7125 17.1071 10.8484 16.6282 11.1289 16.1961C11.2086 16.0789 11.3063 15.9633 11.4211 15.8867C11.6188 15.7571 11.825 15.8625 11.8172 16.0953C11.8077 16.3363 11.7729 16.5757 11.7133 16.8094C11.5828 17.2977 11.5953 17.7696 11.825 18.2242C11.9406 18.4391 12.0602 18.5157 12.307 18.5352C12.2922 18.325 12.2891 18.1172 12.2625 17.9117C12.193 17.3102 12.1164 16.7055 12.0359 16.1039C12.0105 15.9324 11.9737 15.7628 11.9258 15.5961C11.8883 15.436 12.0094 15.0914 12.1555 15.0235C12.1984 15.0024 12.3078 15.0344 12.3297 15.0742C12.4789 15.3625 12.6273 15.6547 12.7477 15.9571C12.7757 16.0248 12.7803 16.1 12.7606 16.1707C12.7409 16.2414 12.6981 16.3034 12.6391 16.3469C12.6047 16.3719 12.5844 16.4336 12.5867 16.4805C12.6445 17.1188 12.7086 17.7594 12.7695 18.3953C12.7711 18.4078 12.7836 18.4156 12.793 18.425C13.0539 18.2578 13.2047 17.911 13.15 17.6227C13.0711 17.2305 12.9883 16.8414 12.9203 16.4461C12.8711 16.1742 12.9422 15.918 13.0594 15.6227ZM19.9617 15.7735C19.9555 15.8375 19.9523 15.8985 19.9406 15.9578C19.8539 16.4266 19.8359 16.8992 19.9352 17.3672C19.9773 17.5633 20.0766 17.7586 20.182 17.9344C20.2305 18.0141 20.357 18.0953 20.4438 18.0906C20.5141 18.0867 20.6078 17.9696 20.6438 17.8821C20.8445 17.4367 21.0188 16.9766 21.232 16.5328C21.3641 16.2563 21.5313 15.9922 21.707 15.7422C21.7711 15.6539 21.9344 15.5375 22.0063 15.5656C22.1633 15.6211 22.232 15.7883 22.2094 15.9727C22.182 16.1797 22.1328 16.3867 22.1242 16.5938C22.1078 17.0196 22.0859 17.4469 22.1078 17.8719C22.1289 18.3289 22.4742 18.5219 22.9016 18.3383C23.5492 18.0617 23.7133 17.6571 23.6695 17.0055C23.6375 16.5086 23.5141 16.0117 23.4227 15.518C23.368 15.1961 23.5734 14.9867 23.7172 14.7086C23.9523 14.9828 24.018 15.2781 24.0578 15.5711C24.1281 16.0571 24.1555 16.5485 24.2297 17.036C24.2828 17.3938 24.4047 17.7352 24.6453 18.0203C24.7508 18.1461 24.8734 18.2477 25.0516 18.1899C25.2352 18.1344 25.2922 17.9789 25.3078 17.8063C25.3477 17.3625 25.2547 16.9328 25.1234 16.5133C25.0412 16.2511 24.9522 15.9911 24.8563 15.7336C24.8031 15.5938 24.8164 15.4852 24.918 15.3758C24.9938 15.2946 25.0391 15.1883 25.0969 15.0938C25.1984 14.9156 25.2625 14.9 25.4195 15.0211C25.7266 15.2625 25.9102 15.5844 26.0102 15.9524C26.0266 16.0133 25.9867 16.0953 25.9719 16.1641C25.9047 16.1508 25.8352 16.1453 25.775 16.1188C25.7156 16.0946 25.6656 16.0492 25.5766 15.9891C25.6516 16.2797 25.7195 16.525 25.775 16.7781C25.8594 17.1821 25.9187 17.5922 25.7992 18.0016C25.7812 18.0711 25.7656 18.1414 25.7414 18.211C25.475 18.925 24.8992 19.0703 24.325 18.5688C24.2023 18.461 24.0758 18.3594 23.9703 18.2719C23.7688 18.461 23.5375 18.6883 23.293 18.8969C23.2039 18.9774 23.0813 19.0242 22.9648 19.0703C22.4398 19.2797 21.9758 19.075 21.7734 18.55C21.6063 18.1274 21.6359 17.686 21.6641 17.2461C21.6695 17.1461 21.6641 17.043 21.6641 16.9414L21.5984 16.925C21.5523 17.0172 21.4984 17.1078 21.4633 17.2071C21.3156 17.5992 21.1844 17.9977 21.0328 18.3891C20.8164 18.9531 20.4859 18.9938 20.1055 18.525C19.443 17.6985 19.4727 16.8024 19.8344 15.8742C19.8508 15.8352 19.8828 15.7985 19.9063 15.7625C19.9237 15.7706 19.9425 15.7754 19.9617 15.7766M28.0273 17.211C27.9906 16.8407 28.0133 16.4469 27.8945 16.1078C27.8469 15.9807 27.8256 15.8451 27.8321 15.7094C27.8385 15.5738 27.8725 15.4409 27.932 15.3188C27.9711 15.2414 28.0578 15.1399 28.1273 15.1352C28.1969 15.1305 28.3062 15.2196 28.3383 15.2938C28.5359 15.7656 28.7266 16.2367 28.8945 16.7203C28.9781 16.9649 28.9 17.05 28.6523 17.0297C28.6719 17.4696 28.6883 17.9071 28.7187 18.343C28.7203 18.4024 28.7734 18.4602 28.8055 18.5188C29.3711 19.4774 29.9516 20.4289 30.4969 21.3992C30.768 21.8766 30.9781 22.3907 31.0562 22.9453C31.0727 23.0563 31.0695 23.1735 31.0734 23.2883C31.0528 23.2999 31.0317 23.3106 31.0102 23.3203C30.9617 23.2563 30.9023 23.1977 30.8703 23.1258C30.3508 21.8961 29.6375 20.7742 28.9273 19.6461C28.8914 19.593 28.8547 19.543 28.7852 19.4453C28.8211 19.8813 28.8547 20.2649 28.8852 20.6446C28.9547 21.486 29.1195 22.3235 29.0188 23.1703C28.9688 23.5711 28.8453 23.961 28.7414 24.3508C28.7203 24.4446 28.6469 24.5258 28.5945 24.6102C28.5664 24.6031 28.5352 24.5992 28.5094 24.593C28.5094 24.4922 28.4898 24.3867 28.5133 24.2891C28.7078 23.5336 28.6383 22.7672 28.5508 22.0055C28.4375 20.9961 28.2984 19.9907 28.1859 18.9821C28.1414 18.5914 28.0539 18.236 27.7969 17.9196C27.4195 17.4461 27.0891 16.943 26.725 16.4594C26.6172 16.318 26.4648 16.2102 26.3484 16.075C26.2813 16.0016 26.2133 15.9039 26.2016 15.8133C26.1773 15.5717 26.1693 15.3287 26.1773 15.086C26.1773 15.018 26.2164 14.9196 26.2656 14.8914C26.3172 14.868 26.4242 14.893 26.4742 14.9375C26.8596 15.2844 27.2375 15.6386 27.6078 16C27.6719 16.061 27.6805 16.1805 27.7148 16.2766C27.6125 16.2977 27.5133 16.3227 27.3961 16.3492C27.5867 16.6281 27.7859 16.9274 27.9914 17.2258C28.0018 17.219 28.0138 17.2133 28.0273 17.2086M40.5352 16.5078C40.575 16.9992 40.6156 17.5078 40.6586 18.0133C40.7437 19.0149 40.8344 20.0117 40.9211 21.0117C40.9917 21.7104 40.9638 22.4154 40.8383 23.1063C40.657 24.0617 40.2453 24.8633 39.2867 25.2516C39.0063 25.3656 38.7 25.425 38.4016 25.5016C38.3195 25.5196 38.2281 25.5032 38.1406 25.5032C38.1328 25.4797 38.1211 25.4602 38.1141 25.4375C38.2008 25.3563 38.2797 25.268 38.3719 25.1969C38.6852 24.9563 39.0102 24.7375 39.3164 24.4906C40.05 23.8922 40.3969 23.1078 40.3469 22.175C40.2941 21.2128 40.2198 20.2519 40.1242 19.293C40.0305 18.3164 39.9117 17.3414 39.7977 16.3664C39.768 16.1125 39.7258 15.861 39.6883 15.6086C39.6578 15.4258 39.8875 14.9617 40.0547 14.9094C40.0945 14.8985 40.1922 14.9492 40.2133 14.9969C40.4164 15.4227 40.6086 15.8508 40.7984 16.2828C40.8219 16.3492 40.8062 16.4297 40.8102 16.5078H40.5352Z" fill="white"/>
<path fill-rule="evenodd" clip-rule="evenodd" d="M28.8281 25.6625C28.9336 25.6102 29.0344 25.5383 29.143 25.5086C29.8703 25.3102 30.3813 24.8211 30.8742 24.293C31.3242 23.8118 31.4492 23.2422 31.3992 22.6039C31.3406 21.8149 31.3164 21.0204 31.2508 20.2313C31.1695 19.25 31.0602 18.2758 30.9563 17.2985C30.9198 16.9538 30.8742 16.6102 30.8195 16.268C30.8058 16.1643 30.7818 16.0622 30.7477 15.9633C30.6898 15.7711 30.7156 15.6055 30.8617 15.4586C31.0008 15.3297 31.1289 15.1922 31.2836 15.0329C31.3367 15.1196 31.3984 15.1836 31.4219 15.2555C31.5445 15.6672 31.6664 16.0836 31.7766 16.5008C31.8352 16.7172 31.782 16.7602 31.5258 16.711C31.5258 16.9227 31.5109 17.1305 31.5273 17.3352C31.6445 19.0133 31.9016 20.6829 31.8812 22.3719C31.8727 23.0032 31.8648 23.636 31.5742 24.2164C31.3117 24.7391 30.9164 25.161 30.4484 25.511C30.3223 25.6034 30.1766 25.6654 30.0227 25.6922C29.7055 25.7414 29.3852 25.7602 29.0656 25.7829C28.9922 25.7868 28.9164 25.7532 28.8422 25.7391C28.8388 25.7134 28.8341 25.6878 28.8281 25.6625ZM32.9922 16.8758C33.0289 17.2688 33.0563 17.6266 33.0984 17.9868C33.2078 18.9628 33.3219 19.9378 33.4406 20.9118C33.4977 21.3844 33.5828 21.8563 33.6484 22.3289C33.7297 22.9289 33.6078 23.4907 33.3297 24.018C33.2805 24.1118 33.1883 24.1797 33.1156 24.2586C33.093 24.2547 33.0711 24.2469 33.05 24.2438C33.0305 24.1594 32.9859 24.0696 33.0039 23.9985C33.1727 23.3039 33.0602 22.6172 32.968 21.9282C32.8359 20.9829 32.7273 20.0321 32.5938 19.0875C32.4531 18.1086 32.3109 17.1297 32.1477 16.1547C32.0781 15.7297 32.1523 15.3657 32.418 15.0321C32.5656 14.8469 32.6922 14.8571 32.7828 15.0704C32.8703 15.2774 32.9258 15.4891 33.0117 15.6961C33.1313 15.9875 33.2727 16.2672 33.3914 16.5586C33.4359 16.6664 33.4398 16.7899 33.4609 16.9024C33.35 16.9079 33.2367 16.9149 33.1242 16.9149C33.093 16.9141 33.0641 16.8985 32.9922 16.8758ZM16.8617 17.8414C16.9445 17.7719 17.0305 17.6954 17.1156 17.6266C17.4797 17.3282 17.8492 17.036 18.2078 16.7282C18.3469 16.6063 18.4539 16.4454 18.5766 16.3086C18.2836 15.8719 18.3133 15.4047 18.6422 15.1243C18.7836 15.0039 18.9398 14.936 19.1289 15.0219C19.3094 15.1102 19.3617 15.2704 19.3414 15.4508C19.3242 15.618 19.2719 15.7836 19.2422 15.9454C19.2211 16.0625 19.2273 16.1852 19.1961 16.2977C19.1662 16.3749 19.1192 16.4444 19.0586 16.5008C18.9883 16.5704 18.8812 16.611 18.8219 16.686C18.3656 17.2649 17.7617 17.6289 17.0828 17.8852C17.0273 17.9055 16.9617 17.9032 16.8992 17.911C16.8878 17.8886 16.8753 17.8654 16.8617 17.8414ZM18.9359 15.5055C18.9023 15.5 18.8688 15.4891 18.8367 15.4844C18.8156 15.5938 18.7906 15.7047 18.7711 15.8133L18.8523 15.8282C18.8828 15.7188 18.9063 15.6133 18.9359 15.5055ZM10.2961 22.636C10.3641 22.9125 10.3625 23.1446 10.3047 23.3938C10.2352 23.6985 10.2031 24.011 10.1609 24.3196C10.1547 24.368 10.1609 24.4289 10.1867 24.4704C10.2383 24.5539 10.2906 24.6633 10.368 24.6969C10.4141 24.7157 10.5172 24.6063 10.5844 24.5485C10.6242 24.5133 10.6437 24.4493 10.6883 24.4305C10.7234 24.4172 10.807 24.4336 10.818 24.4625C10.9234 24.6938 10.7281 25.1914 10.4945 25.3024C10.2453 25.4211 9.97812 25.3188 9.91797 25.0227C9.85391 24.7258 9.80703 24.4016 9.85391 24.1071C9.92891 23.6469 10.0836 23.2 10.2086 22.7469C10.2188 22.7133 10.2547 22.6891 10.2961 22.636ZM34.9508 19.3875L34.4477 18.5032C34.1664 18.6422 34.1008 18.6032 34.1148 18.3188C34.1195 18.2469 34.0953 18.1696 34.1125 18.1047C34.1344 18.0321 34.1766 17.9329 34.2352 17.9094C34.2914 17.8914 34.4094 17.9391 34.4453 17.9922C34.5578 18.1672 34.6445 18.3579 34.7414 18.5438C34.782 18.6211 34.8195 18.7063 34.8992 18.7805C34.8992 18.6368 34.8969 18.4985 34.8992 18.3539C34.9047 18.175 34.8867 17.986 34.9344 17.8164C34.9664 17.7055 35.0875 17.6118 35.1828 17.5329C35.2141 17.5047 35.3297 17.5188 35.3492 17.5493C35.4219 17.6579 35.4883 17.7766 35.5172 17.9C35.543 18.0016 35.4898 18.093 35.3617 18.0258C35.1758 17.9321 35.1156 18.0297 35.1102 18.1844C35.0984 18.475 35.1039 18.761 35.0922 19.05C35.0906 19.1555 35.0547 19.2618 35.0328 19.3719C35.0047 19.3787 34.9773 19.3839 34.9508 19.3875ZM9.79297 21.5414C10.0695 21.1 10.4375 20.7602 10.8797 20.5055C11.1602 20.3438 11.4648 20.2227 11.7672 20.0938C11.8563 20.0539 11.9781 19.9664 12.0383 20.143C12.1 20.3196 12.0477 20.4516 11.8922 20.5141C11.6977 20.5899 11.4898 20.6391 11.3055 20.7344C10.8352 20.9743 10.375 21.2321 9.90938 21.4844C9.87135 21.5052 9.83255 21.5243 9.79297 21.5414ZM27.9781 24.8336C27.6562 25.1102 27.3594 25.4289 26.9 25.4883C26.6 25.5289 26.4422 25.3414 26.5102 25.0454C26.5344 24.9414 26.5547 24.836 26.5836 24.7086C26.432 24.7321 26.3148 24.7532 26.1844 24.7766C26.25 24.6141 26.7055 24.2993 26.8453 24.3204C26.8914 24.3266 26.9523 24.4243 26.95 24.4735C26.9461 24.5907 26.8953 24.7047 26.8828 24.8204C26.8727 24.9055 26.893 24.993 26.8969 25.0797C26.9844 25.0727 27.082 25.0797 27.1602 25.0532C27.3367 24.9875 27.5055 24.8969 27.6812 24.8258C27.7641 24.7914 27.8578 24.7766 27.9453 24.7524C27.9539 24.7797 27.9688 24.8086 27.9781 24.8336ZM36.7266 24.3829C36.7937 24.3907 36.8617 24.3844 36.9219 24.4055C37.0391 24.4375 37.0961 24.518 37.0445 24.643C37.0227 24.6977 36.993 24.7493 36.9641 24.7993C36.8984 24.9289 36.8711 25.0266 37.0781 25.0211C37.125 25.0211 37.2078 25.0586 37.2133 25.0946C37.2258 25.1477 37.2102 25.236 37.1672 25.2696C36.9602 25.4352 36.7289 25.5586 36.4555 25.55C36.4 25.5485 36.3125 25.5039 36.3047 25.461C36.2883 25.4047 36.3148 25.3188 36.3531 25.2696C36.4188 25.1899 36.5141 25.1305 36.5836 25.0555C36.6609 24.9727 36.6711 24.8766 36.5672 24.8047C36.4633 24.7329 36.3133 24.6696 36.4039 24.5243C36.4594 24.4375 36.5992 24.4016 36.7031 24.3414C36.7094 24.3547 36.7203 24.368 36.7266 24.3829ZM23.8141 20.2313C23.8359 20.2071 23.8266 20.2149 23.818 20.225C23.757 20.3383 23.693 20.5032 23.5453 20.4493C23.4829 20.4201 23.427 20.3788 23.3808 20.3276C23.3347 20.2765 23.2992 20.2167 23.2766 20.1516C23.2273 19.9719 23.2469 19.7711 23.2383 19.5805L23.3063 19.5696C23.3844 19.7485 23.4641 19.9305 23.5391 20.1102L23.6227 20.1032C23.6687 19.9125 23.7117 19.7188 23.7578 19.5282L23.8109 19.5227C23.9068 19.6868 24.0023 19.8537 24.0977 20.0235C24.1258 20.0219 24.1484 20.0157 24.1734 20.0141L24.2648 19.3118C24.4266 19.5164 24.4531 19.7032 24.4555 19.9008C24.4555 20.0618 24.4156 20.2266 24.2539 20.2727C24.1391 20.3063 23.9953 20.2508 23.8141 20.2313ZM34.3 21.0282C34.3484 20.9485 34.3805 20.8493 34.4492 20.7868C34.6563 20.6071 34.8781 20.443 35.0898 20.2704C35.3227 20.0766 35.5469 19.8782 35.7836 19.6868C35.8281 19.6508 35.9094 19.6071 35.9477 19.6243C35.9937 19.6454 36.0172 19.7297 36.0289 19.7868C36.0602 19.9516 36.0125 20.0766 35.8617 20.1688C35.4172 20.4454 34.9797 20.7336 34.5359 21.0118C34.4828 21.0438 34.4234 21.0618 34.3617 21.0875C34.3422 21.0666 34.3216 21.0468 34.3 21.0282ZM39.1875 17.5391C39.168 17.4 39.1656 17.2586 39.1281 17.1227C39.0445 16.8047 38.9664 16.4789 38.8383 16.1782C38.7617 15.9891 38.7578 15.8438 38.8719 15.6883C38.9805 15.5414 39.0602 15.536 39.1234 15.6993C39.2266 15.968 39.3312 16.2399 39.3664 16.5188C39.4047 16.7938 39.3586 17.0758 39.3406 17.3539C39.3367 17.4196 39.2875 17.4805 39.2609 17.543C39.2365 17.5406 39.212 17.5393 39.1875 17.5391ZM29.7656 16.7672C29.7656 16.6375 29.7484 16.5407 29.7703 16.4532C29.8531 16.1149 29.7383 15.8508 29.5039 15.6196C29.3242 15.4391 29.3188 15.2407 29.507 15.0774C29.5531 15.0391 29.6781 15.0274 29.7211 15.0625C30.1078 15.3688 30.1891 16.3407 29.8711 16.7172C29.8594 16.7313 29.8391 16.7329 29.7656 16.7672ZM18.9984 18.1485C19.0609 18.4516 18.75 18.8547 18.4094 18.8735C18.2102 18.8836 18.0125 18.6844 18.0109 18.4438C18.0031 18.0594 18.2219 17.7821 18.4875 17.5383C18.5023 17.5243 18.5359 17.5329 18.6133 17.5243C18.5398 17.675 18.4758 17.793 18.4289 17.9102C18.3805 18.0243 18.3289 18.1407 18.3148 18.2602C18.3047 18.3282 18.3484 18.4508 18.4 18.4727C18.4672 18.5 18.5805 18.4805 18.6484 18.4391C18.7688 18.3664 18.8688 18.261 18.9984 18.1485Z" fill="white"/>
<path fill-rule="evenodd" clip-rule="evenodd" d="M30.2125 17.7079C30.275 17.5446 30.3422 17.3813 30.4117 17.2079C30.5453 17.368 30.5703 17.8125 30.4656 17.9446C30.382 18.0493 30.2719 18.0594 30.1679 17.9782C30.0508 17.886 29.9594 17.8844 29.8383 17.9797C29.6945 18.0969 29.5953 18.0672 29.5492 17.893C29.5117 17.7524 29.5172 17.6047 29.5054 17.4633C29.5289 17.4547 29.5554 17.4485 29.5773 17.4415C29.6375 17.5407 29.6945 17.6407 29.7765 17.7813C29.8445 17.6063 29.8914 17.4735 29.9617 17.2899C30.0351 17.4641 30.0898 17.5805 30.1422 17.7024C30.1646 17.7034 30.188 17.7053 30.2125 17.7079ZM17.6578 23.193C17.6898 22.918 17.7195 22.6735 17.7461 22.429C17.3828 22.3797 17.3015 22.2594 17.4312 21.9946C17.4687 21.9196 17.5742 21.8079 17.632 21.8196C17.7398 21.8375 17.8781 21.9047 17.9281 21.9969C18.0851 22.279 17.9687 22.9094 17.7453 23.1469C17.7351 23.161 17.7109 23.1649 17.6578 23.193ZM13.4219 14.8907C13.4445 15.0391 13.4484 15.1391 13.4781 15.2305C13.4976 15.2985 13.5531 15.3539 13.589 15.4172C13.6476 15.3797 13.7195 15.3539 13.7601 15.3055C13.8219 15.2164 13.8633 15.1149 13.957 15.0172C13.9672 15.0977 13.9672 15.1805 13.9929 15.25C14.025 15.3235 14.0859 15.3836 14.132 15.4493C14.1773 15.393 14.2281 15.3422 14.2695 15.2821C14.2929 15.2485 14.3031 15.2071 14.3265 15.161C14.4523 15.3305 14.439 15.5383 14.3 15.6579C14.1265 15.8055 14.0187 15.6672 13.914 15.5532C13.6273 15.736 13.5133 15.743 13.3765 15.5883C13.2187 15.4047 13.2164 15.1391 13.4219 14.8907ZM35.7773 22.0782C35.7664 21.979 35.7453 21.9196 35.7562 21.8696C35.8461 21.5704 35.7258 21.3657 35.489 21.1969C35.3164 21.0766 35.3164 20.9305 35.4922 20.8094C35.5476 20.7719 35.6633 20.7579 35.7187 20.7899C36.0758 20.9969 36.1773 21.6696 35.9086 21.9758C35.8859 22.0032 35.8523 22.0227 35.7773 22.0782ZM22.8672 16.825C22.8672 16.7368 22.8633 16.6493 22.8672 16.5618C22.8914 16.1743 22.8179 15.8125 22.5984 15.4821C22.5609 15.4282 22.5289 15.3329 22.5508 15.2821C22.5901 15.2043 22.6553 15.1427 22.7351 15.1079C22.7711 15.0969 22.8703 15.1844 22.8984 15.2446C23.0679 15.6047 23.1015 15.9868 23.057 16.3743C23.0406 16.5313 22.9945 16.6844 22.9609 16.8399C22.9297 16.8368 22.8976 16.8289 22.8672 16.825ZM10.625 16.1266C10.6414 15.7961 10.8117 15.525 10.6804 15.2297C10.6312 15.2493 10.6031 15.268 10.5711 15.2766C10.4969 15.2875 10.4179 15.2938 10.3422 15.3016C10.3594 15.2211 10.3523 15.1204 10.4 15.0625C10.4969 14.9477 10.5984 14.7821 10.7844 14.8579C10.9531 14.9289 10.9609 15.1047 10.95 15.2649C10.9344 15.568 10.8117 15.8274 10.625 16.1266Z" fill="white"/>
</svg>
