<svg width="40" height="40" viewBox="0 0 40 40" fill="none" xmlns="http://www.w3.org/2000/svg">
<path d="M15.3167 10.5834C11.9167 14.4001 9.58332 19.8834 9.36665 20.4001L5.59999 18.7834C4.51665 18.3168 4.24999 16.9001 5.08332 16.0668L10.1 11.0501C10.8833 10.2668 12.0167 9.91676 13.1167 10.1334L15.3167 10.5834ZM17.8 27.5168C18.3 28.0168 19.0333 28.1501 19.6667 27.8501C21.6 26.9501 25.75 24.8334 28.4333 22.1501C36.0833 14.5001 36.15 8.26676 35.7 5.60009C35.6408 5.27263 35.483 4.97106 35.2477 4.73576C35.0124 4.50045 34.7108 4.34263 34.3833 4.28342C31.7167 3.83342 25.4833 3.90009 17.8333 11.5501C15.15 14.2334 13.05 18.3834 12.1333 20.3168C11.8333 20.9501 11.9833 21.7001 12.4667 22.1834L17.8 27.5168ZM29.4167 24.6834C25.6 28.0834 20.1167 30.4168 19.6 30.6334L21.2167 34.4001C21.6833 35.4834 23.1 35.7501 23.9333 34.9168L28.95 29.9001C29.7333 29.1168 30.0833 27.9834 29.8667 26.8834L29.4167 24.6834ZM14.9 29.0168C15.0616 29.8239 15.0214 30.6585 14.783 31.4465C14.5446 32.2344 14.1153 32.9513 13.5333 33.5334C12.25 34.8168 8.26665 35.7668 5.68332 36.2668C4.53332 36.4834 3.51665 35.4668 3.73332 34.3168C4.23332 31.7334 5.16665 27.7501 6.46665 26.4668C7.04883 25.8847 7.76569 25.4555 8.55362 25.2171C9.34154 24.9787 10.1761 24.9385 10.9833 25.1001C12.9333 25.4668 14.5333 27.0668 14.9 29.0168ZM21.6667 15.0001C21.6667 13.1668 23.1667 11.6668 25 11.6668C26.8333 11.6668 28.3333 13.1668 28.3333 15.0001C28.3333 16.8334 26.8333 18.3334 25 18.3334C23.1667 18.3334 21.6667 16.8334 21.6667 15.0001Z" fill="#5E9ED5"/>
</svg>
