<svg width="50" height="50" viewBox="0 0 50 50" fill="none" xmlns="http://www.w3.org/2000/svg">
<path d="M0 37.5C0 38.9734 0.585316 40.3865 1.62718 41.4284C2.66905 42.4702 4.08213 43.0555 5.55556 43.0555H44.4444C45.9179 43.0555 47.3309 42.4702 48.3728 41.4284C49.4147 40.3865 50 38.9734 50 37.5V30.5555H0V37.5Z" fill="#138808"/>
<path d="M50 19.4445V12.5C50 11.0266 49.4147 9.61351 48.3728 8.57164C47.3309 7.52977 45.9179 6.94446 44.4444 6.94446H5.55556C4.08213 6.94446 2.66905 7.52977 1.62718 8.57164C0.585316 9.61351 0 11.0266 0 12.5L0 19.4445H50Z" fill="#FF9933"/>
<path d="M0 18.9819H50V31.0194H0V18.9819Z" fill="#F7F7F7"/>
<path d="M25 30.5556C28.0682 30.5556 30.5556 28.0683 30.5556 25C30.5556 21.9318 28.0682 19.4445 25 19.4445C21.9317 19.4445 19.4444 21.9318 19.4444 25C19.4444 28.0683 21.9317 30.5556 25 30.5556Z" fill="#000080"/>
<path d="M25 29.6875C27.5888 29.6875 29.6875 27.5888 29.6875 25C29.6875 22.4112 27.5888 20.3125 25 20.3125C22.4112 20.3125 20.3125 22.4112 20.3125 25C20.3125 27.5888 22.4112 29.6875 25 29.6875Z" fill="#F7F7F7"/>
<path d="M25.1389 23.2639L25 24.1667L24.8611 23.2639L25 20.5555L25.1389 23.2639ZM23.85 20.7069L24.4167 23.3583L24.7847 24.1944L24.6847 23.2875L23.85 20.7069ZM22.7778 21.1514L24.0111 23.5653L24.5833 24.2778L24.2528 23.4264L22.7778 21.1514ZM21.8569 21.8569L23.6736 23.8708L24.4111 24.4111L23.8708 23.6736L21.8569 21.8569ZM21.1514 22.7778L23.4264 24.2528L24.2778 24.5833L23.5653 24.0111L21.1514 22.7778ZM20.7069 23.85L23.2875 24.6847L24.1944 24.7847L23.3583 24.4167L20.7069 23.85ZM20.5556 25L23.2639 25.1389L24.1667 25L23.2639 24.8611L20.5556 25ZM20.7069 26.15L23.3583 25.5833L24.1944 25.2153L23.2875 25.3153L20.7069 26.15ZM21.1514 27.2222L23.5653 25.9889L24.2778 25.4167L23.4264 25.7472L21.1514 27.2222ZM21.8569 28.143L23.8708 26.3264L24.4111 25.5889L23.6736 26.1292L21.8569 28.143ZM22.7778 28.8486L24.2528 26.5736L24.5833 25.7222L24.0111 26.4347L22.7778 28.8486ZM23.85 29.293L24.6847 26.7125L24.7847 25.8055L24.4167 26.6417L23.85 29.293ZM25 29.4444L25.1389 26.7361L25 25.8333L24.8611 26.7361L25 29.4444ZM26.15 29.293L25.5833 26.6417L25.2153 25.8055L25.3153 26.7125L26.15 29.293ZM27.2222 28.8486L25.9889 26.4347L25.4167 25.7222L25.7472 26.5736L27.2222 28.8486ZM28.1431 28.143L26.3264 26.1292L25.5889 25.5889L26.1292 26.3264L28.1431 28.143ZM28.8486 27.2222L26.5736 25.7472L25.7222 25.4167L26.4347 25.9889L28.8486 27.2222ZM29.2931 26.15L26.7125 25.3153L25.8056 25.2153L26.6417 25.5833L29.2931 26.15ZM29.4444 25L26.7361 24.8611L25.8333 25L26.7361 25.1389L29.4444 25ZM29.2931 23.85L26.6417 24.4167L25.8056 24.7847L26.7125 24.6847L29.2931 23.85ZM28.8486 22.7778L26.4347 24.0111L25.7222 24.5833L26.5736 24.2528L28.8486 22.7778ZM28.1431 21.8569L26.1292 23.6736L25.5889 24.4111L26.3264 23.8708L28.1431 21.8569ZM27.2222 21.1514L25.7472 23.4264L25.4167 24.2778L25.9889 23.5653L27.2222 21.1514ZM26.15 20.7069L25.3153 23.2875L25.2153 24.1944L25.5833 23.3583L26.15 20.7069Z" fill="#6666B3"/>
<path d="M24.3889 20.6375C24.5423 20.6375 24.6667 20.5132 24.6667 20.3597C24.6667 20.2063 24.5423 20.082 24.3889 20.082C24.2355 20.082 24.1111 20.2063 24.1111 20.3597C24.1111 20.5132 24.2355 20.6375 24.3889 20.6375Z" fill="#000080"/>
<path d="M23.2083 20.9542C23.3617 20.9542 23.4861 20.8298 23.4861 20.6764C23.4861 20.523 23.3617 20.3986 23.2083 20.3986C23.0549 20.3986 22.9305 20.523 22.9305 20.6764C22.9305 20.8298 23.0549 20.9542 23.2083 20.9542Z" fill="#000080"/>
<path d="M22.15 21.5639C22.3034 21.5639 22.4278 21.4396 22.4278 21.2861C22.4278 21.1327 22.3034 21.0084 22.15 21.0084C21.9966 21.0084 21.8722 21.1327 21.8722 21.2861C21.8722 21.4396 21.9966 21.5639 22.15 21.5639Z" fill="#000080"/>
<path d="M21.2861 22.4278C21.4395 22.4278 21.5639 22.3034 21.5639 22.15C21.5639 21.9966 21.4395 21.8723 21.2861 21.8723C21.1327 21.8723 21.0083 21.9966 21.0083 22.15C21.0083 22.3034 21.1327 22.4278 21.2861 22.4278Z" fill="#000080"/>
<path d="M20.6764 23.4862C20.8298 23.4862 20.9542 23.3618 20.9542 23.2084C20.9542 23.055 20.8298 22.9306 20.6764 22.9306C20.523 22.9306 20.3986 23.055 20.3986 23.2084C20.3986 23.3618 20.523 23.4862 20.6764 23.4862Z" fill="#000080"/>
<path d="M20.3597 24.6667C20.5131 24.6667 20.6375 24.5423 20.6375 24.3889C20.6375 24.2355 20.5131 24.1111 20.3597 24.1111C20.2063 24.1111 20.0819 24.2355 20.0819 24.3889C20.0819 24.5423 20.2063 24.6667 20.3597 24.6667Z" fill="#000080"/>
<path d="M20.3597 25.8889C20.5131 25.8889 20.6375 25.7646 20.6375 25.6112C20.6375 25.4577 20.5131 25.3334 20.3597 25.3334C20.2063 25.3334 20.0819 25.4577 20.0819 25.6112C20.0819 25.7646 20.2063 25.8889 20.3597 25.8889Z" fill="#000080"/>
<path d="M20.6764 27.0695C20.8298 27.0695 20.9542 26.9451 20.9542 26.7917C20.9542 26.6383 20.8298 26.5139 20.6764 26.5139C20.523 26.5139 20.3986 26.6383 20.3986 26.7917C20.3986 26.9451 20.523 27.0695 20.6764 27.0695Z" fill="#000080"/>
<path d="M21.2861 28.1278C21.4395 28.1278 21.5639 28.0035 21.5639 27.85C21.5639 27.6966 21.4395 27.5723 21.2861 27.5723C21.1327 27.5723 21.0083 27.6966 21.0083 27.85C21.0083 28.0035 21.1327 28.1278 21.2861 28.1278Z" fill="#000080"/>
<path d="M22.15 28.9917C22.3034 28.9917 22.4278 28.8673 22.4278 28.7139C22.4278 28.5605 22.3034 28.4362 22.15 28.4362C21.9966 28.4362 21.8722 28.5605 21.8722 28.7139C21.8722 28.8673 21.9966 28.9917 22.15 28.9917Z" fill="#000080"/>
<path d="M23.2083 29.6014C23.3617 29.6014 23.4861 29.477 23.4861 29.3236C23.4861 29.1702 23.3617 29.0458 23.2083 29.0458C23.0549 29.0458 22.9305 29.1702 22.9305 29.3236C22.9305 29.477 23.0549 29.6014 23.2083 29.6014Z" fill="#000080"/>
<path d="M24.3889 29.9181C24.5423 29.9181 24.6667 29.7937 24.6667 29.6403C24.6667 29.4869 24.5423 29.3625 24.3889 29.3625C24.2355 29.3625 24.1111 29.4869 24.1111 29.6403C24.1111 29.7937 24.2355 29.9181 24.3889 29.9181Z" fill="#000080"/>
<path d="M25.6111 29.9181C25.7645 29.9181 25.8889 29.7937 25.8889 29.6403C25.8889 29.4869 25.7645 29.3625 25.6111 29.3625C25.4577 29.3625 25.3333 29.4869 25.3333 29.6403C25.3333 29.7937 25.4577 29.9181 25.6111 29.9181Z" fill="#000080"/>
<path d="M26.7917 29.6014C26.9451 29.6014 27.0694 29.477 27.0694 29.3236C27.0694 29.1702 26.9451 29.0458 26.7917 29.0458C26.6383 29.0458 26.5139 29.1702 26.5139 29.3236C26.5139 29.477 26.6383 29.6014 26.7917 29.6014Z" fill="#000080"/>
<path d="M27.85 28.9917C28.0034 28.9917 28.1278 28.8673 28.1278 28.7139C28.1278 28.5605 28.0034 28.4362 27.85 28.4362C27.6966 28.4362 27.5722 28.5605 27.5722 28.7139C27.5722 28.8673 27.6966 28.9917 27.85 28.9917Z" fill="#000080"/>
<path d="M28.7139 28.1278C28.8673 28.1278 28.9917 28.0035 28.9917 27.85C28.9917 27.6966 28.8673 27.5723 28.7139 27.5723C28.5605 27.5723 28.4361 27.6966 28.4361 27.85C28.4361 28.0035 28.5605 28.1278 28.7139 28.1278Z" fill="#000080"/>
<path d="M29.3236 27.0695C29.477 27.0695 29.6014 26.9451 29.6014 26.7917C29.6014 26.6383 29.477 26.5139 29.3236 26.5139C29.1702 26.5139 29.0458 26.6383 29.0458 26.7917C29.0458 26.9451 29.1702 27.0695 29.3236 27.0695Z" fill="#000080"/>
<path d="M29.6403 25.8889C29.7937 25.8889 29.9181 25.7646 29.9181 25.6112C29.9181 25.4577 29.7937 25.3334 29.6403 25.3334C29.4869 25.3334 29.3625 25.4577 29.3625 25.6112C29.3625 25.7646 29.4869 25.8889 29.6403 25.8889Z" fill="#000080"/>
<path d="M29.6403 24.6667C29.7937 24.6667 29.9181 24.5423 29.9181 24.3889C29.9181 24.2355 29.7937 24.1111 29.6403 24.1111C29.4869 24.1111 29.3625 24.2355 29.3625 24.3889C29.3625 24.5423 29.4869 24.6667 29.6403 24.6667Z" fill="#000080"/>
<path d="M29.3236 23.4862C29.477 23.4862 29.6014 23.3618 29.6014 23.2084C29.6014 23.055 29.477 22.9306 29.3236 22.9306C29.1702 22.9306 29.0458 23.055 29.0458 23.2084C29.0458 23.3618 29.1702 23.4862 29.3236 23.4862Z" fill="#000080"/>
<path d="M28.7139 22.4278C28.8673 22.4278 28.9917 22.3034 28.9917 22.15C28.9917 21.9966 28.8673 21.8723 28.7139 21.8723C28.5605 21.8723 28.4361 21.9966 28.4361 22.15C28.4361 22.3034 28.5605 22.4278 28.7139 22.4278Z" fill="#000080"/>
<path d="M27.85 21.5639C28.0034 21.5639 28.1278 21.4396 28.1278 21.2861C28.1278 21.1327 28.0034 21.0084 27.85 21.0084C27.6966 21.0084 27.5722 21.1327 27.5722 21.2861C27.5722 21.4396 27.6966 21.5639 27.85 21.5639Z" fill="#000080"/>
<path d="M26.7917 20.9542C26.9451 20.9542 27.0694 20.8298 27.0694 20.6764C27.0694 20.523 26.9451 20.3986 26.7917 20.3986C26.6383 20.3986 26.5139 20.523 26.5139 20.6764C26.5139 20.8298 26.6383 20.9542 26.7917 20.9542Z" fill="#000080"/>
<path d="M25.6111 20.6375C25.7645 20.6375 25.8889 20.5132 25.8889 20.3597C25.8889 20.2063 25.7645 20.082 25.6111 20.082C25.4577 20.082 25.3333 20.2063 25.3333 20.3597C25.3333 20.5132 25.4577 20.6375 25.6111 20.6375Z" fill="#000080"/>
<path d="M25 26.25C25.6904 26.25 26.25 25.6904 26.25 25C26.25 24.3096 25.6904 23.75 25 23.75C24.3096 23.75 23.75 24.3096 23.75 25C23.75 25.6904 24.3096 26.25 25 26.25Z" fill="#000080"/>
</svg>
