<svg width="50" height="50" viewBox="0 0 50 50" fill="none" xmlns="http://www.w3.org/2000/svg">
<path d="M50 37.5C50 38.9734 49.4147 40.3865 48.3728 41.4284C47.3309 42.4702 45.9179 43.0556 44.4444 43.0556H5.55556C4.08213 43.0556 2.66905 42.4702 1.62718 41.4284C0.585316 40.3865 0 38.9734 0 37.5V12.5C0 11.0266 0.585316 9.61351 1.62718 8.57164C2.66905 7.52977 4.08213 6.94446 5.55556 6.94446H44.4444C45.9179 6.94446 47.3309 7.52977 48.3728 8.57164C49.4147 9.61351 50 11.0266 50 12.5V37.5Z" fill="#DD2E44"/>
<path d="M0.770833 40.2778H49.2306C49.7288 39.4365 49.9943 38.4778 50 37.5H0C0 38.5167 0.293056 39.4569 0.770833 40.2778ZM0 31.9445H50V34.7222H0V31.9445ZM0 26.3889H50V29.1667H0V26.3889ZM0 20.8333H50V23.6111H0V20.8333ZM0 15.2778H50V18.0556H0V15.2778ZM0.770833 9.72223C0.271488 10.5632 0.00540299 11.522 0 12.5H50C50 11.4833 49.7069 10.5417 49.2292 9.72223H0.770833Z" fill="#EEEEEE"/>
<path d="M25 6.94446H5.55556C4.08213 6.94446 2.66905 7.52977 1.62718 8.57164C0.585316 9.61351 0 11.0266 0 12.5L0 26.3889H25V6.94446Z" fill="#010066"/>
<path d="M13.2417 23.9347C11.3387 23.8977 9.52607 23.1158 8.19328 21.7569C6.86048 20.3981 6.1138 18.5707 6.11361 16.6673C6.11343 14.764 6.85977 12.9364 8.1923 11.5773C9.52484 10.2182 11.3373 9.43598 13.2403 9.39859C14.2333 9.39859 15.1805 9.60137 16.043 9.96109C14.6163 8.90346 12.8871 8.33277 11.1111 8.33331C8.90097 8.33331 6.78135 9.21129 5.21855 10.7741C3.65574 12.3369 2.77777 14.4565 2.77777 16.6666C2.77777 18.8768 3.65574 20.9964 5.21855 22.5592C6.78135 24.122 8.90097 25 11.1111 25C12.8871 25.0005 14.6163 24.4298 16.043 23.3722C15.156 23.7444 14.2036 23.9356 13.2417 23.9347Z" fill="#FFCC4D"/>
<path d="M17.9472 12.2625L18.4111 14.5125L19.8042 12.6861L19.2458 14.9139L21.2945 13.8736L19.8236 15.6389L22.1208 15.5903L20.0306 16.5431L22.1208 17.4958L19.8236 17.4472L21.2945 19.2125L19.2458 18.1722L19.8042 20.4014L18.4111 18.5736L17.9472 20.825L17.4833 18.5736L16.0903 20.4014L16.6486 18.1722L14.6 19.2125L16.0695 17.4472L13.7736 17.4958L15.8639 16.5431L13.7736 15.5903L16.0695 15.6389L14.6 13.8736L16.6486 14.9139L16.0903 12.6861L17.4833 14.5125L17.9472 12.2625Z" fill="#FFCC4D"/>
</svg>
